<svg width="31" height="31" viewBox="0 0 31 31" fill="none" xmlns="http://www.w3.org/2000/svg">
<g clip-path="url(#clip0_0_107)">
<path d="M19.4278 11.8944C19.599 11.7215 19.8317 11.6235 20.075 11.6217C20.3183 11.6199 20.5524 11.7145 20.7262 11.8848C20.8999 12.0551 20.9992 12.2872 21.0023 12.5305C21.0055 12.7738 20.9121 13.0084 20.7428 13.1831L15.8428 19.3087C15.7586 19.3994 15.657 19.4721 15.5441 19.5226C15.4312 19.5731 15.3093 19.6003 15.1856 19.6027C15.0619 19.605 14.9391 19.5824 14.8243 19.5362C14.7096 19.49 14.6053 19.4211 14.5178 19.3337L11.269 16.0862C11.0964 15.9135 10.9995 15.6793 10.9995 15.4351C10.9996 15.1909 11.0966 14.9567 11.2694 14.784C11.4421 14.6114 11.6763 14.5144 11.9205 14.5145C12.1647 14.5146 12.3989 14.6116 12.5715 14.7844L15.1409 17.3544L19.4034 11.9231C19.4112 11.9132 19.4195 11.9038 19.4284 11.895L19.4278 11.8944Z" fill="url(#paint0_linear_0_107)"/>
</g>
<circle cx="15.5" cy="15.5" r="15" stroke="url(#paint1_linear_0_107)"/>
<defs>
<linearGradient id="paint0_linear_0_107" x1="10.8458" y1="12.9326" x2="20.7114" y2="13.6643" gradientUnits="userSpaceOnUse">
<stop stop-color="#3858F3"/>
<stop offset="1" stop-color="#9A36E7"/>
</linearGradient>
<linearGradient id="paint1_linear_0_107" x1="-0.476257" y1="5.09179" x2="30.1591" y2="6.90475" gradientUnits="userSpaceOnUse">
<stop stop-color="#3858F3"/>
<stop offset="1" stop-color="#9A36E7"/>
</linearGradient>
<clipPath id="clip0_0_107">
<rect width="10" height="10" fill="white" transform="translate(11 11)"/>
</clipPath>
</defs>
</svg>
