<svg version="1.1" xmlns="http://www.w3.org/2000/svg" viewBox="0 0 10 10">
<path d="M6.121 5l1.905 1.905c0.124 0.124 0.124 0.325 0 0.448l-0.672 0.672c-0.124 0.124-0.324 0.124-0.448 0l-1.905-1.905-1.905 1.905c-0.124 0.124-0.324 0.124-0.448 0l-0.673-0.672c-0.124-0.124-0.124-0.324 0-0.448l1.905-1.905-1.905-1.905c-0.124-0.124-0.124-0.325 0-0.448l0.673-0.672c0.124-0.124 0.324-0.124 0.448 0l1.905 1.905 1.905-1.905c0.124-0.124 0.324-0.124 0.448 0l0.672 0.673c0.124 0.124 0.124 0.324 0 0.448l-1.905 1.905z" fill="#FFFFFF"></path>
</svg>
