<svg width="55" height="55" viewBox="0 0 55 55" fill="none" xmlns="http://www.w3.org/2000/svg">
<rect width="55" height="55" rx="27.5" fill="url(#paint0_linear_306_6)"/>
<path d="M29.44 39.32C27.1787 39.32 25.1307 38.8293 23.296 37.848C21.4827 36.8453 20.0533 35.4693 19.008 33.72C17.984 31.9707 17.472 29.9973 17.472 27.8C17.472 25.6027 17.9947 23.6293 19.04 21.88C20.0853 20.1307 21.5147 18.7653 23.328 17.784C25.1627 16.7813 27.2107 16.28 29.472 16.28C31.3067 16.28 32.9813 16.6 34.496 17.24C36.0107 17.88 37.2907 18.808 38.336 20.024L35.648 22.552C34.0267 20.8027 32.032 19.928 29.664 19.928C28.128 19.928 26.752 20.2693 25.536 20.952C24.32 21.6133 23.3707 22.5413 22.688 23.736C22.0053 24.9307 21.664 26.2853 21.664 27.8C21.664 29.3147 22.0053 30.6693 22.688 31.864C23.3707 33.0587 24.32 33.9973 25.536 34.68C26.752 35.3413 28.128 35.672 29.664 35.672C32.032 35.672 34.0267 34.7867 35.648 33.016L38.336 35.576C37.2907 36.792 36 37.72 34.464 38.36C32.9493 39 31.2747 39.32 29.44 39.32Z" fill="white"/>
<defs>
<linearGradient id="paint0_linear_306_6" x1="-0.844972" y1="9.03381" x2="53.508" y2="12.2504" gradientUnits="userSpaceOnUse">
<stop stop-color="#3858F3"/>
<stop offset="1" stop-color="#9A36E7"/>
</linearGradient>
</defs>
</svg>
