<svg width="185" height="218" viewBox="0 0 185 218" fill="none" xmlns="http://www.w3.org/2000/svg">
<path d="M132.224 214.967C131.777 214.788 121.418 210.394 122.798 202.986C123.27 200.444 124.637 198.439 126.847 196.996C127.588 196.51 128.431 196.102 129.337 195.769C131.189 192.346 133.91 189.792 137.538 188.106C137.908 186.433 138.738 184.913 140.003 183.584C143.592 179.791 149.851 178.168 155.228 177.504C155.305 175.576 155.739 173.66 156.518 171.808C161.052 161.168 154.206 155.624 151.064 153.734C146.453 150.975 142.915 151.422 142.889 151.422L142.8 150.783C142.953 150.758 146.581 150.285 151.396 153.172C154.692 155.152 161.844 160.938 157.118 172.037C156.378 173.775 155.969 175.588 155.879 177.402C158.702 177.083 161.231 177.032 162.93 177.032C174.988 177.096 183.392 182.537 184.261 187.544C184.567 189.345 184.184 192.704 178.028 194.939C177.376 195.182 176.712 195.361 176.035 195.514C176.124 195.821 176.201 196.127 176.265 196.446C176.852 199.806 175 202.948 171.207 205.081C167.899 206.933 163.888 207.431 159.865 207.048C159.877 207.163 159.89 207.278 159.89 207.393C159.992 209.998 158.038 212.08 154.398 213.243C145.865 215.963 135.711 212.246 130.806 207.073C128.073 204.187 127.166 201.045 128.239 198.222C128.443 197.673 128.673 197.136 128.929 196.625C128.316 196.893 127.741 197.187 127.217 197.532C125.161 198.873 123.883 200.738 123.449 203.101C122.159 209.998 132.377 214.328 132.492 214.379L132.224 214.967ZM129.797 196.28C129.44 196.97 129.108 197.685 128.814 198.452C127.83 201.032 128.699 203.931 131.253 206.639C135.915 211.557 146.006 215.261 154.181 212.642C157.565 211.557 159.315 209.756 159.226 207.418C159.226 207.278 159.213 207.125 159.188 206.984C155.036 206.486 150.898 205.068 147.526 203.229C143.451 201.006 140.411 198.247 138.738 195.373C135.328 195.118 132.262 195.425 129.797 196.28ZM159.737 206.409C163.696 206.818 167.63 206.345 170.875 204.532C174.426 202.539 176.15 199.64 175.613 196.561C175.562 196.255 175.486 195.936 175.384 195.642C170.032 196.536 164.297 194.518 160.146 190.137C159.098 189.038 158.217 187.85 157.502 186.599C149.365 185.743 142.928 186.394 138.1 188.566C137.959 189.332 137.908 190.124 137.959 190.954C138.036 192.219 138.444 193.496 139.134 194.773C141.025 194.926 143.017 195.259 145.086 195.744C152.75 197.57 158.792 202.028 159.737 206.409ZM139.53 195.437C141.178 198.069 144.052 200.598 147.845 202.667C151.09 204.442 155.062 205.822 159.06 206.333C158.064 202.692 152.891 198.26 144.946 196.357C143.055 195.91 141.254 195.603 139.53 195.437ZM137.397 188.898C134.319 190.43 131.943 192.615 130.257 195.476C132.582 194.786 135.341 194.53 138.393 194.722C137.767 193.483 137.41 192.231 137.333 191.005C137.282 190.264 137.308 189.562 137.397 188.898ZM158.293 186.688C158.945 187.748 159.711 188.757 160.605 189.702C164.578 193.892 170.057 195.833 175.154 195.041C173.608 191.312 168.946 188.361 162.726 187.327C161.206 187.058 159.724 186.854 158.293 186.688ZM157.898 185.998C159.481 186.177 161.129 186.407 162.841 186.688C169.342 187.774 174.221 190.916 175.805 194.914C176.482 194.773 177.146 194.594 177.798 194.352C182.025 192.819 184.095 190.443 183.609 187.671C182.779 182.92 174.643 177.747 162.904 177.683C160.439 177.658 158.064 177.798 155.841 178.053C155.828 180.787 156.531 183.507 157.898 185.998ZM155.215 178.13C148.535 178.986 143.26 181.055 140.463 184.006C139.402 185.13 138.674 186.381 138.278 187.761C143.068 185.743 149.327 185.13 157.131 185.909C155.854 183.469 155.202 180.8 155.215 178.13Z" fill="#593D3D"/>
<path d="M129.898 215.35C129.898 214.162 130.626 212.783 131.508 212.259C131.904 212.029 132.261 212.016 132.542 212.182L133.385 212.655L133.104 213.268C133.104 213.345 133.117 213.409 133.117 213.485C133.117 214.609 132.453 215.899 131.623 216.461L131.316 217.138L130.46 216.666V216.653C130.128 216.461 129.898 216.014 129.898 215.35Z" fill="#352221"/>
<path d="M133.984 213.971C133.984 215.158 133.256 216.538 132.375 217.062C131.481 217.573 130.766 217.036 130.766 215.835C130.766 214.648 131.494 213.268 132.375 212.744C133.269 212.233 133.984 212.783 133.984 213.971Z" fill="#472F2E"/>
<path d="M133.911 214.43C133.911 215.325 133.375 216.359 132.698 216.742C132.034 217.126 131.484 216.717 131.484 215.823C131.484 214.929 132.021 213.894 132.698 213.511C133.362 213.14 133.911 213.549 133.911 214.43Z" fill="#5B3D3D"/>
<path d="M133.258 214.66C133.258 214.507 133.347 214.341 133.462 214.264C133.501 214.239 133.539 214.226 133.577 214.239L135.519 215.363C135.672 215.452 135.723 215.644 135.634 215.784C135.544 215.938 135.353 215.989 135.212 215.899L133.334 214.814C133.283 214.788 133.258 214.737 133.258 214.66Z" fill="#F4EBEA"/>
<path d="M132.149 215.772C132.149 215.618 132.238 215.452 132.353 215.376C132.392 215.35 132.43 215.337 132.468 215.35L134.41 216.474C134.563 216.564 134.614 216.755 134.525 216.896C134.435 217.049 134.244 217.1 134.103 217.011L132.225 215.925C132.174 215.899 132.149 215.848 132.149 215.772Z" fill="#F4EBEA"/>
<path d="M106.682 183.367L103.77 181.719V181.732C103.387 181.528 102.901 181.54 102.378 181.847C101.177 182.537 100.206 184.402 100.206 185.998C100.206 186.777 100.436 187.352 100.819 187.646H100.832C100.896 187.697 100.973 187.722 101.037 187.761L103.898 189.396L106.682 183.367Z" fill="#281818"/>
<path d="M107.486 185.155C107.486 186.752 106.516 188.617 105.315 189.306C104.114 189.996 103.144 189.268 103.144 187.659C103.144 186.062 104.114 184.197 105.315 183.507C106.503 182.818 107.486 183.546 107.486 185.155Z" fill="#3F2A28"/>
<path d="M106.442 186.875C106.837 185.947 106.731 185.013 106.205 184.789C105.679 184.566 104.933 185.137 104.538 186.065C104.143 186.993 104.249 187.927 104.775 188.151C105.301 188.375 106.047 187.803 106.442 186.875Z" fill="#FED517"/>
<path d="M90.5891 174.26L87.6769 172.612V172.625C87.2937 172.421 86.8083 172.433 86.2847 172.74C85.084 173.43 84.1133 175.294 84.1133 176.891C84.1133 177.67 84.3432 178.245 84.7264 178.539H84.7391C84.803 178.59 84.8797 178.615 84.9435 178.654L87.8046 180.289L90.5891 174.26Z" fill="#281818"/>
<path d="M91.3935 176.048C91.3935 177.645 90.4228 179.509 89.2221 180.199C88.0215 180.889 87.0507 180.161 87.0507 178.551C87.0507 176.955 88.0215 175.09 89.2221 174.4C90.4228 173.711 91.3935 174.451 91.3935 176.048Z" fill="#3F2A28"/>
<path d="M90.5914 176.674C90.5914 177.555 90.0549 178.564 89.4035 178.947C88.7521 179.331 88.2156 178.922 88.2156 178.041C88.2156 177.159 88.7521 176.15 89.4035 175.767C90.0549 175.397 90.5914 175.805 90.5914 176.674Z" fill="#FED517"/>
<path d="M133.059 165.791C133.059 161.819 135.473 157.208 138.449 155.497C139.202 155.062 140.096 154.845 140.799 154.845C141.361 154.845 142.779 154.896 144.248 155.816C145.946 156.863 146.151 159.456 146.151 159.456L140.109 171.693C140.109 171.693 138.155 172.65 136.15 171.552C134.898 170.875 134.144 169.738 133.812 169.112C133.659 168.844 133.429 168.282 133.365 168.078C133.174 167.414 133.059 166.66 133.059 165.791Z" fill="#281818"/>
<path d="M146.291 160.976C146.291 164.948 143.877 169.559 140.901 171.271C137.925 172.995 135.511 171.169 135.511 167.196C135.511 163.224 137.925 158.613 140.901 156.902C143.89 155.177 146.291 157.004 146.291 160.976Z" fill="#3F2A28"/>
<path d="M145.651 161.781C145.651 164.731 143.863 168.154 141.654 169.432C139.444 170.709 137.656 169.355 137.656 166.404C137.656 163.454 139.444 160.031 141.654 158.754C143.863 157.476 145.651 158.83 145.651 161.781Z" fill="#FED517"/>
<path d="M140.554 155.05C141.359 154.577 142.138 154.347 142.854 154.283V147.194L120.999 150.285C118.879 150.196 116.81 150.477 115.085 151.128L82.4507 155.752V171.756C82.2719 173.545 83.4981 175.486 86.0655 176.968L96.6541 183.086C101.048 185.628 107.754 185.896 111.56 183.699L135.445 170.058C135.164 169.253 135.011 168.295 135.011 167.196C134.985 162.33 136.914 157.144 140.554 155.05Z" fill="#EFA500"/>
<path d="M141.972 154.998C142.828 154.513 143.633 154.258 144.387 154.194V146.747L121.421 150.004C119.186 149.902 117.014 150.196 115.201 150.886L80.9055 155.739V165.166V169.24C80.7139 171.118 82.0039 173.161 84.699 174.72L95.8242 181.144C100.435 183.814 107.486 184.108 111.484 181.796L134.411 168.563C134.411 168.563 134.871 168.333 135.062 168.218C135.062 168.078 135.062 167.733 135.062 167.592C135.318 162.637 138.307 157.119 141.972 154.998Z" fill="#FFB600"/>
<path d="M144.375 146.287L144.388 143.771C144.388 143.771 143.967 143.797 143.43 143.835C142.791 142.966 141.846 142.123 140.582 141.395L129.457 134.971C124.846 132.301 117.795 132.007 113.797 134.319L83.5893 151.767C82.7335 152.265 82.0948 152.84 81.6478 153.466L80.8942 153.287L80.907 155.356C80.7281 157.234 82.0182 159.252 84.7005 160.81L95.8257 167.235C100.437 169.904 107.487 170.198 111.485 167.886L141.693 150.439C143.596 149.34 144.465 147.846 144.375 146.287Z" fill="#352221"/>
<path d="M111.483 165.357L141.69 147.91C145.688 145.598 145.177 141.536 140.566 138.866L129.441 132.442C124.83 129.772 117.78 129.478 113.782 131.79L83.5738 149.238C79.5759 151.55 80.0869 155.612 84.6979 158.281L95.823 164.706C100.434 167.375 107.485 167.669 111.483 165.357Z" fill="#FED517"/>
<path d="M95.696 146.3L116.528 134.268C119.287 132.671 124.141 132.876 127.334 134.715L135.011 139.147C136.467 139.99 137.297 141.038 137.54 142.072C137.91 140.667 137.054 139.083 135.011 137.908L127.334 133.476C124.154 131.637 119.287 131.432 116.528 133.029L95.696 145.061C94.2015 145.93 93.6523 147.143 93.9333 148.369C94.1504 147.59 94.7125 146.875 95.696 146.3Z" fill="#EFA500"/>
<path d="M96.4736 151.294L104.15 155.726C107.33 157.566 112.197 157.77 114.956 156.173L135.788 144.141C136.772 143.579 137.347 142.851 137.551 142.072C137.308 141.038 136.478 139.99 135.022 139.147L127.346 134.715C124.165 132.876 119.299 132.671 116.54 134.268L95.7072 146.3C94.7237 146.862 94.1489 147.59 93.9445 148.369C94.1745 149.404 95.0175 150.451 96.4736 151.294Z" fill="#FFB600"/>
<path d="M105.531 161.602L127.5 148.919C130.412 147.245 130.042 144.282 126.683 142.341L118.585 137.666C115.225 135.724 110.103 135.52 107.191 137.193L85.2219 149.876C82.3097 151.55 82.6802 154.513 86.0394 156.454L94.1374 161.129C97.4966 163.071 102.619 163.275 105.531 161.602Z" fill="#EFDFDF"/>
<path d="M105.146 158.945L124.675 147.667C127.256 146.172 126.936 143.541 123.947 141.817L116.756 137.666C113.767 135.941 109.22 135.75 106.627 137.244L87.1105 148.535C84.5303 150.03 84.8497 152.661 87.8385 154.385L95.0296 158.536C98.0057 160.248 102.566 160.44 105.146 158.945Z" fill="white"/>
<path d="M88.4145 149.532C88.4145 149.532 92.6806 149.94 95.9888 152.163C99.2969 154.373 103.257 158.09 103.257 158.09L104.432 157.413C104.432 157.413 100.14 152.942 96.8445 151.116C93.5364 149.289 89.564 148.816 89.564 148.816L88.4145 149.532Z" fill="#EFDFDF"/>
<path d="M93.0898 146.862C93.0898 146.862 97.356 147.271 100.664 149.493C103.972 151.703 107.932 155.42 107.932 155.42L109.107 154.743C109.107 154.743 104.815 150.272 101.52 148.446C98.2245 146.619 94.2394 146.147 94.2394 146.147L93.0898 146.862Z" fill="#EFDFDF"/>
<path d="M97.7504 144.103C97.7504 144.103 102.016 144.512 105.325 146.734C108.633 148.944 112.592 152.661 112.592 152.661L113.768 151.984C113.768 151.984 109.476 147.514 106.18 145.687C102.872 143.861 98.8999 143.388 98.8999 143.388L97.7504 144.103Z" fill="#EFDFDF"/>
<path d="M102.427 141.434C102.427 141.434 106.693 141.842 110.001 144.065C113.309 146.275 117.269 149.992 117.269 149.992L118.444 149.315C118.444 149.315 114.152 144.844 110.857 143.018C107.549 141.191 103.576 140.718 103.576 140.718L102.427 141.434Z" fill="#EFDFDF"/>
<path d="M107.09 138.777C107.09 138.777 111.356 139.186 114.664 141.408C117.972 143.618 121.932 147.335 121.932 147.335L123.107 146.658C123.107 146.658 118.815 142.187 115.52 140.361C112.212 138.534 108.239 138.062 108.239 138.062L107.09 138.777Z" fill="#EFDFDF"/>
<path d="M123.883 166.073L133.143 160.721V158.153L123.883 163.493V166.073Z" fill="#352221"/>
<path d="M123.883 168.742L133.143 163.403V162.113L123.883 167.452V168.742Z" fill="#352221"/>
<path d="M105.99 196.05C100.127 196.05 94.8771 194.237 90.1895 190.622C86.3066 187.633 84.2373 184.082 84.0202 180.084C83.6881 173.66 88.2863 168.844 88.3374 168.806C88.9505 168.231 89.9085 168.244 90.496 168.857C91.0708 169.47 91.058 170.428 90.4449 171.016C89.8446 171.603 86.8175 175.537 87.0729 179.982C87.2517 183.035 88.925 185.794 92.0543 188.208C101.57 195.552 113.372 194.569 129.198 185.104C142.034 177.428 150.043 168.589 152.355 159.533C155.74 146.236 148.153 124.625 140.221 118.787C137.922 117.089 135.865 116.846 133.962 118.034C130.845 119.95 126.924 122.658 124.063 124.625C122.735 125.532 121.649 126.285 120.998 126.707C118.111 128.597 114.598 133.31 112.504 136.133C112.146 136.606 111.827 137.04 111.546 137.41C111.035 138.074 110.077 138.215 109.413 137.704C108.748 137.193 108.608 136.235 109.119 135.571C109.4 135.213 109.706 134.792 110.051 134.319C112.414 131.152 115.978 126.349 119.324 124.165C119.963 123.743 121.023 123.015 122.326 122.121C125.213 120.129 129.172 117.408 132.353 115.454C134.447 114.164 137.832 113.27 142.022 116.348C150.835 122.836 159.022 145.751 155.305 160.299C152.751 170.288 144.5 179.522 130.756 187.735C121.457 193.279 113.244 196.05 105.99 196.05Z" fill="#593D3D"/>
<path d="M76.2422 187.007L57.2107 196.05L79.9975 207.98L76.2422 187.007Z" fill="#C6AFAF"/>
<path d="M75.1555 186.432L56.1367 195.476L78.9235 207.405L75.1555 186.432Z" fill="#D8C4C3"/>
<path d="M56.1376 195.476L55.5117 196.919L78.9243 209.232L79.5247 209.5L79.9973 207.98L56.1376 195.476Z" fill="#C6AFAF"/>
<path d="M115.711 126.106C115.711 126.106 111.866 130.436 109.721 133.297C108.354 135.111 104.433 140.667 104.433 140.667L108.277 143.439C108.277 143.439 112.16 137.755 113.77 135.711C114.932 134.23 119.288 129.223 119.288 129.223C119.288 129.223 118.47 126.106 115.711 126.106Z" fill="#352221"/>
<path d="M108.327 143.362C108.021 143.809 106.897 143.579 105.811 142.851C104.725 142.123 104.087 141.165 104.393 140.706C104.7 140.259 105.824 140.488 106.909 141.216C107.995 141.957 108.634 142.915 108.327 143.362Z" fill="#472F2E"/>
<path d="M107.536 143.03C107.345 143.311 106.617 143.171 105.927 142.698C105.237 142.226 104.828 141.613 105.02 141.331C105.211 141.05 105.94 141.191 106.629 141.664C107.319 142.123 107.728 142.737 107.536 143.03Z" fill="#D8C4C3"/>
<path d="M105.01 141.32L68.8008 194.003L71.3165 195.732L107.525 143.049L105.01 141.32Z" fill="#D8C4C3"/>
<path d="M78.9252 207.405L78.4015 208.964L79.5255 209.5L79.9981 207.98L78.9252 207.405Z" fill="#B29A9A"/>
<path d="M126.606 136.465C127.13 136.465 127.564 136.695 127.564 136.976C127.564 137.257 127.13 137.487 126.606 137.487C126.083 137.487 125.648 137.257 125.648 136.976C125.648 136.695 126.07 136.465 126.606 136.465Z" fill="#3F2A28"/>
<path d="M123.794 134.83C124.318 134.83 124.752 135.06 124.752 135.341C124.752 135.622 124.318 135.852 123.794 135.852C123.27 135.852 122.836 135.622 122.836 135.341C122.836 135.06 123.27 134.83 123.794 134.83Z" fill="#3F2A28"/>
<path d="M134.88 141.063C135.404 141.063 135.838 141.293 135.838 141.574C135.838 141.855 135.404 142.085 134.88 142.085C134.356 142.085 133.922 141.855 133.922 141.574C133.922 141.293 134.343 141.063 134.88 141.063Z" fill="#3F2A28"/>
<path d="M132.06 139.428C132.583 139.428 133.017 139.658 133.017 139.939C133.017 140.22 132.583 140.45 132.06 140.45C131.536 140.45 131.102 140.22 131.102 139.939C131.102 139.658 131.536 139.428 132.06 139.428Z" fill="#3F2A28"/>
<path d="M129.247 137.793C129.771 137.793 130.205 138.023 130.205 138.304C130.205 138.585 129.771 138.815 129.247 138.815C128.723 138.815 128.289 138.585 128.289 138.304C128.289 138.023 128.723 137.793 129.247 137.793Z" fill="#3F2A28"/>
<path d="M120.97 133.195C121.493 133.195 121.928 133.425 121.928 133.706C121.928 133.987 121.493 134.217 120.97 134.217C120.446 134.217 120.012 133.987 120.012 133.706C120.012 133.425 120.446 133.195 120.97 133.195Z" fill="#3F2A28"/>
<path d="M117.012 135.073L124.024 139.122L125.493 138.266L118.493 134.217L117.012 135.073Z" fill="#3F2A28"/>
<path d="M125.34 139.978L132.352 144.027L133.834 143.171L126.821 139.122L125.34 139.978Z" fill="#3F2A28"/>
<path d="M44.1169 17.2306L117.408 59.547L147.258 42.3164L73.9671 0L44.1169 17.2306Z" fill="#F4EBEA"/>
<path d="M44.1172 55.6768L117.408 97.9932L147.258 80.7627L73.9673 38.4462L44.1172 55.6768Z" fill="#D8C4C3"/>
<path d="M44.1172 17.2306V55.6768L117.408 97.9933V59.547L44.1172 17.2306Z" fill="#EDDCDA"/>
<path d="M115.827 95.3237V62.6125L73.9699 38.4462L45.7419 54.7444V54.7955L115.827 95.3237Z" fill="#CEB7B6"/>
<path d="M147.26 42.3164L117.41 59.547V97.9932L147.26 80.7627V42.3164Z" fill="#DDC9C7"/>
<path d="M45.7419 19.7339V54.7443L73.8677 38.4973V35.9938L45.7419 19.7339Z" fill="#DDC9C7"/>
<path d="M115.823 62.6124V60.2622L73.8638 35.9938V38.4973L73.966 38.4462L115.823 62.6124Z" fill="#BFA5A5"/>
<path d="M109.092 56.3028L80.7615 39.9918V75.1171L109.092 58.7551V56.3028Z" fill="#DDC9C7"/>
<path d="M80.7658 76.024L78.7732 74.8489V37.846L80.7658 39.0211V76.024Z" fill="#EDDCDA"/>
<path d="M144.886 76.8797C144.835 76.6498 144.516 76.6754 144.439 76.8797C144.273 77.3779 144.222 77.9016 144.082 78.3997C143.941 78.9106 143.698 79.3832 143.545 79.8814C143.392 80.3412 144.094 80.6222 144.324 80.2135C144.81 79.3066 145.104 77.9016 144.886 76.8797Z" fill="#CEB7B6"/>
<path d="M143.582 81.5418C143.339 81.1203 142.918 80.9671 142.522 80.7244C142.126 80.4817 141.756 80.0985 141.283 80.0219C141.232 80.0091 141.168 80.0474 141.168 80.1113C141.194 81.0054 142.56 82.0783 143.416 81.9506C143.595 81.9378 143.659 81.6823 143.582 81.5418Z" fill="#CEB7B6"/>
<path d="M120.949 60.3134C120.349 60.8115 119.876 61.4246 119.569 62.1399C119.365 62.6125 119.071 63.315 119.493 63.7493C119.544 63.8004 119.646 63.8131 119.697 63.7748C120.106 63.481 120.093 62.9318 120.272 62.4848C120.527 61.8334 120.949 61.2969 121.485 60.8371C121.856 60.5305 121.319 60.0068 120.949 60.3134Z" fill="#CEB7B6"/>
<path d="M121.664 63.2C121.639 63.0084 121.294 63.0084 121.268 63.2C121.166 63.877 120.949 64.5795 120.617 65.1798C120.31 65.7674 119.838 66.2272 119.557 66.8275C119.454 67.0447 119.633 67.3895 119.901 67.2873C121.421 66.687 121.868 64.6561 121.664 63.2Z" fill="#CEB7B6"/>
<path d="M121.729 92.667C121.333 92.2838 120.873 92.0027 120.477 91.6323C120.03 91.2236 119.749 90.7127 119.379 90.2401C119.225 90.0485 118.855 90.0741 118.868 90.3806C118.919 91.6962 120.247 93.114 121.588 93.0246C121.754 93.0118 121.869 92.8075 121.729 92.667Z" fill="#CEB7B6"/>
<path d="M124.091 85.2205C124.065 85.0928 123.874 85.08 123.823 85.1822C123.452 85.8208 123.235 86.5361 122.89 87.1875C122.597 87.7367 122.06 88.2604 122.035 88.9119C122.035 89.0907 122.213 89.2312 122.379 89.1801C123.095 88.9629 123.427 88.0944 123.682 87.4557C123.989 86.7277 124.206 86.0124 124.091 85.2205Z" fill="#CEB7B6"/>
<path d="M145.265 45.9822C145.24 45.9566 145.202 45.9566 145.189 45.9822C144.806 46.3398 144.831 46.9402 144.755 47.4383C144.652 48.0642 144.41 48.69 144.422 49.3159C144.435 49.6863 144.933 49.8396 145.125 49.5075C145.457 48.9199 145.483 48.2046 145.534 47.5405C145.572 47.0423 145.661 46.3781 145.265 45.9822Z" fill="#CEB7B6"/>
<path d="M83.3826 65.9972C83.2804 65.7162 82.9228 65.7928 82.8844 66.0611C82.7567 67.019 82.8844 68.0409 83.0377 68.9861C83.1143 69.4331 83.8552 69.3309 83.8424 68.8839C83.7913 67.9259 83.6891 66.8913 83.3826 65.9972Z" fill="#CEB7B6"/>
<path d="M86.0391 68.0282C86.0263 67.926 85.9113 67.8876 85.8475 67.9771C85.477 68.5007 85.2088 69.0883 84.8384 69.612C84.468 70.1357 83.9188 70.5316 83.5611 71.0681C83.3951 71.3236 83.6761 71.7578 83.9954 71.6301C85.196 71.132 86.1796 69.3054 86.0391 68.0282Z" fill="#CEB7B6"/>
<path d="M101.428 57.2095C101.351 57.1584 101.249 57.2478 101.275 57.3245C101.402 57.7971 101.581 58.2441 101.683 58.7167C101.798 59.2659 101.76 59.7641 101.722 60.3133C101.696 60.7731 102.437 60.8753 102.526 60.4283C102.756 59.317 102.424 57.8609 101.428 57.2095Z" fill="#CEB7B6"/>
<path d="M100.534 59.1127C99.2947 59.3937 98.3878 60.5816 98.1579 61.795C98.0557 62.3059 98.8221 62.5231 98.9371 62.0122C99.2053 60.8626 99.8056 60.1218 100.661 59.3426C100.764 59.2404 100.649 59.0872 100.534 59.1127Z" fill="#CEB7B6"/>
<path d="M21.6388 77.7099L21.4344 77.5567C21.179 77.3651 21.1151 76.9947 21.3067 76.7264L46.2776 43.1083C46.4692 42.8528 46.8396 42.789 47.1079 42.9806L47.3122 43.1339C47.5677 43.3255 47.6315 43.6959 47.44 43.9641L22.469 77.5822C22.2774 77.8504 21.907 77.9015 21.6388 77.7099Z" fill="#513534"/>
<path d="M47.999 47.1062C48.1651 46.1738 46.9389 45.8417 45.9554 46.5697C46.5684 45.7267 47.3731 44.3984 46.2619 43.8236C45.6744 43.517 44.9591 43.6959 44.3204 44.028C44.3204 43.6831 44.231 43.3638 43.9117 43.2233C43.5413 43.0572 43.1964 43.2744 42.9282 43.5937C42.9026 42.8273 42.6983 42.0609 42.1874 41.7161C41.4721 41.2435 40.9356 41.6778 40.6035 42.2653C40.4758 42.0226 40.1437 41.8055 39.7988 41.6139C39.2241 41.4351 38.6493 41.3585 38.1639 41.7672C37.2826 42.4952 38.0362 43.8236 38.4832 44.7177C37.9468 45.1137 37.6019 45.7906 37.7041 46.4293C37.091 46.2249 36.3502 46.4803 36.1458 47.1701C35.8648 48.1153 36.4651 48.9966 37.206 49.5458C36.5162 49.6608 35.852 49.9035 36.1458 50.7082C36.4268 51.4873 37.3848 51.6917 38.2406 51.6534C37.8191 52.3559 37.6402 53.1861 38.5726 53.5948C39.2624 53.9014 40.2203 53.4288 40.8973 52.8285C41.0506 53.531 41.5998 54.1568 42.3406 54.2079C42.8388 54.2462 43.2475 53.9908 43.4774 53.6331C44.3204 54.4506 45.4189 55.1276 46.479 54.3995C46.9644 54.0674 47.1815 53.3521 47.0538 52.8029C47.4881 52.854 47.9096 52.7391 48.2034 52.3431C48.4333 52.011 48.4716 51.615 48.3694 51.2574C49.0719 51.053 49.6723 50.5805 49.9405 49.8396C50.081 49.4564 50.081 49.0349 50.0043 48.6262C49.8511 48.2813 49.3657 47.2467 47.999 47.1062Z" fill="#FF61AD"/>
<path d="M36.9335 55.6895C36.065 57.6055 34.0852 60.0068 34.6983 60.722C35.6945 61.8971 37.5083 61.6034 37.5083 61.6034C37.5083 61.6034 36.8186 64.5539 35.3624 65.1542C32.7312 66.2399 30.7004 66.8402 30.7004 66.8402C30.7004 66.8402 23.075 82.6402 17.9531 84.5051C15.82 85.2714 14.2617 83.2917 14.2106 81.6823C14.0062 75.6152 22.6024 66.6614 28.0691 62.5102C29.8701 61.1435 33.2294 55.4852 36.9335 55.6895Z" fill="#FFC9B6"/>
<path d="M33.3368 62.5103C33.3368 62.5103 33.7455 61.4118 34.7035 60.7349C35.6614 60.0579 35.7508 58.9849 36.9132 58.7934C38.0755 58.6018 39.506 59.0871 38.4076 60.2495C37.3091 61.4118 37.4496 62.5741 36.0701 63.3533C34.7035 64.1196 33.3368 62.5103 33.3368 62.5103Z" fill="#FFC9B6"/>
<path d="M6.98281 137.283C-0.93635 128.878 6.59963 120.014 10.4187 117.293C12.4368 119.784 24.4305 124.701 24.5072 125.008C25.9505 131.177 24.6349 137.627 22.8084 143.605C21.6716 147.322 20.6881 153.619 18.0441 163.812C19.2703 168.883 17.8781 176.559 17.3671 182.307C17.0095 186.305 15.4257 196.804 15.1702 197.698C15.8855 197.481 17.0989 196.408 18.7211 195.846C20.241 195.322 22.1953 195.284 23.0638 195.629C25.7844 196.702 26.5508 197.685 25.8228 199.422C24.7498 201.99 21.3395 202.807 18.9127 203.305C15.2596 204.059 13.2032 209.871 9.30747 205.86C8.31119 204.825 9.19252 202.118 9.53738 200.7C9.47352 199.703 9.76729 190.903 8.64328 184.184C7.28936 176.099 6.58685 167.03 11.3256 162.292C6.01208 148.753 6.1909 141.421 6.98281 137.283Z" fill="#F9BBA7"/>
<path d="M9.49694 200.202C9.49694 200.202 11.7833 201.019 13.2522 201.492C14.721 201.964 18.2463 202.143 20.9414 199.537C21.9888 198.528 22.7424 197.238 22.372 196.523C21.6822 195.156 18.7189 195.846 18.7189 195.846C18.7189 195.846 23.8025 192.321 26.6509 194.645C27.9792 195.731 28.2986 197.89 26.0761 200.189C24.7605 201.556 20.8775 204.008 17.5311 205.796C15.3469 206.971 11.8088 209.283 9.38198 206.946C6.98069 204.595 9.49694 200.202 9.49694 200.202Z" fill="#BBCDFF"/>
<path d="M15.2992 143.26C7.38005 134.856 14.916 125.991 18.7351 123.271C20.7532 125.761 32.7469 130.679 32.8236 130.985C34.2669 137.155 32.9513 143.605 31.1248 149.583C29.988 153.3 29.0045 159.597 26.3605 169.789C27.5867 174.86 26.1945 182.537 25.6835 188.284C25.3259 192.282 23.7421 202.782 23.4866 203.676C24.2019 203.459 25.4153 202.386 27.0375 201.824C28.5574 201.3 30.5117 201.262 31.3802 201.606C34.1008 202.679 34.8672 203.663 34.1392 205.4C33.0662 207.967 29.6559 208.785 27.2291 209.283C23.576 210.037 21.5196 215.848 17.6239 211.838C16.6276 210.803 17.5089 208.095 17.8538 206.677C17.7899 205.681 18.0837 196.881 16.9597 190.162C15.6058 182.077 14.9033 173.008 19.642 168.269C14.3157 154.73 14.5073 147.398 15.2992 143.26Z" fill="#FFC9B6"/>
<path d="M17.8159 206.179C17.8159 206.179 20.1022 206.996 21.5711 207.469C23.04 207.942 26.5653 208.12 29.2603 205.515C30.3077 204.493 31.0613 203.216 30.6909 202.5C30.0012 201.134 27.0379 201.823 27.0379 201.823C27.0379 201.823 32.1215 198.298 34.9698 200.623C36.2982 201.709 36.6175 203.867 34.395 206.166C33.0794 207.533 29.1965 209.985 25.85 211.774C23.6658 212.949 20.1278 215.261 17.7009 212.923C15.2869 210.573 17.8159 206.179 17.8159 206.179Z" fill="#BBCDFF"/>
<path d="M6.2971 81.0693C9.83518 79.8048 14.1269 81.8101 14.3057 85.4376C16.2472 88.733 14.344 93.5739 11.3041 95.7836C7.76598 98.3509 2.31198 95.7581 1.13688 91.7857C-0.0893174 87.6728 2.17148 82.5509 6.2971 81.0693Z" fill="#EDDCDA"/>
<path d="M14.8658 90.3934C18.1612 91.3514 21.1373 90.5722 24.2922 90.0869C22.3252 88.0177 19.8344 85.9868 21.7504 80.2773C19.2597 79.6004 16.9733 78.6041 14.7764 77.2374C14.3421 76.9692 13.6268 77.2118 13.5247 77.7483C13.0265 80.3412 12.4007 83.3556 10.7146 84.6457C10.7274 85.5781 10.6635 85.3865 10.6635 86.2933C10.6635 86.9703 10.6635 87.6345 10.6635 88.3115C11.762 89.3972 13.3586 89.9464 14.8658 90.3934Z" fill="#FFC9B6"/>
<path d="M12.5771 71.0553C12.9603 67.4662 15.9108 62.6891 19.9343 62.9829C24.0344 63.2894 26.8316 69.3821 27.1509 72.2177C27.7002 77.033 27.2659 86.1145 19.6661 83.2023C13.7395 80.9415 11.9896 76.4072 12.5771 71.0553Z" fill="#FFC9B6"/>
<path d="M4.3265 101.353C1.69529 93.2034 3.30467 87.7878 5.62933 85.1182C6.58729 84.0198 9.48673 80.8138 11.9647 83.049C11.16 86.7659 18.4533 88.7585 23.1026 88.7585C26.6151 91.3769 28.2628 93.3567 30.2681 96.9075C32.4012 100.663 34.1766 103.779 29.6423 106.513C31.0345 110.638 28.084 115.62 29.2846 126.157C25.0441 129.529 16.8822 129.491 12.3734 126.758C8.84808 124.625 6.98325 122.236 7.1493 119.669C8.3244 117.165 8.80977 116.642 8.68204 113.525C8.52876 109.591 5.53992 105.082 4.3265 101.353Z" fill="#F4EBEA"/>
<path d="M28.3398 96.8053C29.004 96.8947 32.2994 102.936 32.4782 105.223C32.6571 107.509 31.7246 112.031 31.4692 114.355C31.2137 116.68 30.8561 120.588 30.8561 120.588L25.5043 122.351C25.5043 122.351 27.0242 119.273 27.3052 115.007C27.5862 110.741 26.0918 101.289 26.0918 101.289L28.3398 96.8053Z" fill="#BBCDFF"/>
<path d="M12.4768 173.417C20.562 178.411 22.6567 177.683 28.3534 175.959C32.4918 174.707 34.4077 171.68 35.3274 168.461C35.6978 155.599 35.5701 137.295 34.8675 132.403C33.5519 123.271 31.4827 121.738 31.4827 121.738L16.679 123.271L7.95517 117.778C7.95517 117.778 3.40804 123.59 2.25848 129.108C1.10892 134.626 0.572464 140.744 0.815149 149.148C1.09615 158.971 1.53043 163.033 0.815149 167.912C2.23293 174.694 7.55921 170.377 12.4768 173.417Z" fill="#BBCDFF"/>
<path d="M24.994 90.2528C24.994 90.2528 20.0764 89.0394 17.7262 92.4242C15.376 95.809 16.1679 102.068 16.2446 107.113C16.3212 112.158 16.1296 122.645 16.1296 122.645L13.805 121.802C13.805 121.802 14.3031 115.377 14.2009 108.314C14.0987 101.237 14.2009 94.2252 15.8486 91.5046C17.4963 88.784 22.631 88.2858 22.631 88.2858L24.994 90.2528Z" fill="#BBCDFF"/>
<path d="M5.78215 97.0865C5.43728 92.4499 5.7566 90.534 6.95725 88.2859C8.59217 85.2205 10.8785 83.4961 12.1813 82.7042C12.3091 82.4104 12.4368 82.1167 12.5773 81.8357C11.9387 81.5036 11.3256 81.0054 10.9935 81.031C7.80026 81.3375 4.74755 85.0417 3.84068 90.2274C3.13817 94.302 4.36436 100.714 5.78215 105.785C7.44262 111.724 7.94076 112.95 7.94076 117.025C7.94076 117.944 10.6614 119.503 10.6614 119.503C10.6614 119.503 10.0483 114.841 8.75822 109.591C7.59589 104.916 5.98651 99.7815 5.78215 97.0865Z" fill="#BBCDFF"/>
<path d="M30.8579 119.017L31.471 121.738C31.471 121.738 23.769 126.975 16.2458 124.791C8.5821 122.555 6.64062 119.618 6.64062 119.618L7.77741 116.118C8.91419 117.267 12.8227 120.895 18.2 121.738C21.2017 122.211 26.7706 120.844 30.8579 119.017Z" fill="#A6C2FF"/>
<path d="M10.6635 146.083C10.6635 146.083 11.0723 150.694 12.4773 156.135C13.8823 161.564 15.0829 165.051 15.0829 165.051C15.0829 165.051 14.853 160.146 13.8057 154.577C12.7583 149.008 10.6635 146.083 10.6635 146.083Z" fill="#A6C2FF"/>
<path d="M26.3339 141.574C26.3339 141.574 25.7591 148.599 26.0912 153.9C26.4233 159.201 29.0034 166.188 29.0034 166.188C29.0034 166.188 28.4542 157.068 28.3392 152.214C28.237 147.36 26.3339 141.574 26.3339 141.574Z" fill="#A6C2FF"/>
<path d="M32.3887 99.9092C33.7682 101.429 35.4031 103.486 36.1823 105.402C37.0764 107.598 38.9029 110.919 39.7076 112.797C41.5213 113.653 44.6634 114.687 48.5336 116.948C52.506 119.26 54.0515 120.384 56.0313 120.435C58.0749 120.499 59.4416 120.895 60.8466 121.138C63.6694 121.61 61.2937 122.658 60.4635 122.773C59.5055 122.9 57.9344 123.22 57.9344 123.22C57.9344 123.22 61.217 127.575 62.6859 130.5C64.2059 133.502 59.9014 136.759 57.2575 133.949C54.5879 131.113 52.506 126.822 51.7652 125.608C51.0243 124.382 43.8715 122.389 41.6874 121.917C40.9976 121.764 37.6895 121.036 36.9742 120.908C35.8374 120.691 35.4925 120.065 34.3302 118.915C33.0018 117.6 32.7208 117.549 29.7192 113.729C27.1519 110.46 25.4659 108.991 24.4313 104.776C23.2817 100.114 30.8177 98.1721 32.3887 99.9092Z" fill="#FFC9B6"/>
<path d="M26.7549 91.479C31.6085 92.4114 36.0152 99.692 35.913 104.443C37.2286 106.13 30.2546 112.12 27.9683 111.481C24.3025 111.009 20.9304 105.976 19.8831 100.65C18.6441 94.3529 21.799 90.5211 26.7549 91.479Z" fill="#EDDCDA"/>
<path d="M35.9301 104.444L36.9264 106.589C36.9264 106.589 37.2968 108.339 34.7295 110.574C32.1622 112.81 29.0839 112.874 29.0839 112.874L27.9727 111.481C27.9727 111.481 31.1659 110.638 33.2223 108.888C35.2787 107.139 35.9301 104.444 35.9301 104.444Z" fill="#F4EBEA"/>
<path d="M29.2072 67.1724C29.5904 66.687 29.8714 66.1761 29.9353 65.6652C30.1396 64.1453 27.7128 63.7621 26.2184 64.1197C24.0725 60.6838 18.593 59.4449 15.502 62.6125C12.3087 63.0468 10.3289 64.6434 9.71585 67.7855C8.45134 74.2358 10.1501 74.8617 12.1938 82.6787C15.0166 83.5983 17.6222 80.7755 19.6276 78.3487C20.7899 76.9564 22.2205 74.4657 23.3956 71.247C27.4446 72.7669 30.7783 71.6812 31.3786 69.7015C31.8001 68.2453 30.6122 67.4151 29.2072 67.1724Z" fill="#2C1D1B"/>
<path d="M22.2212 74.4784C22.2212 74.4784 19.1813 72.3964 18.6959 75.3597C18.2105 78.323 21.11 79.3448 21.11 79.3448L22.2212 74.4784Z" fill="#FFC9B6"/>
<path d="M13.4324 60.3261C12.2573 60.2494 11.095 60.7348 10.4308 61.7566C9.26845 63.5576 10.3414 65.3075 10.7629 65.895C12.3212 68.0536 15.2845 67.5172 16.7022 65.4991C18.3372 63.1361 15.872 60.4794 13.4324 60.3261Z" fill="#BBCDFF"/>
<path d="M13.3081 61.0798C11.4815 59.8152 8.50547 58.257 4.48202 60.4028C0.458576 62.5486 0.458577 68.9734 1.09722 72.256C1.73586 75.5386 3.86893 78.1443 4.3032 80.9926C4.94185 85.1055 1.74863 86.5871 1.74863 86.5871C1.74863 86.5871 4.64807 89.295 7.94346 85.1055C11.2389 80.916 10.2426 76.2795 10.1404 71.7068C10.0382 67.1341 13.5635 65.8057 14.4065 64.6561C15.2495 63.5066 14.6748 62.0249 13.3081 61.0798Z" fill="#3F2A28"/>
<path d="M65.1052 27.155C64.8242 26.7463 64.4155 26.5675 63.9556 26.5419C64.2877 26.0949 64.4793 25.5968 64.1345 24.9709C63.8918 24.5111 63.3809 24.2939 62.64 24.5621C63.2148 23.6808 62.5379 22.1225 61.1328 22.6845C60.9413 21.7138 59.4979 21.0496 58.8848 21.5733C58.9742 18.9549 56.5602 19.6063 56.2281 20.8069C55.6022 20.4493 54.5037 20.2705 53.8906 20.8069C53.4436 21.1901 53.3031 21.701 53.3542 22.2247C53.0732 22.1608 52.7794 22.148 52.4729 22.263C51.7576 22.5185 51.5532 23.106 51.6043 23.7191C51.0934 23.6297 50.5442 23.783 50.1865 24.1789C49.7267 24.6771 49.7139 25.4307 49.9821 26.0565C49.7522 26.0821 49.5096 26.1843 49.2924 26.3631C48.8581 26.7335 48.756 27.27 48.807 27.7937C48.3983 27.6659 47.964 27.6532 47.6064 27.8192C46.6868 28.2407 46.6229 29.237 46.7762 30.1183C46.2652 30.0417 45.7288 30.2333 45.3456 30.6676C44.8475 31.2296 44.8219 32.0342 45.0774 32.724C45.4606 33.1455 45.7927 33.7586 45.9332 34.2567C46.3036 33.963 46.7889 33.848 47.2999 34.0524C47.9002 34.295 48.1812 34.8315 48.2961 35.4063C48.5388 35.2275 48.8326 35.1636 49.1647 35.3552C49.4968 35.5468 49.6373 35.8406 49.6756 36.1727C50.4292 35.9427 51.17 36.1088 51.732 36.8879C52.0003 37.2711 51.9875 37.7437 51.8214 38.178C52.4218 37.6799 53.929 37.9736 53.8651 39.302C55.4617 39.1104 56.0748 39.9279 56.4069 41.3967C56.4708 41.3967 56.5218 41.4223 56.5729 41.4223C57.02 41.3967 57.4543 41.1796 57.7736 40.8603C58.2206 40.4132 58.3611 39.8512 58.2845 39.302C58.7315 39.2637 59.1658 39.0593 59.4596 38.7017C59.7406 38.3568 59.8683 37.9481 59.8556 37.5394C60.4687 37.7565 61.0307 37.6798 61.2478 36.7985C61.3628 36.3131 61.3372 35.7384 61.1839 35.2019C62.1547 35.4957 63.1126 35.4701 63.3936 34.3972C63.5469 33.7841 63.317 33.12 62.8827 32.5963C63.713 32.4175 64.5049 31.8171 64.837 31.0763C65.0796 30.5271 65.003 29.965 64.5943 29.5435C64.7987 29.3903 64.9775 29.1987 65.1052 28.9687C65.4373 28.4451 65.4884 27.7043 65.1052 27.155Z" fill="#778DFD"/>
<path d="M53.8509 39.3275C53.9275 37.9991 52.4076 37.7054 51.8073 38.2035C51.9733 37.7565 51.9989 37.2838 51.7178 36.9134C51.1558 36.1343 50.415 35.9682 49.6614 36.1982C49.6231 35.8661 49.4826 35.5723 49.1505 35.3807C48.8184 35.1891 48.5246 35.253 48.2819 35.4318C48.1798 34.857 47.886 34.3205 47.2857 34.0779C46.7748 33.8607 46.2894 33.9885 45.919 34.2822C45.7912 33.7841 45.4592 33.171 45.0632 32.7495C45.076 32.7751 45.076 32.8006 45.0887 32.8261C44.5906 32.7495 44.0669 32.89 43.7093 33.2859C43.1856 33.8352 43.1984 34.6143 43.5177 35.2402C43.0451 35.4062 42.6491 35.7511 42.5469 36.3004C42.4703 36.6452 42.5725 37.1306 42.8279 37.4116C42.3043 37.2328 41.7423 37.2455 41.2824 37.667C40.6821 38.229 40.8992 39.2126 41.1675 40.0556C40.7587 39.9023 40.35 39.864 40.0818 40.2727C39.8263 40.6687 39.8008 41.1923 39.903 41.6777C39.8646 41.6649 39.8391 41.665 39.8008 41.6522C40.1456 41.8438 40.4777 42.0609 40.6055 42.3036C40.9376 41.716 41.4868 41.2818 42.1893 41.7544C42.7002 42.0992 42.9046 42.8656 42.9301 43.632C43.1984 43.3126 43.5305 43.0955 43.9136 43.2615C44.233 43.402 44.3351 43.7086 44.3224 44.0662C44.9482 43.7341 45.6763 43.5681 46.2638 43.8619C47.3751 44.4366 46.5704 45.7778 45.9573 46.608C46.9408 45.88 48.167 46.2248 48.0009 47.1445C49.3549 47.285 49.853 48.3196 50.0191 48.6645C50.249 48.7028 50.4661 48.6772 50.6832 48.6134C51.3858 48.3962 51.935 47.681 51.8456 46.9018C53.1356 46.9529 54.183 45.8545 53.8254 44.5644C54.7833 44.4494 55.6647 43.9768 56.1628 43.0827C56.4438 42.5846 56.5332 41.9715 56.3799 41.4733C56.0606 39.9662 55.4475 39.1359 53.8509 39.3275Z" fill="#FED517"/>
</svg>
