<svg width="179" height="234" viewBox="0 0 179 234" fill="none" xmlns="http://www.w3.org/2000/svg">
<path d="M88.3555 196.262V203.095C88.3555 203.922 89.6209 204.597 91.19 204.597C92.7592 204.597 94.0247 203.922 94.0247 203.095V196.262H88.3555Z" fill="#352221"/>
<path d="M61.3438 180.469V187.303C61.3438 188.129 62.6092 188.804 64.1783 188.804C65.7475 188.804 67.0129 188.129 67.0129 187.303V180.469H61.3438Z" fill="#352221"/>
<path d="M119.605 178.36V185.193C119.605 186.02 120.871 186.695 122.44 186.695C124.009 186.695 125.274 186.02 125.274 185.193V178.36H119.605Z" fill="#352221"/>
<path d="M60.3484 141.122L91.1915 158.923L126.826 138.355L95.9664 120.555L60.3484 141.122Z" fill="#F4EBEA"/>
<path d="M60.3477 183.135L91.1907 200.952L126.826 180.385L95.9657 162.567L60.3477 183.135Z" fill="#DEC9C5"/>
<path d="M126.822 138.355V180.385L91.1875 200.952V158.923L126.822 138.355Z" fill="#DDC9C7"/>
<path d="M94.6338 159.733L123.992 142.776V151.971L94.6338 168.911V159.733Z" fill="white"/>
<path d="M94.6338 171.341L123.992 154.384V179.305L94.6338 196.262V171.341Z" fill="white"/>
<path d="M60.3477 141.122V183.135L91.1907 200.952V158.923L60.3477 141.122Z" fill="#EDDCDA"/>
<path d="M103.828 157.371C103.828 157.117 103.98 156.814 104.182 156.696C104.267 156.645 104.351 156.645 104.402 156.679H104.418C104.418 156.679 104.435 156.679 104.435 156.696L106.241 157.775C106.899 158.147 107.945 158.214 108.485 157.894L115.74 153.709C115.875 153.642 115.959 153.54 115.959 153.473C115.959 153.389 115.875 153.22 115.554 153.017L113.681 151.938C113.614 151.887 113.563 151.803 113.563 151.668C113.563 151.415 113.715 151.111 113.918 150.993C114.002 150.942 114.086 150.942 114.137 150.976L116.077 152.089C116.685 152.444 117.022 152.933 117.022 153.456C117.022 153.912 116.752 154.333 116.28 154.62L109.042 158.805C108.637 159.041 108.114 159.159 107.557 159.159C106.916 159.159 106.258 159.007 105.718 158.687L103.98 157.641C103.878 157.624 103.828 157.522 103.828 157.371Z" fill="#422C2A"/>
<path d="M103.828 168.979C103.828 168.726 103.98 168.422 104.182 168.304C104.267 168.253 104.351 168.253 104.402 168.287H104.418C104.418 168.287 104.435 168.287 104.435 168.304L106.241 169.384C106.899 169.755 107.945 169.822 108.485 169.502L115.74 165.318C115.875 165.25 115.959 165.149 115.959 165.081C115.959 164.997 115.875 164.828 115.554 164.626L113.681 163.546C113.614 163.495 113.563 163.411 113.563 163.276C113.563 163.023 113.715 162.719 113.918 162.601C114.002 162.55 114.086 162.55 114.137 162.584L116.077 163.698C116.685 164.052 117.022 164.541 117.022 165.064C117.022 165.52 116.752 165.942 116.28 166.229L109.042 170.413C108.637 170.649 108.114 170.767 107.557 170.767C106.916 170.767 106.258 170.616 105.718 170.312L103.98 169.266C103.878 169.215 103.828 169.131 103.828 168.979Z" fill="#422C2A"/>
<path d="M63.9085 183.152C63.6385 182.629 63.3685 182.14 63.2336 181.566C63.1155 181.06 63.1661 180.537 63.0142 180.047C62.9636 179.912 62.7949 179.879 62.7105 180.014C62.0862 181.026 62.6936 182.73 63.3686 183.574C63.6216 183.894 64.0772 183.489 63.9085 183.152Z" fill="#CEB7B6"/>
<path d="M66.8775 182.865C66.4219 182.426 65.7976 181.988 65.1396 181.954C64.954 181.954 64.9034 182.173 65.0046 182.291C65.3927 182.764 65.9495 183.084 66.3882 183.523C66.7425 183.877 66.945 184.451 67.468 184.569C67.5861 184.586 67.6874 184.535 67.738 184.417C67.9067 183.827 67.2824 183.253 66.8775 182.865Z" fill="#CEB7B6"/>
<path d="M68.2617 148.428C67.7049 148.496 67.3506 148.901 66.8782 149.17C66.3214 149.491 65.714 149.677 65.174 150.031C65.0391 150.115 65.039 150.368 65.2246 150.402C66.237 150.537 68.228 149.896 68.5654 148.816C68.616 148.647 68.4642 148.411 68.2617 148.428Z" fill="#CEB7B6"/>
<path d="M68.6815 150.267C68.5465 150.233 68.4284 150.385 68.4959 150.503C68.6984 150.892 69.0021 151.178 69.2214 151.55C69.4745 151.971 69.5926 152.427 69.7782 152.882C69.9469 153.304 70.7062 153.304 70.6387 152.764C70.5206 151.786 69.7276 150.47 68.6815 150.267Z" fill="#CEB7B6"/>
<path d="M63.8237 147.5C63.9249 147.18 63.4693 147.011 63.2837 147.281C62.4907 148.529 62.1195 150.149 62.457 151.6C62.5751 152.123 63.4525 152.022 63.4187 151.465C63.3175 150.065 63.3681 148.85 63.8237 147.5Z" fill="#CEB7B6"/>
<path d="M86.9223 188.889C86.4499 189.479 85.9437 189.985 85.37 190.458C84.8132 190.913 84.1889 191.284 83.7165 191.841C83.6659 191.892 83.6996 191.976 83.7671 191.976C85.2688 192.01 86.6861 190.626 87.5972 189.563C88.019 189.091 87.3104 188.399 86.9223 188.889Z" fill="#CEB7B6"/>
<path d="M86.5674 192.381C86.4324 192.331 86.2974 192.482 86.348 192.6C86.5168 193.14 86.9048 193.613 87.1579 194.102C87.3941 194.558 87.4785 194.996 87.9678 195.199C88.069 195.233 88.2378 195.165 88.2715 195.081C88.7102 194.17 87.3941 192.668 86.5674 192.381Z" fill="#CEB7B6"/>
<path d="M118.357 131.302C118.357 131.302 115.353 128.957 113.143 127.658C110.933 126.359 106.9 126.882 106.9 126.882C106.9 126.882 110.393 128.906 111.574 129.581C112.755 130.256 111.186 131.994 109.752 131.606C108.317 131.218 106.765 130.189 106.31 131.606C106.04 132.433 107.474 132.669 109.819 133.715C111.743 134.576 116.264 136.432 116.264 136.432L118.357 131.302Z" fill="#975ECF"/>
<path d="M141.403 129.986C141.403 129.986 146.094 124.013 149.991 124.79C153.889 125.566 160.739 129.733 160.739 138.541C160.739 142.421 152.843 139.469 149.536 141.105C146.229 142.742 136.915 146.775 132.359 147.163C127.787 147.551 113.951 136.415 113.951 136.415C113.951 136.415 113.141 135.74 114.862 132.72C116.567 129.716 117.596 129.328 117.596 129.328C117.596 129.328 123.366 131.539 125.29 132.973C127.213 134.407 131.465 136.415 131.465 136.415C131.465 136.415 134.789 132.855 136.864 131.539C138.957 130.256 141.403 129.986 141.403 129.986Z" fill="#FFB600"/>
<path d="M144.423 192.685C144.423 192.685 150.615 194.575 152.201 196.684C153.771 198.793 154.547 200.463 154.85 203.045C155.154 205.643 154.074 207.263 151.29 207.145C148.861 207.043 147.629 205.778 147.224 204.378C147.224 204.378 140.374 203.652 136.881 201.222C133.355 198.793 138.653 192.044 144.423 192.685Z" fill="#2C1D1B"/>
<path d="M126.099 160.374C131.582 159.159 138.382 161.201 144.153 163.9C144.288 163.917 144.423 163.951 144.574 164.018C151.492 167.342 165.513 170.784 167.302 172.303C170.103 179.136 166.323 189.192 159.135 188.281C155.457 190.542 151.29 190.761 147.527 189.344C147.696 189.597 150.277 193.242 152.201 196.684C150.21 197.696 149.467 198.573 146.38 201.222C143.039 199.873 137.994 195.486 135.143 193.326C132.308 191.183 122.556 180.621 122.556 171.729C118.962 168.371 119.755 161.791 126.099 160.374Z" fill="#2C1D1B"/>
<path d="M124.972 198.945C125.292 195.047 127.655 189.597 129.308 187.134C133.661 180.638 135.332 176.403 139.989 173.416C145.607 169.822 149.184 176.268 155.089 177.111C155.14 177.078 161.265 174.665 161.687 174.446C161.585 174.631 162.868 183.557 160.725 188.315C158.768 192.668 154.043 193.326 148.577 193.478C146.366 197.291 142.891 200.008 141.912 200.48C143.616 201.83 145.54 202.792 148.425 205.508C152.575 209.422 157.705 213.792 162.716 217.184C161.45 217.892 160.219 219.023 159.713 219.715C158.953 220.744 158.447 221.655 158.16 223.342C148.779 221.199 141.338 216.29 133.628 210.84C130.86 208.882 129.342 206.875 127.368 204.445C123.605 203.821 123.791 200.058 124.972 198.945Z" fill="#3F2A28"/>
<path d="M135.093 131.91L140.61 136.432C143.58 135.369 145.841 131.859 147.123 128.502C146.043 127.624 142.18 125.431 141.91 124.267C143.057 121.061 141.319 118.361 138.35 115.476C135.228 112.456 129.61 112.489 126.235 115.155C125.746 115.341 123.232 117.163 123.569 120.217C123.94 123.625 125.898 131.825 128.8 133.293C130.791 134.323 133.153 132.635 135.093 131.91Z" fill="#FFC9B6"/>
<path d="M143.04 115.408C142.753 112.81 141.335 110.465 138.535 109.199C135.396 107.765 129.778 107.546 127.247 110.397C127.196 110.313 127.179 110.212 127.112 110.127C126.336 109.115 125.036 109.284 124.125 109.975C123.4 110.532 122.86 111.325 122.506 112.22C121.966 112.051 121.358 112.034 120.835 112.253C119.013 113.013 119.08 115.594 119.722 117.113C121.055 120.251 126.015 123.676 129.66 122.832C129.474 124.655 130.368 125.65 131.836 126.848C134.114 128.721 137.404 128.822 140.002 127.54C142.938 126.089 145.604 122.731 145.385 119.306C145.284 117.669 144.356 116.168 143.04 115.408Z" fill="#2C1D1B"/>
<path d="M128.362 123.625C128.362 123.625 129.02 121.483 131.045 122.832C133.053 124.165 130.657 128.164 130.657 128.164L128.362 123.625Z" fill="#FFC9B6"/>
<path d="M147.58 127C144.205 128.468 144.441 129.075 137.405 134.474C130.37 139.874 130.015 143.063 130.656 146.42C131.298 149.778 131.787 151.482 134.52 158.012C137.996 166.33 142.467 170.852 142.467 170.852C142.467 170.852 140.071 171.594 138.991 172.269C137.912 172.944 137.642 176.639 138.856 177.786C142.315 181.043 157.011 186.695 168.08 172.86C167.54 163.563 164.587 149.322 162.208 141.983C159.508 133.681 150.549 125.718 147.58 127Z" fill="#FFCE00"/>
<path d="M126.673 186.071C122.269 189.698 120.497 196.717 122.404 201.222C124.159 205.356 128.141 207.145 128.141 207.145C128.141 207.145 129.744 195.891 132.848 190.188C135.953 184.468 140.188 184.063 143.022 180.621C145.84 177.179 144.423 173.686 144.423 173.686L136.729 163.411C136.729 163.411 128.563 173.956 123.636 176.487C124.209 180.621 126.774 184.147 126.673 186.071Z" fill="#AA83E2"/>
<path d="M126.677 186.071C126.677 186.071 130.423 182.612 132.852 180.469C135.737 177.921 137.104 175.93 138.994 172.269C139.534 167.933 136.733 164.339 136.733 164.339C136.733 164.339 133.443 163.883 133.207 167.916C132.852 174.412 123.859 177.921 123.859 177.921C123.859 177.921 126.39 184.805 126.677 186.071Z" fill="#946DD1"/>
<path d="M143.296 172.86C143.296 172.86 147.666 175.239 151.715 176.318C155.748 177.381 156.254 177.246 159.156 177.803C158.026 177.803 151.749 178.428 149.168 176.875C146.569 175.323 143.296 172.86 143.296 172.86Z" fill="#FFB600"/>
<path d="M157.014 170.936C157.014 170.936 154.685 172.86 151.226 172.522C147.767 172.185 145.574 171.763 145.574 171.763C145.574 171.763 149.303 170.7 151.226 170.936C153.133 171.172 157.014 170.936 157.014 170.936Z" fill="#FFB600"/>
<path d="M157.924 213.624C157.924 213.624 163.019 213.269 165.095 213.624C167.17 213.978 167.474 217.741 169.313 219.512C171.135 221.284 176.433 222.195 177.85 225.856C179.268 229.518 176.686 235.17 173.379 233.786C167.946 231.509 156.979 222.364 156.979 222.364C156.979 222.364 154.448 218.449 157.924 213.624Z" fill="#2C1D1B"/>
<path d="M135.313 158.045C135.313 158.045 136.528 165.891 137.776 168.051C140.256 172.303 143.159 171.628 143.293 171.729C143.293 171.729 142.484 166.988 141.505 163.951C140.526 160.914 139.008 155.768 139.008 155.768L135.313 158.045Z" fill="#AA83E2"/>
<path d="M135.313 136.33C135.313 136.33 139.531 135.149 143.293 140.481C147.157 145.948 148.271 152.646 150.532 160.02C152.995 168.051 154.615 172.303 154.615 172.303L157.011 170.936C157.011 170.936 153.991 163.141 151.224 152.798C150.262 149.221 147.883 140.667 145.318 138.271C141.471 134.694 137.422 134.491 137.422 134.491L135.313 136.33Z" fill="#AA83E2"/>
<path d="M145.234 127.978C145.234 127.978 150.33 128.13 154.092 133.462C157.956 138.929 158.192 144.311 160.47 151.668C162.933 159.699 163.861 164.339 163.861 164.339L166.089 163.073C166.089 163.073 163.929 154.789 161.162 144.429C160.2 140.852 156.674 132.011 154.109 129.615C150.262 126.038 147.36 126.122 147.36 126.122L145.234 127.978Z" fill="#AA83E2"/>
<path d="M166.984 161.673C166.984 161.673 158.851 168.591 153.638 170.295C147.53 172.303 141.473 171.476 138.975 169.738C138.773 170.818 138.975 172.269 138.975 172.269C138.975 172.269 139.988 173.4 143.278 174.412C146.568 175.407 151.697 174.581 156.084 172.573C160.471 170.548 167.288 165.402 167.288 165.402L166.984 161.673Z" fill="#946DD1"/>
<path d="M107.948 161.673C109.163 162.027 110.108 159.851 111.137 155.852C112.166 151.853 113.043 149.677 111.592 149.39C110.141 149.103 108.201 150.436 106.885 154.097C105.586 157.742 106.818 161.352 107.948 161.673Z" fill="#804FBA"/>
<path d="M134.757 139.789C132.007 138.659 128.986 141.122 123.975 146.673C119.015 148.664 109.92 150.132 109.009 150.976C106.124 154.384 105.449 158.585 109.009 160.61C109.785 161.049 115.252 163.698 115.944 163.192C118.61 164.39 126.557 162.837 128.7 158.788C130.859 159.598 135.87 160.897 140.224 153.405C142.451 149.575 141.995 142.776 134.757 139.789Z" fill="#FFB600"/>
<path d="M105.078 150.773C103.829 149.457 98.8011 147.146 97.0126 145.728C94.8023 143.991 93.5706 143.046 92.0521 142.438C89.7068 142.809 87.3109 142.911 84.6956 144.328C81.6923 145.965 78.1322 149.322 76.8162 152.612C77.9298 154.688 79.5495 155.65 81.1187 156.763C82.3841 157.674 84.7125 158.4 86.0286 159.176C87.4459 160.02 88.4414 161.099 90.1455 162.955C94.3974 161.875 95.899 157.691 98.6999 155.987C100.05 155.194 105.5 153.152 105.078 150.773Z" fill="#FF61AD"/>
<path d="M111.594 149.39C111.594 149.39 107.629 148.529 104.305 148.276C100.627 148.006 97.0329 148.057 96.0374 147.618C95.2444 146.758 94.5358 145.948 93.7765 144.935C92.1905 142.843 92.5617 141.24 91.6843 141.375C90.8069 141.51 90.8407 142.928 90.8744 144.227C90.8913 144.615 90.9588 145.104 91.0432 145.577C90.7395 145.442 90.4357 145.307 90.1658 145.189C84.1591 142.472 81.7295 143.4 81.8476 147.23C81.9488 150.301 91.3637 153.152 94.5864 153.557C97.8091 156.949 104.119 160.796 107.966 161.69C107.123 160.036 107.663 156.51 108.557 154.317C109.974 150.756 111.594 149.39 111.594 149.39Z" fill="#975ECF"/>
<path d="M46.4502 18.3574L124.52 63.4409L156.308 45.0835L78.255 0L46.4502 18.3574Z" fill="#F4EBEA"/>
<path d="M46.4492 59.324L124.519 104.391L156.307 86.0333L78.254 40.9666L46.4492 59.324Z" fill="#D8C4C3"/>
<path d="M46.4492 18.3574V59.324L124.519 104.391V63.4409L46.4492 18.3574Z" fill="#EDDCDA"/>
<path d="M122.831 101.539V66.6973L78.2539 40.9666L48.187 58.3116V58.3791L122.831 101.539Z" fill="#CEB7B6"/>
<path d="M156.304 45.0835L124.516 63.4409V104.391L156.304 86.0332V45.0835Z" fill="#DDC9C7"/>
<path d="M48.187 21.0401V58.3116L78.1358 41.0172V38.3514L48.187 21.0401Z" fill="#DDC9C7"/>
<path d="M122.832 66.6973V64.2001L78.1367 38.3513V41.0172L78.2548 40.9666L122.832 66.6973Z" fill="#BFA5A5"/>
<path d="M115.66 59.982L85.4922 42.6033V80.0266L115.66 62.5973V59.982Z" fill="#DDC9C7"/>
<path d="M85.4921 80.9884L83.3662 79.7398V40.3254L85.4921 41.574V80.9884Z" fill="#EDDCDA"/>
<path d="M153.78 81.8995C153.729 81.6464 153.375 81.6802 153.308 81.8995C153.139 82.4225 153.071 82.9794 152.92 83.5193C152.768 84.0592 152.515 84.5654 152.346 85.1053C152.194 85.5946 152.92 85.8983 153.173 85.4596C153.713 84.481 154.016 82.9962 153.78 81.8995Z" fill="#CEB7B6"/>
<path d="M152.393 86.8769C152.14 86.4382 151.685 86.2695 151.263 85.9995C150.841 85.7296 150.436 85.3246 149.947 85.2571C149.879 85.2403 149.829 85.274 149.829 85.3584C149.862 86.3032 151.313 87.4506 152.225 87.3156C152.41 87.2819 152.478 87.0288 152.393 86.8769Z" fill="#CEB7B6"/>
<path d="M128.302 64.2508C127.66 64.7738 127.154 65.4319 126.834 66.1911C126.614 66.6973 126.311 67.4397 126.749 67.9121C126.8 67.9627 126.901 67.9796 126.969 67.9459C127.407 67.6422 127.39 67.0516 127.576 66.5792C127.846 65.8874 128.302 65.3137 128.875 64.8244C129.263 64.487 128.69 63.9302 128.302 64.2508Z" fill="#CEB7B6"/>
<path d="M129.057 67.3385C129.024 67.1191 128.669 67.136 128.636 67.3385C128.517 68.064 128.281 68.8064 127.944 69.4476C127.606 70.0718 127.117 70.5611 126.813 71.2023C126.695 71.4385 126.898 71.8097 127.185 71.6916C128.804 71.0505 129.277 68.8739 129.057 67.3385Z" fill="#CEB7B6"/>
<path d="M129.125 98.7215C128.703 98.3166 128.214 98.0129 127.792 97.6248C127.32 97.1861 127.016 96.6462 126.628 96.14C126.459 95.9375 126.071 95.9713 126.088 96.2919C126.139 97.6923 127.556 99.2108 128.99 99.1096C129.142 99.0758 129.26 98.8565 129.125 98.7215Z" fill="#CEB7B6"/>
<path d="M131.64 90.7745C131.623 90.6395 131.42 90.6226 131.353 90.7407C130.948 91.4156 130.729 92.1749 130.357 92.8667C130.037 93.4572 129.463 94.014 129.446 94.7058C129.446 94.8914 129.632 95.0432 129.817 94.9926C130.577 94.7564 130.931 93.8453 131.201 93.1535C131.522 92.3942 131.758 91.635 131.64 90.7745Z" fill="#CEB7B6"/>
<path d="M154.199 48.998C154.182 48.9811 154.131 48.9811 154.114 48.998C153.709 49.386 153.743 50.0272 153.642 50.5503C153.524 51.2083 153.271 51.8832 153.288 52.5581C153.305 52.9462 153.828 53.1149 154.03 52.7606C154.384 52.1363 154.418 51.3601 154.469 50.6684C154.519 50.1116 154.621 49.4029 154.199 48.998Z" fill="#CEB7B6"/>
<path d="M88.2783 70.308C88.1771 70.0043 87.789 70.0887 87.7553 70.3755C87.6203 71.3879 87.7553 72.4846 87.924 73.497C88.0084 73.9863 88.8014 73.8682 88.7676 73.3789C88.717 72.3665 88.6158 71.2698 88.2783 70.308Z" fill="#CEB7B6"/>
<path d="M91.1133 72.4678C91.0964 72.3665 90.9783 72.3159 90.9109 72.4172C90.5228 72.9739 90.236 73.5982 89.831 74.155C89.4261 74.7118 88.8524 75.1336 88.4812 75.7073C88.2956 75.9773 88.6162 76.4497 88.9368 76.3147C90.2191 75.7748 91.2483 73.8344 91.1133 72.4678Z" fill="#CEB7B6"/>
<path d="M107.496 60.9438C107.411 60.8932 107.31 60.9775 107.327 61.0619C107.462 61.5681 107.648 62.0405 107.766 62.5467C107.884 63.1372 107.85 63.6603 107.799 64.2508C107.766 64.7401 108.559 64.8582 108.66 64.3689C108.913 63.1878 108.576 61.6356 107.496 60.9438Z" fill="#CEB7B6"/>
<path d="M106.552 62.9853C105.236 63.2891 104.275 64.5545 104.021 65.8368C103.92 66.3767 104.73 66.613 104.865 66.073C105.152 64.8582 105.793 64.0483 106.704 63.2216C106.789 63.1203 106.687 62.9516 106.552 62.9853Z" fill="#CEB7B6"/>
<path d="M22.474 82.7431L22.3559 82.6588C22.0522 82.4394 21.9847 82.0008 22.2209 81.697L48.7446 45.9778C48.9639 45.6741 49.4026 45.6066 49.7063 45.8428L49.8244 45.9272C50.1281 46.1465 50.1956 46.5852 49.9594 46.8889L23.4357 82.6082C23.1995 82.9119 22.7777 82.9794 22.474 82.7431Z" fill="#513534"/>
<path d="M50.6022 50.1959C50.7878 49.2004 49.4718 48.8461 48.4257 49.6222C49.0837 48.728 49.9442 47.3107 48.7463 46.6864C48.122 46.3658 47.3627 46.5514 46.6878 46.9057C46.6878 46.5346 46.5866 46.1971 46.2491 46.0621C45.8442 45.8934 45.4898 46.1127 45.203 46.4671C45.1693 45.6572 44.9668 44.8304 44.41 44.4761C43.6507 43.9699 43.0771 44.4424 42.7228 45.0666C42.5878 44.8136 42.2334 44.5773 41.8623 44.3749C41.2548 44.1893 40.6474 44.1049 40.1075 44.5436C39.1626 45.3197 39.9725 46.737 40.4449 47.6819C39.8713 48.1037 39.5001 48.8292 39.6182 49.5041C38.977 49.2848 38.184 49.5547 37.9647 50.2971C37.661 51.3095 38.3021 52.2544 39.0951 52.828C38.3696 52.963 37.6441 53.2161 37.9647 54.0766C38.2684 54.9033 39.2976 55.1227 40.1919 55.0889C39.7363 55.8313 39.5507 56.7256 40.5462 57.1474C41.2886 57.468 42.3009 56.9618 43.0264 56.3375C43.1952 57.0799 43.7689 57.7548 44.5787 57.8054C45.1018 57.8392 45.5405 57.5692 45.7936 57.198C46.6878 58.0754 47.8689 58.784 48.9993 58.0079C49.5224 57.6536 49.7586 56.8943 49.6068 56.3038C50.0623 56.3544 50.5179 56.2363 50.8216 55.8145C51.0747 55.4601 51.1084 55.0383 51.0072 54.6671C51.7664 54.4478 52.3907 53.9416 52.6776 53.1486C52.8294 52.7437 52.8294 52.2881 52.7451 51.8494C52.5763 51.4445 52.0533 50.3309 50.6022 50.1959Z" fill="#FF61AD"/>
<path d="M38.8241 59.3408C37.8961 61.3824 35.804 63.9302 36.4451 64.7063C37.5081 65.9549 39.4316 65.6343 39.4316 65.6343C39.4316 65.6343 38.706 68.7726 37.1538 69.4138C34.3529 70.578 32.1932 71.2023 32.1932 71.2023C32.1932 71.2023 24.0606 88.0411 18.6108 90.0152C16.3499 90.8419 14.6795 88.7329 14.6289 87.0119C14.4095 80.5497 23.5713 70.9998 29.3924 66.596C31.2821 65.145 34.876 59.1215 38.8241 59.3408Z" fill="#FFC9B6"/>
<path d="M34.9766 66.596C34.9766 66.596 35.4153 65.4318 36.4276 64.7063C37.44 63.9808 37.5412 62.8503 38.7898 62.631C40.0383 62.4285 41.54 62.9347 40.3758 64.1832C39.2116 65.4318 39.3466 66.6635 37.8786 67.4903C36.4276 68.317 34.9766 66.596 34.9766 66.596Z" fill="#FFC9B6"/>
<path d="M6.91656 146.235C-1.51973 137.292 6.51161 127.843 10.5779 124.941C12.7207 127.59 25.5101 132.838 25.5776 133.158C27.1299 139.722 25.7126 146.606 23.7723 152.967C22.5574 156.932 21.5113 163.63 18.6936 174.479C20.0097 179.879 18.5249 188.062 17.9681 194.17C17.58 198.438 15.8928 209.608 15.6228 210.57C16.3989 210.334 17.6644 209.186 19.4023 208.596C21.022 208.039 23.0974 207.988 24.0254 208.359C26.9106 209.507 27.7373 210.553 26.9612 212.392C25.8138 215.125 22.1862 216.003 19.6047 216.526C15.7072 217.336 13.5306 223.528 9.36308 219.242C8.3001 218.146 9.2281 215.26 9.59929 213.742C9.5318 212.679 9.83551 203.298 8.65443 196.144C7.22026 187.522 6.461 177.871 11.5059 172.826C5.87046 158.45 6.07293 150.638 6.91656 146.235Z" fill="#F9BBA7"/>
<path d="M9.58358 213.252C9.58358 213.252 12.0132 214.13 13.5824 214.619C15.1515 215.108 18.8972 215.311 21.7656 212.527C22.8792 211.447 23.6891 210.08 23.2841 209.304C22.5417 207.853 19.3866 208.579 19.3866 208.579C19.3866 208.579 24.8026 204.816 27.8397 207.296C29.257 208.444 29.5945 210.755 27.2323 213.202C25.8319 214.67 21.6981 217.268 18.138 219.175C15.8096 220.423 12.047 222.887 9.46547 220.406C6.90084 217.926 9.58358 213.252 9.58358 213.252Z" fill="#AA83E2"/>
<path d="M15.7564 152.596C7.32011 143.653 15.3515 134.204 19.4177 131.302C21.5606 133.951 34.35 139.199 34.4175 139.519C35.9529 146.083 34.5525 152.967 32.6121 159.328C31.3973 163.293 30.3512 169.991 27.5335 180.84C28.8495 186.24 27.3647 194.423 26.8079 200.531C26.4199 204.799 24.7326 215.969 24.4795 216.931C25.2388 216.695 26.5211 215.547 28.259 214.957C29.8787 214.4 31.9541 214.349 32.8821 214.72C35.7673 215.868 36.594 216.914 35.8179 218.753C34.6706 221.486 31.043 222.364 28.4615 222.887C24.5639 223.697 22.3873 229.889 18.2198 225.603C17.1568 224.507 18.0848 221.621 18.456 220.103C18.3885 219.04 18.6922 209.659 17.5112 202.505C16.077 193.883 15.3177 184.232 20.3626 179.187C14.7103 164.811 14.9128 157.016 15.7564 152.596Z" fill="#FFC9B6"/>
<path d="M18.439 219.613C18.439 219.613 20.8687 220.491 22.4379 220.98C24.007 221.469 27.7527 221.672 30.621 218.888C31.7346 217.808 32.5445 216.441 32.1396 215.665C31.3972 214.214 28.242 214.94 28.242 214.94C28.242 214.94 33.6581 211.177 36.6952 213.657C38.1125 214.805 38.4499 217.116 36.0878 219.563C34.6873 221.031 30.5536 223.629 26.9934 225.536C24.665 226.784 20.9024 229.248 18.3209 226.767C15.7563 224.304 18.439 219.613 18.439 219.613Z" fill="#AA83E2"/>
<path d="M6.17314 86.3707C9.93572 85.0209 14.5082 87.1637 14.6938 91.0275C16.7691 94.537 14.7275 99.6832 11.5049 102.045C7.74229 104.779 1.92125 102.012 0.672674 97.7766C-0.626514 93.4066 1.7694 87.9399 6.17314 86.3707Z" fill="#EDDCDA"/>
<path d="M15.3045 96.2918C18.814 97.3042 21.9861 96.4774 25.3437 95.9543C23.2346 93.744 20.5856 91.5844 22.6272 85.5102C19.9613 84.7847 17.5486 83.7217 15.2033 82.2707C14.7308 81.9839 13.9884 82.2369 13.8703 82.8106C13.3473 85.5777 12.6724 88.7835 10.867 90.1671C10.8839 91.1625 10.8164 90.9601 10.8164 91.9218C10.8164 92.6305 10.8164 93.356 10.8164 94.0646C11.9975 95.2457 13.7016 95.8194 15.3045 96.2918Z" fill="#FFC9B6"/>
<path d="M12.855 75.6904C13.2768 71.8603 16.3982 66.7816 20.6839 67.1022C25.0539 67.4397 28.0235 73.9187 28.3609 76.9389C28.9346 82.0682 28.4959 91.7531 20.3802 88.6485C14.1036 86.2188 12.2476 81.3933 12.855 75.6904Z" fill="#FFC9B6"/>
<path d="M4.08104 107.968C1.2802 99.2783 2.98433 93.5078 5.4646 90.6733C6.47695 89.509 9.5815 86.0839 12.2136 88.463C11.3531 92.4111 19.1314 94.5371 24.075 94.5371C27.8208 97.3379 29.5755 99.447 31.7014 103.226C33.9624 107.225 35.869 110.549 31.0266 113.468C32.5113 117.855 29.3562 123.17 30.6554 134.39C26.1504 137.984 17.4441 137.933 12.6523 135.031C8.90659 132.753 6.89877 130.223 7.10124 127.472C8.34981 124.806 8.87286 124.25 8.721 120.926C8.55228 116.741 5.36336 111.95 4.08104 107.968Z" fill="white"/>
<path d="M29.6608 103.125C30.3695 103.21 33.879 109.655 34.0646 112.085C34.2502 114.514 33.2547 119.34 32.9847 121.82C32.7148 124.3 32.3436 128.451 32.3436 128.451L26.6406 130.324C26.6406 130.324 28.2604 127.05 28.5641 122.495C28.8509 117.939 27.2649 107.883 27.2649 107.883L29.6608 103.125Z" fill="#AA83E2"/>
<path d="M12.754 184.721C21.359 190.053 23.6031 189.26 29.6603 187.421C34.0641 186.088 36.1056 182.865 37.0843 179.44C37.4892 165.739 37.3373 146.251 36.5949 141.038C35.1945 131.302 32.9842 129.683 32.9842 129.683L17.2084 131.302L7.91157 125.448C7.91157 125.448 3.06914 131.64 1.83744 137.511C0.605743 143.383 0.0489413 149.896 0.30203 158.855C0.605736 169.316 1.0613 173.653 0.30203 178.832C1.85431 186.088 7.50663 181.481 12.754 184.721Z" fill="#AA83E2"/>
<path d="M26.0842 96.1399C26.0842 96.1399 20.8368 94.8407 18.3396 98.4515C15.8425 102.062 16.6693 108.727 16.7705 114.092C16.8549 119.475 16.6524 130.627 16.6524 130.627L14.1721 129.733C14.1721 129.733 14.712 122.9 14.5939 115.358C14.4758 107.816 14.5939 100.358 16.3487 97.456C18.1034 94.5539 23.587 94.0309 23.587 94.0309L26.0842 96.1399Z" fill="#AA83E2"/>
<path d="M5.63323 103.412C5.26204 98.4852 5.59949 96.4436 6.8818 94.0309C8.61968 90.7745 11.0662 88.9354 12.4498 88.0748C12.5847 87.7711 12.7197 87.4506 12.8716 87.1469C12.1967 86.7925 11.5386 86.2526 11.1843 86.2864C7.79293 86.6238 4.51964 90.5551 3.57478 96.0893C2.83238 100.426 4.13158 107.259 5.63323 112.658C7.40486 118.985 7.92791 120.301 7.92791 124.638C7.92791 125.616 10.83 127.27 10.83 127.27C10.83 127.27 10.172 122.309 8.78841 116.724C7.55671 111.764 5.83571 106.297 5.63323 103.412Z" fill="#AA83E2"/>
<path d="M32.3463 126.781L32.9875 129.683C32.9875 129.683 24.7705 135.267 16.7729 132.922C8.60658 130.543 6.53125 127.405 6.53125 127.405L7.74608 123.676C8.9609 124.908 13.1284 128.771 18.8482 129.666C22.054 130.172 27.9932 128.721 32.3463 126.781Z" fill="#946DD1"/>
<path d="M10.832 155.616C10.832 155.616 11.2538 160.526 12.7555 166.33C14.2572 172.117 15.5395 175.829 15.5395 175.829C15.5395 175.829 15.3033 170.599 14.1728 164.676C13.0592 158.72 10.832 155.616 10.832 155.616Z" fill="#946DD1"/>
<path d="M27.5194 150.807C27.5194 150.807 26.8951 158.299 27.2495 163.934C27.6038 169.569 30.354 177.01 30.354 177.01C30.354 177.01 29.7804 167.292 29.6454 162.129C29.5104 156.966 27.5194 150.807 27.5194 150.807Z" fill="#946DD1"/>
<path d="M33.9646 106.432C35.4325 108.052 37.1704 110.229 37.9972 112.27C38.942 114.615 40.8992 118.142 41.7429 120.15C43.6832 121.061 47.024 122.174 51.1409 124.57C55.3759 127.034 57.0126 128.232 59.1385 128.282C61.3151 128.35 62.7661 128.772 64.2678 129.025C67.2711 129.531 64.7571 130.644 63.8628 130.762C62.8505 130.897 61.1801 131.235 61.1801 131.235C61.1801 131.235 64.6727 135.875 66.2419 138.979C67.8616 142.185 63.2723 145.644 60.4546 142.641C57.6031 139.621 55.3928 135.048 54.5998 133.749C53.8068 132.45 46.1972 130.324 43.8688 129.818C43.1433 129.666 39.6169 128.89 38.8408 128.738C37.626 128.518 37.2548 127.843 36.0231 126.612C34.6058 125.211 34.3189 125.161 31.1131 121.078C28.3798 117.585 26.5913 116.033 25.4777 111.545C24.2798 106.652 32.2942 104.576 33.9646 106.432Z" fill="#FFC9B6"/>
<path d="M27.976 97.456C33.1559 98.4515 37.8296 106.213 37.7284 111.258C39.1288 113.063 31.7049 119.424 29.2752 118.749C25.3608 118.243 21.7669 112.878 20.6533 107.225C19.3373 100.51 22.6949 96.4437 27.976 97.456Z" fill="#EDDCDA"/>
<path d="M37.7263 111.258L38.7893 113.536C38.7893 113.536 39.1943 115.392 36.4609 117.771C33.7275 120.15 30.4543 120.217 30.4543 120.217L29.2732 118.732C29.2732 118.732 32.6646 117.838 34.8749 115.965C37.0683 114.126 37.7263 111.258 37.7263 111.258Z" fill="white"/>
<path d="M30.569 71.5735C30.974 71.0504 31.2777 70.5105 31.3452 69.9706C31.5645 68.3508 28.983 67.9459 27.3801 68.334C25.1023 64.6726 19.2644 63.3565 15.9574 66.7311C12.566 67.2035 10.44 68.8908 9.79888 72.2484C8.44908 79.1324 10.2713 79.7904 12.431 88.1086C15.4343 89.0872 18.2183 86.0839 20.3442 83.5024C21.5759 82.0176 23.1113 79.3686 24.3599 75.9435C28.6624 77.5633 32.2225 76.3991 32.8637 74.29C33.3361 72.704 32.0707 71.8097 30.569 71.5735Z" fill="#2C1D1B"/>
<path d="M23.1314 79.3349C23.1314 79.3349 19.8919 77.1077 19.3688 80.2798C18.8627 83.4349 21.9335 84.5317 21.9335 84.5317L23.1314 79.3349Z" fill="#FFC9B6"/>
<path d="M13.7692 64.2676C12.5206 64.1833 11.272 64.7063 10.5803 65.8031C9.34855 67.7265 10.479 69.5825 10.9346 70.2068C12.5881 72.5015 15.7601 71.9278 17.2618 69.785C18.9997 67.2541 16.3844 64.4364 13.7692 64.2676Z" fill="#AA83E2"/>
<path d="M13.6495 65.0775C11.7092 63.7446 8.53714 62.0742 4.2515 64.3688C-0.0341322 66.6466 -0.0341313 73.4969 0.640772 76.9895C1.31567 80.4822 3.59347 83.2493 4.0659 86.3032C4.74081 90.6901 1.34942 92.2592 1.34942 92.2592C1.34942 92.2592 4.43711 95.1444 7.9466 90.6732C11.4561 86.202 10.41 81.2752 10.2919 76.399C10.1738 71.5228 13.9364 70.1055 14.8306 68.8907C15.7248 67.6759 15.1006 66.073 13.6495 65.0775Z" fill="#3F2A28"/>
<path d="M68.8067 28.9365C68.503 28.4978 68.0643 28.3122 67.575 28.2784C67.9293 27.7891 68.1318 27.2829 67.7606 26.608C67.5075 26.1187 66.9507 25.8825 66.1746 26.1694C66.782 25.2245 66.0734 23.571 64.5717 24.1784C64.3692 23.1492 62.8338 22.4405 62.1758 22.9973C62.277 20.1965 59.6955 20.9051 59.3581 22.1874C58.6832 21.7994 57.519 21.6138 56.8609 22.1874C56.3885 22.6092 56.2366 23.1492 56.2873 23.6891C55.9836 23.6216 55.663 23.6047 55.3424 23.7228C54.5831 23.9928 54.3638 24.6171 54.4144 25.2751C53.8745 25.1907 53.284 25.3426 52.8959 25.7644C52.4066 26.3043 52.3897 27.0973 52.6765 27.7554C52.4234 27.7891 52.1704 27.8904 51.951 28.0928C51.4786 28.4978 51.3774 29.0546 51.4448 29.6114C51.0062 29.4764 50.5506 29.4764 50.1625 29.6451C49.1839 30.0838 49.1164 31.1468 49.2852 32.0916C48.7452 32.0073 48.1716 32.2097 47.7666 32.6653C47.2436 33.2727 47.2098 34.1332 47.4798 34.8587C47.8847 35.3143 48.239 35.9723 48.3909 36.4954C48.779 36.1748 49.302 36.0567 49.8419 36.276C50.4831 36.546 50.7868 37.1028 50.9049 37.7271C51.1749 37.5415 51.4786 37.474 51.8329 37.6764C52.1872 37.8789 52.3391 38.1995 52.3728 38.537C53.1827 38.2839 53.9589 38.4695 54.5663 39.2962C54.8531 39.7012 54.8362 40.2073 54.6506 40.6798C55.2918 40.1567 56.8947 40.4604 56.8272 41.8777C58.5313 41.6753 59.1725 42.5526 59.5268 44.1218C59.5943 44.1218 59.6449 44.1386 59.7124 44.1386C60.1848 44.1049 60.6573 43.8856 60.9947 43.5481C61.4671 43.0588 61.619 42.4683 61.5346 41.8946C62.0071 41.844 62.4626 41.6415 62.7832 41.2534C63.0869 40.8991 63.205 40.4604 63.205 40.0217C63.8462 40.258 64.4705 40.1736 64.6898 39.2456C64.8248 38.7225 64.791 38.1151 64.6223 37.5415C65.6515 37.8452 66.6808 37.8283 66.9676 36.681C67.1363 36.0229 66.8832 35.3143 66.4277 34.7575C67.3219 34.555 68.1656 33.9307 68.503 33.1377C68.7561 32.5641 68.6717 31.9567 68.2499 31.5011C68.4693 31.3324 68.6549 31.1299 68.7898 30.8768C69.161 30.32 69.2285 29.527 68.8067 28.9365Z" fill="#975ECF"/>
<path d="M56.8272 41.9114C56.9116 40.4941 55.2919 40.1904 54.6507 40.7135C54.8363 40.2411 54.8532 39.7349 54.5663 39.3299C53.9589 38.5032 53.1659 38.3176 52.3729 38.5707C52.3223 38.2164 52.1873 37.8958 51.833 37.7102C51.4786 37.5077 51.1749 37.5752 50.905 37.7608C50.7869 37.1365 50.4832 36.5797 49.842 36.3097C49.3021 36.0904 48.779 36.2085 48.391 36.5291C48.256 36.006 47.9017 35.348 47.4799 34.8925C47.4967 34.9262 47.4967 34.9431 47.4967 34.9768C46.9737 34.8924 46.4169 35.0443 46.0288 35.4661C45.472 36.0567 45.4889 36.8665 45.8263 37.5415C45.3202 37.727 44.8983 38.0982 44.7802 38.6719C44.6959 39.0431 44.814 39.5493 45.0839 39.853C44.5271 39.6674 43.9197 39.6674 43.4473 40.123C42.8061 40.7304 43.0424 41.7765 43.3292 42.6707C42.8905 42.502 42.4518 42.4682 42.1819 42.8901C41.9119 43.3119 41.8782 43.8687 41.9963 44.3748C41.9625 44.358 41.9288 44.358 41.895 44.3411C42.2662 44.5436 42.6037 44.7798 42.7555 45.0329C43.1098 44.4086 43.7004 43.953 44.4428 44.4423C44.9996 44.7967 45.2021 45.6234 45.2358 46.4333C45.5226 46.0958 45.8769 45.8596 46.2819 46.0284C46.6193 46.1802 46.7206 46.5008 46.7206 46.872C47.3955 46.5177 48.1547 46.3321 48.779 46.6526C49.9601 47.26 49.0996 48.6942 48.4585 49.5885C49.5046 48.8123 50.8206 49.1666 50.635 50.1621C52.0861 50.314 52.6091 51.4107 52.7778 51.7819C53.0141 51.8156 53.2671 51.7988 53.4865 51.7144C54.2289 51.4782 54.8194 50.7189 54.7182 49.8922C56.1017 49.9428 57.1984 48.7786 56.8272 47.4119C57.8565 47.2938 58.7845 46.7876 59.3244 45.8259C59.6281 45.286 59.7293 44.6448 59.5606 44.1217C59.1725 42.5863 58.5314 41.709 56.8272 41.9114Z" fill="#FED517"/>
</svg>
