<svg width="193" height="232" viewBox="0 0 193 232" fill="none" xmlns="http://www.w3.org/2000/svg">
<path d="M150.992 160.629C152.85 159.042 154.786 156.196 153.547 152.498C152.308 148.8 150.721 138.54 154.051 136.604C157.38 134.668 159.181 129.15 159.181 129.15C159.181 129.15 162.433 128.395 165.725 129.363C169.035 130.312 171.339 134.261 172.636 136.042C173.933 137.823 178.812 141.018 184.523 140.069C189.499 139.237 190.564 141.715 191.841 143.496C193.216 145.432 192.635 147.136 191.415 147.329C190.564 147.465 190.002 147.368 188.105 145.219C186.343 143.205 183.904 144.27 181.116 143.999C181.503 144.29 185.162 145.819 186.885 149.149C188.879 153.002 187.466 156.06 184.949 155.77C183.458 155.596 184.368 152.556 182.858 150.311C181.813 148.762 179.799 148.336 176.915 147.329C175.579 146.864 174.088 146.051 172.675 145.219C173.507 147.387 174.804 150.543 175.25 152.053C176.411 155.906 175.23 160.552 170.952 164.192C166.693 167.831 162.298 169.225 161.465 167.638C160.633 166.05 164.253 164.482 165.221 163.572C167.835 161.113 167.08 158.519 167.08 158.519C167.08 158.519 165.279 162.895 159.51 165.334C158.31 165.837 155.27 166.592 154.38 165.663C153.973 165.237 155.077 163.863 156.064 162.372C154.147 163.437 152.521 164.211 150.721 164.134C148.804 164.056 148.978 162.333 150.992 160.629Z" fill="#778DFD"/>
<path d="M158.773 128.201L161.716 130.505C162.916 131.435 162.452 134.029 160.69 136.275C158.928 138.52 156.527 139.585 155.327 138.656L152.384 136.352L158.773 128.201Z" fill="#3F2A28"/>
<path d="M153.411 130.583C151.65 132.828 151.185 135.423 152.385 136.352C153.586 137.281 155.986 136.236 157.748 133.971C159.51 131.725 159.975 129.131 158.774 128.201C157.574 127.253 155.173 128.318 153.411 130.583Z" fill="#513534"/>
<path d="M39.6174 54.6139C38.6881 54.6139 37.7007 56.4918 37.1586 57.1113C36.6165 57.7308 33.9836 61.3899 33.0543 64.7392C32.125 68.0885 31.9701 70.4891 33.0543 72.8123C34.1578 75.1355 39.7529 77.5168 42.7537 78.4848C45.7545 79.4335 55.3183 81.776 55.3183 81.776L60.8359 77.5168C60.8359 77.5168 56.2089 74.5741 54.331 73.2576C50.1105 70.2955 45.0769 68.2046 45.0769 68.2046L49.1618 64.2358L39.6174 54.6139Z" fill="#FFC9B6"/>
<path d="M66.3519 35.757C60.8343 32.311 53.884 34.1502 47.9405 40.9262C41.997 47.7022 38.3766 55.2332 38.3766 55.2332C38.3766 55.2332 38.3766 58.8536 42.3261 61.7189C45.4818 64.0033 49.1602 64.6035 49.1602 64.6035L63.3317 55.3494C63.3317 55.3494 71.4629 38.9321 66.3519 35.757Z" fill="#FF61AD"/>
<path d="M0.155167 49.251C0.542374 48.3992 1.54907 48.07 2.38156 48.5153L155.79 129.769C156.623 130.215 156.991 131.279 156.604 132.131C156.216 132.983 155.21 133.312 154.377 132.867L0.968323 51.6129C0.135834 51.1676 -0.232025 50.1028 0.155167 49.251Z" fill="#D7E3FF"/>
<path d="M84.6429 196.097C88.1277 197.491 89.1344 198.73 88.1858 200.976C86.7918 204.267 83.2877 206.319 80.1707 206.958C75.4662 207.926 71.9427 214.431 66.9284 209.262C65.6507 207.945 66.7736 204.441 67.2188 202.621C67.122 201.344 69.3872 197.317 69.2129 193.871C74.1691 195.749 74.7305 194.606 76.047 195.477C75.8534 196.678 75.6211 197.859 75.292 199.02C77.1118 198.459 82.3197 195.168 84.6429 196.097Z" fill="#FFB9A4"/>
<path d="M67.2024 202.001C67.2024 202.001 70.1451 203.066 72.023 203.666C73.9203 204.266 78.4505 204.518 81.916 201.149C84.607 198.536 80.464 196.735 80.464 196.735C80.464 196.735 84.1618 192.495 88.5371 194.334C90.5699 195.186 91.7702 199.639 90.628 201.614C89.389 203.724 86.8335 205.989 84.8781 206.473C82.9227 206.976 79.0313 208.274 77.56 209.184C74.8302 210.829 70.2032 213.675 67.0862 210.655C63.9499 207.654 67.2024 202.001 67.2024 202.001Z" fill="#BBCDFF"/>
<path d="M35.5458 195.168C35.4297 195.671 37.0946 203.357 37.8303 205.525C38.4111 207.229 38.5466 208.216 40.1729 208.739C43.5222 208.933 43.6964 209.513 44.4708 211.217C45.1484 212.688 40.3858 215.651 37.1527 215.244C36.2815 215.128 32.3708 215.031 31.1124 212.979C29.2538 209.959 31.2866 207.287 30.1444 203.802C28.8666 199.891 23.7749 200.046 25.3044 195.865C25.769 194.626 27.1436 192.109 27.7437 191.063C28.1503 190.386 28.673 188.159 29.1377 185.236C32.7386 186.92 35.9137 186.591 37.7142 187.288C36.843 189.631 36.3202 191.509 35.5458 195.168Z" fill="#FFC9B6"/>
<path d="M32.1988 211.527C31.7922 208.739 31.7923 202.97 30.4564 200.801C29.3723 199.04 26.7586 196.504 23.9127 195.439C25.81 192.399 27.746 191.063 27.746 191.063C27.746 191.063 32.9151 194.742 33.5347 199.64C34.1542 204.538 34.0961 210.753 37.5615 211.159C41.027 211.566 39.4588 208.449 39.4588 208.449C39.4588 208.449 45.1894 205.68 45.8283 211.237C46.0606 213.173 45.2088 214.741 41.8595 216.289C40.1558 217.083 38.2198 217.509 36.3031 217.393C34.251 216.502 32.6247 214.295 32.1988 211.527Z" fill="#BBCDFF"/>
<path d="M28.5808 204.848C28.1936 202.041 20.8949 200.395 23.7795 195.652C23.8183 195.574 23.8764 195.516 23.9151 195.439C26.761 196.504 29.3746 199.059 30.4588 200.801C31.7946 202.97 31.7946 208.739 32.2012 211.527C32.6077 214.315 34.2533 216.502 36.3055 217.354C34.4469 217.238 32.6271 216.619 31.0976 215.283C28.0194 212.611 28.968 207.655 28.5808 204.848Z" fill="#A6C2FF"/>
<path d="M48.886 85.3576C40.3676 96.3928 28.5967 112.597 41.4324 121.6C39.0318 127.175 36.1665 135.81 40.929 146.884C37.7153 149.13 35.2372 154.415 34.095 158.829C32.0815 166.515 28.4999 185.43 28.6548 188.005C29.9519 187.85 34.095 189.031 36.3214 191.509C39.8643 184.191 44.743 173.097 48.9635 166.186C51.7126 161.675 54.2294 156.719 55.2555 150.853C57.114 149.749 57.4238 146.477 56.8043 145.258C60.2117 140.766 61.5862 134.106 62.3025 128.86C63.0189 123.69 62.2445 120.051 65.5357 115.714C67.4523 113.178 69.4077 111.126 70.5886 108.086C71.3824 106.054 72.5053 102.278 73.0861 98.5612C64.0062 98.6773 53.5131 92.6951 48.886 85.3576Z" fill="#2C1D1B"/>
<path d="M89.1568 148.549C90.5894 141.986 87.9177 131.28 86.911 125.762C85.1686 116.179 82.0323 103.963 77.5795 95.2118C73.8623 100.032 62.9626 102.53 55.4897 100.536C50.5335 111.552 49.643 127.524 63.4273 130.06C62.6916 138.636 67.4542 146.264 74.0559 151.104C69.8935 157.474 68.6739 156.893 67.5123 167.038C67.067 170.89 68.7707 190.366 69.1966 195.458C71.6166 196.252 74.5206 196.523 76.1081 195.497C81.7419 188.159 88.0339 164.869 89.1955 154.124C91.1121 152.072 90.3571 150.039 89.1568 148.549Z" fill="#3F2A28"/>
<path d="M58.4317 40.4811C58.5285 40.0552 58.9157 39.6873 59.3416 39.5712C65.5755 37.8481 67.0081 34.4988 68.0923 28.8457C68.2472 28.0519 69.312 27.6841 69.9509 28.0907C73.2421 30.1235 74.6554 29.2135 78.3725 30.2396C74.8877 40.6553 83.1931 45.2823 85.9422 49.406C86.6392 50.4515 79.4373 55.698 75.5653 55.156C72.2353 54.6913 68.9441 53.6266 66.0789 51.8067C62.9619 49.832 57.5217 44.7596 58.4317 40.4811Z" fill="#FFC9B6"/>
<path d="M89.638 60.1897C90.0058 57.5761 90.7415 54.7108 89.1734 51.8068C87.9924 49.6579 84.8754 47.3153 82.9588 45.9794C78.2156 44.7791 73.1045 48.7866 67.9548 44.5661C64.2957 41.5653 64.5087 37.9838 63.8311 37.4804C58.9717 33.7826 56.2226 36.3575 53.7639 39.9004C50.492 44.6049 50.7243 49.8708 50.8792 55.1948C51.0147 59.2411 51.5568 60.4607 51.5568 67.2755C51.5568 74.187 46.6975 86.3064 43.3095 91.5917C44.7227 95.6573 48.9432 99.9358 54.6157 102.356C59.4944 104.447 75.9698 107.506 80.0354 100.73C79.3191 93.8955 79.3772 89.3266 79.8806 86.0934C80.5194 82.0472 81.8359 80.1499 83.133 78.6205C84.585 76.8974 90.4318 73.7611 91.0319 70.7216C91.7483 67.3142 89.1153 63.8294 89.638 60.1897Z" fill="#FF85C5"/>
<path d="M61.5502 34.8474C61.5502 34.8474 59.924 38.2742 61.5502 41.5848C63.1764 44.8953 66.487 46.812 70.6688 47.2185C74.8312 47.6251 83.6981 46.5602 83.6981 46.5602C83.6981 46.5602 84.1821 44.0822 81.6266 43.0561C79.071 42.03 71.1334 43.5014 67.939 41.5654C64.7446 39.6294 64.8995 37.4417 63.7959 35.5831C62.6731 33.7439 61.5502 34.8474 61.5502 34.8474Z" fill="#EDDCDA"/>
<path d="M65.6335 16.5908C66.2143 11.2281 70.609 4.0842 76.63 4.52948C82.7671 4.99412 88.4202 10.1439 88.8849 14.3837C89.698 21.5857 87.5684 39.1065 76.2234 34.7311C67.3759 31.3625 64.7623 24.5865 65.6335 16.5908Z" fill="#FFC9B6"/>
<path d="M81.0051 93.1017C81.0051 93.1017 85.4385 106.77 90.3559 119.857C93.7052 128.782 97.0739 145.393 96.9384 158.364C96.8803 163.592 91.382 169.787 84.5673 170.077C75.6617 170.464 72.4866 170.097 66.3495 166.147C60.2124 162.198 52.2167 166.902 45.8666 165.353C36.3027 163.03 29.701 158.364 29.701 158.364C29.701 158.364 36.3027 141.754 36.3027 129.673C36.3027 121.019 32.876 117.069 34.5991 107.525C36.3221 97.9998 46.1376 87.2162 46.1376 87.2162C46.1376 87.2162 52.0618 96.0832 64.4329 96.0832C68.3242 96.0832 73.4353 97.4578 75.9908 94.1085C78.0623 87.9326 80.9857 80.0143 85.9999 74.5161C90.4721 69.5986 89.4654 57.092 89.4654 57.092C89.4654 57.092 92.9115 65.1459 93.047 69.5987C93.1825 74.0515 86.9099 77.9235 85.9999 81.0792C83.7154 89.0168 81.0051 93.1017 81.0051 93.1017Z" fill="#BBCDFF"/>
<path d="M82.0707 91.2237L81.7028 95.2119C81.7028 95.2119 78.4117 98.2127 67.2409 98.2514C52.4886 98.2901 45.093 88.1068 45.093 88.1068L46.8742 85.3576C46.8742 85.3576 59.826 95.5023 72.836 94.3407C76.979 93.9535 82.0707 91.2237 82.0707 91.2237Z" fill="#A6C2FF"/>
<path d="M57.7931 127.349C57.7931 127.349 64.6466 133.661 67.2409 144.406C69.8545 155.15 69.0413 158.442 69.0413 158.442C69.0413 158.442 65.8663 151.182 63.3301 144.406C60.794 137.63 57.7931 127.349 57.7931 127.349Z" fill="#A6C2FF"/>
<path d="M79.6097 123.439C79.6097 123.439 81.778 128.879 84.3141 134.552C86.2308 138.811 87.8183 145.684 87.8183 145.684C87.8183 145.684 83.0751 140.224 81.3714 134.222C79.6677 128.221 79.6097 123.439 79.6097 123.439Z" fill="#A6C2FF"/>
<path d="M83.6962 46.5602C83.6962 46.5602 75.6618 47.2378 73.7452 58.699C71.8285 70.1601 70.8218 83.4798 69.1762 89.7912C67.5306 96.1026 65.7301 97.4384 65.7301 97.4384H61.9743C61.9743 97.4384 65.8269 87.9713 67.4725 77.6912C69.1181 67.411 68.6728 55.1754 72.8352 49.4061C76.9977 43.6368 82.0893 45.0308 82.0893 45.0308L83.6962 46.5602Z" fill="#A6C2FF"/>
<path d="M63.5797 36.4348C63.5797 36.4348 58.3137 38.487 57.6361 43.6949C56.9585 48.8834 55.5065 63.9067 54.5772 71.6895C53.919 77.1296 51.499 84.9318 50.2793 86.8484C49.0596 88.765 46.175 86.9065 47.5495 85.377C48.9241 83.8476 52.7961 74.0127 53.0091 63.2291C53.1639 55.0205 53.9383 47.4313 55.2161 42.2429C56.0486 38.7968 57.1134 37.2673 58.3524 36.4735C61.45 34.4407 63.5797 36.4348 63.5797 36.4348Z" fill="#A6C2FF"/>
<path d="M98.4682 73.2574C98.4682 73.2574 98.5844 76.0259 98.5844 79.3171C101.585 85.3574 103.947 92.7529 104.663 95.6956C106.057 101.562 106.019 103.653 104.47 105.898C103.25 107.66 100.946 109.054 98.9909 108.396C96.9388 107.699 94.209 103.537 94.0735 101.426C93.938 99.3935 97.0549 98.5222 95.8353 95.2116C94.6156 91.9011 89.5626 87.6419 86.0004 80.1883C85.7293 70.2179 98.4682 73.2574 98.4682 73.2574Z" fill="#FFC9B6"/>
<path d="M86.5629 48.7865C86.5629 48.7865 92.429 48.4961 95.4104 57.6921C97.7917 65.0295 98.5854 74.516 98.5854 74.516C98.5854 74.516 95.4298 81.6792 86.0014 80.1885C81.9552 75.7938 79.6126 73.9933 76.8054 64.6424C74.366 56.4918 81.2776 49.0382 86.5629 48.7865Z" fill="#FF61AD"/>
<path d="M98.4693 73.2576L98.5854 76.3165C98.5854 76.3165 98.2951 78.3493 94.6167 80.4014C90.9383 82.4536 86.7371 81.6211 86.7371 81.6211L85.3432 79.4528C85.3432 79.4528 88.9054 79.5496 93.0679 77.5168C97.2109 75.484 98.4693 73.2576 98.4693 73.2576Z" fill="#F4EBEA"/>
<path d="M49.1566 64.5843L47.1625 66.2105C47.1625 66.2105 44.0455 66.8687 40.5026 63.5775C37.1533 60.4799 37.1533 57.1307 37.1533 57.1307L38.6828 54.6332C38.6828 54.6332 40.2316 58.5827 43.1356 61.1769C46.0202 63.7518 49.1566 64.5843 49.1566 64.5843Z" fill="#F4EBEA"/>
<path d="M61.723 8.42078C63.3879 5.03277 66.6598 2.96121 69.9703 3.36778C72.2742 0.870331 76.2623 -1.16247 81.5283 1.48985C86.7168 4.12281 89.04 7.12366 94.8867 10.0664C92.6216 15.3517 84.4129 22.3406 79.9795 20.9467C79.8827 22.8246 78.8373 24.1992 77.9467 26.1739C74.791 33.1435 69.4476 34.8666 67.2212 35.6604C67.0276 29.0973 61.1422 22.5536 60.4452 17.7329C60.0193 14.616 60.329 11.2861 61.723 8.42078Z" fill="#3F2A28"/>
<path d="M81.7032 22.8052C81.7032 22.8052 78.9735 18.3331 76.2825 21.4694C73.5914 24.6251 78.5476 28.9811 78.5476 28.9811L81.7032 22.8052Z" fill="#FFC9B6"/>
<path d="M148.164 194.897C147.661 195.381 147.08 195.748 146.461 196.078C145.706 190.037 143.537 183.397 140.014 177.298L136.026 170.406C136.51 169.845 137.206 169.612 137.942 169.69L141.756 176.292C145.222 182.313 147.409 188.74 148.319 194.703C148.261 194.761 148.222 194.839 148.164 194.897Z" fill="#3F2A28"/>
<path d="M146.639 182.39L144.8 210.753L144.122 221.13C140.289 225.156 132.467 227.925 123.407 227.925C114.346 227.925 106.506 225.156 102.692 221.13L102.033 210.772L100.214 182.39H146.639Z" fill="#F445A1"/>
<path d="M123.427 170.038C136.243 170.038 146.639 175.575 146.639 182.39C146.639 189.205 136.243 194.742 123.427 194.742C110.61 194.742 100.214 189.205 100.214 182.39C100.214 175.556 110.61 170.038 123.427 170.038Z" fill="#FF76BE"/>
<path d="M123.424 179.757C114.266 179.757 106.426 182.622 103.134 186.669C102.05 185.352 101.45 183.9 101.45 182.371C101.45 176.176 111.285 171.161 123.424 171.161C135.562 171.161 145.397 176.176 145.397 182.371C145.397 183.9 144.797 185.333 143.713 186.669C140.402 182.622 132.581 179.757 123.424 179.757Z" fill="#FF61AD"/>
<path d="M123.424 193.6C114.267 193.6 106.426 190.734 103.135 186.688C106.446 182.622 114.286 179.777 123.424 179.777C132.582 179.777 140.422 182.642 143.714 186.688C140.403 190.734 132.582 193.6 123.424 193.6Z" fill="#BBCDFF"/>
<path d="M114.135 177.124C113.675 177.124 113.303 176.752 113.303 176.292C113.303 175.832 113.675 175.459 114.135 175.459C114.595 175.459 114.968 175.832 114.968 176.292C114.968 176.752 114.595 177.124 114.135 177.124Z" fill="white"/>
<path d="M117.058 189.553C116.598 189.553 116.225 189.181 116.225 188.721C116.225 188.261 116.598 187.888 117.058 187.888C117.517 187.888 117.89 188.261 117.89 188.721C117.89 189.181 117.517 189.553 117.058 189.553Z" fill="white"/>
<path d="M127.143 180.919C127.414 180.415 128.169 179.486 128.866 179.37C128.692 178.17 129.098 176.95 130.357 176.33C131.75 175.634 134.209 176.485 134.461 177.995C134.945 177.569 135.642 177.434 136.319 177.744C137.268 178.208 137.442 179.041 137.249 179.873C138.468 179.564 139.94 180.028 140.482 181.229C140.85 182.022 140.521 183.377 139.746 183.861C140.269 184.655 140.056 185.894 139.03 186.514C138.159 187.037 137.113 186.94 136.319 186.456C135.719 187.037 134.887 187.385 133.938 187.25C133.048 187.133 132.215 186.591 131.789 185.778C130.337 186.165 128.672 185.43 127.607 184.462C126.446 183.416 126.407 182.274 127.143 180.919Z" fill="white"/>
<path d="M104.767 181.577C105.173 181.403 105.773 181.287 106.315 181.345C106.296 180.357 106.799 179.447 107.922 178.983C108.542 178.731 109.277 178.808 109.819 179.157C110.091 178.479 110.865 177.995 111.601 177.995C112.278 177.976 112.646 178.576 112.743 179.215C113.556 178.576 114.872 178.189 115.647 178.324C116.596 178.499 117.409 179.06 117.699 179.873C118.551 179.157 120.196 179.234 120.835 180.144C121.745 181.48 120.119 182.255 118.88 182.7C119.112 182.913 119.306 183.184 119.403 183.513C119.674 184.5 118.938 185.294 118.067 185.623C117.08 185.991 115.957 185.875 115.047 185.371C114.931 186.494 114.234 187.23 112.704 187.191C112.162 187.172 111.504 186.94 110.981 186.572C110.555 187.811 109.49 188.721 107.942 188.721C107.206 188.721 106.102 188.43 105.618 187.811C105.328 187.443 105.173 186.901 105.096 186.359C104.786 186.301 104.495 186.185 104.244 186.049C103.469 185.565 103.024 184.636 103.16 183.726C103.276 182.777 103.934 181.945 104.767 181.577Z" fill="white"/>
<path d="M125.982 177.511C125.309 177.511 124.763 176.965 124.763 176.292C124.763 175.618 125.309 175.072 125.982 175.072C126.656 175.072 127.202 175.618 127.202 176.292C127.202 176.965 126.656 177.511 125.982 177.511Z" fill="white"/>
<path d="M141.471 180.144C140.797 180.144 140.251 179.598 140.251 178.925C140.251 178.251 140.797 177.705 141.471 177.705C142.144 177.705 142.69 178.251 142.69 178.925C142.69 179.598 142.144 180.144 141.471 180.144Z" fill="white"/>
<path d="M120.099 187.443C120.099 188.624 121.067 189.592 122.248 189.592C123.429 189.592 124.397 188.624 124.397 187.443C124.397 186.262 123.429 185.294 122.248 185.294C121.067 185.294 120.099 186.243 120.099 187.443Z" fill="white"/>
<path d="M125.384 189.302C125.384 190.115 126.042 190.754 126.836 190.754C127.649 190.754 128.288 190.095 128.288 189.302C128.288 188.488 127.63 187.85 126.836 187.85C126.042 187.85 125.384 188.508 125.384 189.302Z" fill="white"/>
<path d="M118.568 175.827C118.568 176.524 119.13 177.085 119.827 177.085C120.524 177.085 121.085 176.524 121.085 175.827C121.085 175.13 120.524 174.569 119.827 174.569C119.13 174.588 118.568 175.149 118.568 175.827Z" fill="white"/>
<path d="M139.42 177.492C138.96 177.492 138.588 177.119 138.588 176.659C138.588 176.2 138.96 175.827 139.42 175.827C139.88 175.827 140.253 176.2 140.253 176.659C140.253 177.119 139.88 177.492 139.42 177.492Z" fill="white"/>
<path d="M120.58 173.755C120.58 174.22 120.948 174.588 121.412 174.588C121.877 174.588 122.245 174.22 122.245 173.755C122.245 173.291 121.877 172.923 121.412 172.923C120.967 172.923 120.58 173.291 120.58 173.755Z" fill="white"/>
<path d="M133.63 190.424C133.171 190.424 132.798 190.052 132.798 189.592C132.798 189.132 133.171 188.759 133.63 188.759C134.09 188.759 134.463 189.132 134.463 189.592C134.463 190.052 134.09 190.424 133.63 190.424Z" fill="white"/>
<path d="M123.401 209.552C134.862 209.552 144.155 214.489 144.155 220.587C144.155 226.686 134.862 231.623 123.401 231.623C111.94 231.623 102.647 226.686 102.647 220.587C102.647 214.489 111.94 209.552 123.401 209.552Z" fill="#F445A1"/>
<path d="M108.264 186.456C108.264 187.637 109.232 188.605 110.413 188.605C111.594 188.605 112.562 187.637 112.562 186.456C112.562 185.275 111.594 184.307 110.413 184.307C109.232 184.307 108.264 185.275 108.264 186.456Z" fill="#3F2A28"/>
<path d="M105.494 183.203L106.249 182.661C106.307 182.622 106.346 182.584 106.404 182.545L106.5 182.487L106.52 182.506C107.004 182.254 107.604 182.274 108.282 182.661C109.811 183.552 111.05 185.933 111.05 187.966V191.993L110.101 192.535C109.482 191.973 105.494 190.405 105.494 188.372V184.752C105.494 184.365 105.552 184.016 105.649 183.707L105.494 183.203ZM108.224 188.818C108.456 188.953 108.669 189.011 108.882 189.011C108.94 188.798 108.998 188.566 108.998 188.275C108.998 186.901 108.165 185.313 107.139 184.713C106.907 184.578 106.694 184.52 106.481 184.52C106.423 184.733 106.365 184.965 106.365 185.255C106.365 186.63 107.197 188.237 108.224 188.818Z" fill="#FF61AD"/>
<path d="M107.317 183.339C108.846 184.229 110.085 186.61 110.085 188.643V192.535L104.529 190.231V185.449C104.548 183.397 105.787 182.467 107.317 183.339ZM108.227 188.817C108.459 188.953 108.672 189.011 108.885 189.011C108.943 188.798 109.001 188.566 109.001 188.275C109.001 186.901 108.169 185.313 107.143 184.713C106.91 184.578 106.697 184.52 106.484 184.52C106.426 184.732 106.368 184.965 106.368 185.255C106.368 186.63 107.201 188.237 108.227 188.817Z" fill="#F445A1"/>
<path d="M106.484 184.539C106.426 184.752 106.368 184.984 106.368 185.275C106.368 186.649 107.201 188.237 108.227 188.837C108.459 188.973 108.672 189.031 108.885 189.031C108.633 189.863 107.956 190.192 107.143 189.708C106.117 189.108 105.284 187.521 105.284 186.146C105.265 185.081 105.788 184.481 106.484 184.539Z" fill="#FF61AD"/>
<path d="M135.545 165.818L136.3 165.276C136.358 165.237 136.396 165.198 136.454 165.16L136.551 165.102L136.571 165.121C137.055 164.869 137.655 164.889 138.332 165.276C139.862 166.166 141.101 168.548 141.101 170.58V174.607L140.152 175.149C139.533 174.588 135.545 173.02 135.545 170.987V167.367C135.545 166.979 135.603 166.631 135.699 166.321L135.545 165.818ZM138.294 171.432C138.526 171.568 138.739 171.626 138.952 171.626C139.01 171.413 139.068 171.181 139.068 170.89C139.068 169.516 138.236 167.928 137.209 167.328C136.977 167.192 136.764 167.134 136.551 167.134C136.493 167.347 136.435 167.58 136.435 167.87C136.416 169.245 137.248 170.832 138.294 171.432Z" fill="#F445A1"/>
<path d="M137.383 165.934C138.913 166.825 140.152 169.206 140.152 171.239V175.13L134.595 172.729V168.025C134.595 166.012 135.854 165.063 137.383 165.934ZM138.293 171.432C138.525 171.568 138.738 171.626 138.951 171.626C139.009 171.413 139.067 171.181 139.067 170.89C139.067 169.516 138.235 167.928 137.209 167.328C136.977 167.193 136.764 167.134 136.551 167.134C136.493 167.347 136.434 167.58 136.434 167.87C136.415 169.245 137.248 170.832 138.293 171.432Z" fill="#FF61AD"/>
<path d="M136.532 167.134C136.474 167.347 136.416 167.58 136.416 167.87C136.416 169.245 137.249 170.832 138.275 171.432C138.507 171.568 138.72 171.626 138.933 171.626C138.681 172.458 138.004 172.788 137.19 172.304C136.164 171.703 135.332 170.116 135.332 168.741C135.332 167.677 135.835 167.076 136.532 167.134Z" fill="#F445A1"/>
<path d="M115.39 199.117C120.675 208.274 128.032 214.644 134.575 215.747C137.596 216.251 140.19 215.612 142.261 213.811C146.579 210.056 147.74 201.944 145.959 192.941C146.114 190.425 146.211 189.031 146.404 186.669C150.315 198.594 149.483 210.23 143.578 215.322C141.603 217.045 139.164 217.916 136.473 217.916C135.737 217.916 135.001 217.858 134.246 217.722C127.122 216.522 119.242 209.785 113.647 200.105L107.084 188.74C106.484 187.482 106.794 186.669 108.304 185.952C108.865 186.765 108.981 188.005 108.981 188.005L115.39 199.117Z" fill="#3F2A28"/>
<path d="M134.46 171.181C134.46 172.362 135.428 173.33 136.609 173.33C137.79 173.33 138.758 172.362 138.758 171.181C138.758 170 137.79 169.032 136.609 169.032C135.428 169.032 134.46 170 134.46 171.181Z" fill="#3F2A28"/>
</svg>
