<svg width="220" height="205" viewBox="0 0 220 205" fill="none" xmlns="http://www.w3.org/2000/svg">
<path d="M80.1133 30.2451C80.1133 30.2451 70.7008 27.1242 72.8979 44.601C74.321 56.0109 77.8164 63.7008 77.8164 63.7008C77.8164 63.7008 72.074 65.3236 68.9781 74.5614C67.4801 79.0304 63.9597 81.5771 63.9597 81.5771L65.9571 87.3444C65.9571 87.3444 81.112 76.0844 82.3354 68.6692C83.5588 61.254 87.2039 32.1176 80.1133 30.2451Z" fill="#FFCCB3"/>
<path d="M67.9066 75.4601C67.9066 75.4601 69.829 74.5862 72.3008 76.6585C74.7975 78.7307 72.875 82.0264 72.875 82.0264L65.8593 87.9435C65.8593 87.9435 59.1182 91.2641 58.2194 90.9895C57.2956 90.7149 54.3745 85.4219 54.3745 85.4219C54.3745 85.4219 57.3955 79.2051 58.6938 78.4561C60.017 77.7071 64.4612 77.5823 64.4612 77.5823L64.7608 80.3536L67.9066 75.4601Z" fill="#FFAE30"/>
<path d="M71.2507 54.3636C71.2507 54.3636 69.6528 33.8657 73.4478 31.6936C77.2427 29.4965 81.2874 27.5241 81.2874 27.5241L80.9878 60.8051L71.2507 54.3636Z" fill="#FF85C5"/>
<path d="M109.176 144.594C109.176 144.594 113.72 148.264 115.243 151.735C116.766 155.205 123.257 180.172 121.534 184.142C119.812 188.111 113.52 197 113.52 199.596C113.52 202.193 112.771 202.417 118.339 201.319C123.906 200.245 124.131 200.021 125.005 197.624C125.879 195.252 128.9 187.537 128.9 187.537L129.324 180.896C129.324 180.896 127.801 178.774 127.801 176.826C127.801 174.879 128.675 157.552 127.377 153.432C126.078 149.313 120.236 142.597 120.236 142.597C120.236 142.597 119.587 97.4315 117.215 94.036C114.843 90.6155 109.875 82.8009 109.875 82.8009L97.8908 86.1215C97.8908 86.1215 93.3717 98.6549 95.6188 104.922C97.8408 111.238 107.228 142.647 109.176 144.594Z" fill="#FCDEB3"/>
<path d="M86.0594 172.057C86.0594 172.057 84.087 173.38 85.5851 174.878C87.108 176.401 94.2985 174.454 97.6191 173.205C100.915 171.957 100.166 168.811 100.166 168.811C100.166 168.811 101.189 171.782 101.189 173.68C101.189 175.602 101.065 176.601 99.7163 177.375C98.3931 178.149 93.4746 176.826 92.2013 177.375C90.928 177.924 86.0594 181.419 82.4891 180.895C78.9189 180.371 74.6995 177.999 74.6995 177.999C74.6995 177.999 72.5273 176.401 82.1396 172.631C84.2119 171.832 86.0594 172.057 86.0594 172.057Z" fill="#3F2A28"/>
<path d="M87.3097 75.2853C87.3097 75.2853 81.8919 76.8832 80.8183 86.82C79.7447 96.7319 83.8393 113.21 87.3097 119.926C90.7801 126.642 88.8327 129.164 90.3307 130.687C91.8537 132.21 91.8537 132.06 91.8537 139.65C91.8537 147.24 91.8537 167.813 91.8537 167.813L83.6146 171.608C83.6146 171.608 81.842 170.509 80.1442 172.207C78.4465 173.905 76.0247 174.129 76.0247 176.177C76.0247 178.224 82.7408 177.775 83.9392 177.775C85.1376 177.775 88.3833 174.803 93.3517 174.803C98.3201 174.803 99.7183 176.302 100.542 173.68C101.366 171.058 99.2938 168.687 100.542 163.693C101.791 158.7 107.208 145.068 105.486 140.948C103.763 136.829 101.94 130.362 101.94 126.567C101.94 122.747 103.214 115.832 102.29 109.315C101.391 102.774 98.7945 73.3129 87.3097 75.2853Z" fill="#FCDEB3"/>
<path d="M108.483 124.82C105.287 112.386 103.215 109.74 103.14 100.727C103.065 91.7386 93.0783 72.8886 85.1389 78.9556L83.7657 78.1566C83.7657 78.1566 78.3479 86.1211 79.721 95.6834C81.0942 105.246 86.5869 124.645 87.9352 129.539C89.0587 133.658 90.8813 139.825 91.5803 145.418L90.8563 167.214C90.8563 167.214 91.3556 169.436 95.7498 169.161C100.144 168.886 104.338 166.714 104.338 166.714C104.338 166.714 111.679 137.253 108.483 124.82Z" fill="#3F2A28"/>
<path d="M86.0567 170.459C86.0567 170.459 84.0843 171.783 85.5824 173.281C87.1053 174.804 94.2958 172.856 97.6164 171.608C100.912 170.359 100.163 167.214 100.163 167.214C100.163 167.214 101.187 170.185 101.187 172.082C101.187 173.98 101.062 175.003 99.7136 175.752C98.3904 176.526 93.4719 175.203 92.1986 175.752C90.9253 176.302 86.0567 179.797 82.4865 179.273C78.9162 178.748 74.6968 176.376 74.6968 176.376C74.6968 176.376 79.9398 171.009 82.1369 171.009C84.359 171.034 86.0567 170.459 86.0567 170.459Z" fill="#3F2A28"/>
<path d="M116.12 193.829C116.12 193.829 115.771 194.927 118.742 195.901C121.713 196.899 124.959 193.804 126.407 191.382C127.88 188.935 129.053 180.946 129.053 180.946C129.053 180.946 129.403 181.47 129.852 182.918C130.301 184.366 129.852 186.663 129.852 186.663C129.852 186.663 129.528 196.275 126.581 200.17C123.66 204.065 114.522 204.539 114.522 204.539C114.522 204.539 111.926 203.066 113.224 199.496C114.547 195.926 116.12 193.829 116.12 193.829Z" fill="#3F2A28"/>
<path d="M118.215 190.158C118.215 190.158 115.244 193.503 118.215 194.477C121.187 195.476 124.432 192.38 125.88 189.933C127.353 187.486 128.527 179.497 128.527 179.497C128.527 179.497 128.876 180.021 129.326 181.469C129.775 182.942 129.326 185.214 129.326 185.214C129.326 185.214 129.001 194.826 126.055 198.721C123.134 202.616 113.996 203.091 113.996 203.091C113.996 203.091 111.399 201.617 112.698 198.047C114.021 194.502 118.215 190.158 118.215 190.158Z" fill="#3F2A28"/>
<path d="M128.078 154.605C128.128 149.562 122.336 144.244 122.336 144.244C122.336 144.244 122.336 103.498 119.14 93.0616C115.944 82.6254 102.912 76.6833 94.5478 81.5019C86.1838 86.3205 105.808 142.396 105.808 142.396C105.808 142.396 118.891 165.416 119.864 171.258C120.838 177.1 120.838 180.845 120.838 180.845C120.838 180.845 119.764 183.816 124.908 182.443C130.051 181.07 132.897 176.576 132.897 176.576C132.897 176.576 129.551 162.595 128.078 154.605Z" fill="#3F2A28"/>
<path d="M74.4972 40.5315C74.4972 40.5315 71.7258 29.9205 81.3131 27.4987C90.8755 25.0769 107.279 37.86 112.247 42.8284C117.216 47.7968 113.321 57.3841 111.099 67.296C108.877 77.2079 112.122 71.9149 115.243 81.4772C118.364 91.0396 119.163 93.0619 119.163 93.0619C119.163 93.0619 113.321 101.426 104.557 101.426C95.794 101.426 79.0661 95.3339 79.0661 95.3339C79.0661 95.3339 79.3907 82.8504 79.8151 73.3879C80.4143 60.3802 74.4972 40.5315 74.4972 40.5315Z" fill="#FF61AD"/>
<path d="M81.361 42.5791L97.5146 51.9167C97.5146 51.9167 98.5383 63.9009 101.659 69.2937C104.78 74.6866 113.144 76.9336 113.144 76.9336L115.865 122.099C115.865 122.099 106.253 127.292 92.4713 122.099C82.4845 118.329 80.4123 112.112 80.4123 112.112L76.7671 60.1309C76.7671 60.1309 77.8407 60.1309 80.0128 56.0862C81.1613 54.014 81.361 42.5791 81.361 42.5791Z" fill="#BBCDFF"/>
<path d="M80.0405 56.0858C80.0405 56.0858 76.3953 39.0833 77.7435 34.4644C79.0918 29.8705 82.4623 27.1491 82.4623 27.1491L85.2586 28.772C85.2586 28.772 80.3401 31.6432 81.1141 37.3106C81.888 42.9781 83.3112 51.8664 83.3112 51.8664L80.0405 56.0858Z" fill="#BBCDFF"/>
<path d="M85.8371 33.5407C85.8371 33.5407 86.1367 35.2634 85.8371 37.3607C85.5375 39.4579 85.8871 40.6313 86.2366 41.63C87.5848 45.3251 96.6978 37.1609 100.368 34.864C102.415 33.5907 96.2484 32.9914 96.7976 29.1965C97.3469 25.4015 95.5243 22.5553 95.5243 22.5553L85.8371 33.5407Z" fill="#FFB28D"/>
<path d="M89.5308 3.30623C89.0315 3.38113 80.5177 5.40346 78.1958 10.5217C75.8989 15.6399 77.8962 18.4861 77.8463 19.9342C77.7963 21.4073 76.8726 21.0328 76.7727 23.3047C76.6978 25.5767 78.2208 26.9499 78.1708 28.1733C78.1209 29.3717 79.8686 30.3454 79.7937 32.6673C79.7188 34.9893 82.4152 35.1141 85.0867 34.7396C88.8567 34.2153 98.9683 26.9499 100.691 21.632C102.514 16.0643 104.411 1.08417 89.5308 3.30623Z" fill="#FFCCB3"/>
<path d="M80.9944 6.5266C80.9944 6.5266 83.2913 17.2124 86.0377 20.1336C88.7591 23.0797 96.8983 27.0994 96.8983 27.0994C96.8983 27.0994 95.9995 30.4699 96.6237 31.3188C97.8471 33.0165 104.563 36.412 104.563 36.412C104.563 36.412 104.688 30.3201 103.215 28.7472C101.742 27.1493 100.044 24.5777 100.044 24.5777C100.044 24.5777 110.755 10.8209 99.2702 3.10613C86.5121 -5.50746 80.9944 6.5266 80.9944 6.5266Z" fill="#4C262A"/>
<path d="M93.3207 22.2803C93.3707 22.2304 94.9186 20.5826 95.5927 21.4814C96.2918 22.3802 96.4916 23.7534 95.6676 25.2514C94.8437 26.7494 93.3957 28.4471 92.3221 28.0726C91.2485 27.6981 90.874 27.7481 90.5494 26.6995C90.2498 25.6758 90.9239 24.8269 90.9239 24.8269L93.3207 22.2803Z" fill="#FF884D"/>
<path d="M92.8463 22.3076C92.8962 22.2576 94.4441 20.6098 95.1182 21.5086C95.8173 22.4074 96.0171 23.7806 95.1931 25.2786C94.3692 26.7766 92.9212 28.4744 91.8476 28.0999C90.774 27.7254 90.3995 27.7753 90.0749 26.7267C89.7504 25.7031 90.4245 24.8292 90.4245 24.8292L92.8463 22.3076Z" fill="#FFCCB3"/>
<path d="M93.5421 23.0544C93.5421 23.0544 93.5671 24.1279 93.5671 24.5773C93.5671 25.0267 93.4672 25.7508 93.1426 26.0254C92.8181 26.2751 92.5434 26.4249 92.5434 26.4249C92.5434 26.4249 93.1426 24.7771 93.2175 24.103C93.2924 23.4289 93.4173 22.8546 93.8417 22.4801C94.2661 22.1056 94.6906 21.5813 94.9403 22.2804C95.1899 22.9795 95.3397 23.7035 94.9153 24.6772C94.4908 25.6509 93.8167 26.5997 93.1926 26.8993C92.5684 27.1989 91.8943 27.2238 91.8943 27.2238C91.8943 27.2238 93.2924 27.099 93.9166 26.0504C94.5408 24.9768 95.2149 23.2541 94.9652 22.8297C94.7156 22.4052 94.6906 22.3303 94.5158 22.7548C94.3411 23.1792 94.366 23.9032 94.1163 23.5787C93.8667 23.2541 94.0414 22.6549 93.7668 22.8297C93.4922 22.9795 93.5421 23.0544 93.5421 23.0544Z" fill="#FF884D"/>
<path d="M92.6434 24.9018C92.6434 24.9018 92.7932 23.9031 92.5934 23.8781C92.3937 23.8532 92.3438 23.8282 92.1191 24.1028C91.8944 24.3775 91.8195 24.5023 91.5698 24.3026C91.2952 24.1278 91.1953 23.8032 91.2952 24.3026C91.395 24.8019 91.6197 24.3775 91.9693 24.8269C92.2938 25.2513 92.0192 25.6258 92.2938 25.7506C92.5685 25.8755 92.6184 25.1764 92.5934 24.9517L92.6434 24.9018Z" fill="#FF884D"/>
<path d="M77.399 16.0141C77.399 16.0141 75.152 12.1942 76.4503 8.89855C77.7735 5.62789 81.0941 5.82762 81.0941 5.82762C81.0941 5.82762 83.3162 6.92617 81.8681 8.99842C80.42 11.0707 77.374 13.4925 77.399 16.0141Z" fill="#4C262A"/>
<path d="M78.0444 68.3199C78.0444 68.3199 79.118 75.4105 81.0904 77.3829C83.0628 79.3552 85.5595 75.3106 86.9077 73.9873C88.2309 72.6641 89.4793 69.718 87.407 67.5209C85.3098 65.3238 78.0444 68.3199 78.0444 68.3199Z" fill="#FF5A2E"/>
<path d="M109.279 45.2503C109.279 45.2503 104.66 44.3016 101.913 50.4434C99.1671 56.5853 100.49 63.3014 100.141 65.9729C99.6415 70.0175 98.4431 75.9347 98.4431 75.9347C98.4431 75.9347 92.8505 72.8637 87.8072 70.5168C83.7375 68.6194 76.7468 58.4828 76.7468 58.4828L73.4512 63.4262C73.4512 63.4262 84.0122 76.459 90.5036 80.9031C94.2486 83.4497 98.468 86.9451 99.6415 85.9963C100.815 85.0476 110.252 69.7678 111.226 65.074C112.2 60.4052 117.743 46.6734 109.279 45.2503Z" fill="#FFCCB3"/>
<path d="M46.9378 196.025C45.6645 195.6 44.4162 195.6 43.5673 194.751C43.9917 195.6 44.8156 196.424 45.6645 196.848C44.4162 196.848 43.5673 196 42.7184 195.6C42.294 195.6 41.8695 195.6 42.294 196.025C43.1429 196.449 43.5423 197.273 44.3912 197.697C43.1429 197.697 42.294 196.449 41.0207 196.449C41.8695 196.873 41.8695 198.122 42.6935 198.546C41.8446 198.122 41.0207 196.873 39.7474 196.873C40.1718 197.298 40.1718 198.122 40.1718 198.971C39.3229 198.122 39.7474 196.873 38.9234 196.449C38.9234 197.298 38.499 198.122 37.6501 198.971C37.2257 198.122 38.0746 197.298 38.0746 196.449C37.2257 197.298 36.4018 197.697 35.5529 198.546C35.5529 197.697 35.9774 196.873 36.8013 196.025C35.5529 196.025 35.1285 197.697 33.8552 197.697C33.8552 196.849 35.1285 196.449 35.1285 195.6C34.2796 196.025 33.4557 196.848 32.1824 196.848C32.6068 196.424 33.4307 195.6 33.8552 195.176C32.6068 195.176 31.7579 196.449 30.4846 196.449C30.9091 195.6 32.5819 195.6 32.5819 194.352C31.3085 194.352 30.4846 195.201 29.6358 195.625C30.0602 194.776 30.8841 194.352 31.3085 193.528C30.4597 194.776 28.7869 194.377 27.938 195.201C28.3624 193.952 29.6108 193.952 30.0352 193.103C28.7869 193.103 27.938 193.952 27.0891 194.352C26.6647 194.352 26.6647 194.352 26.6647 193.927C27.0891 193.078 28.3375 193.503 28.7619 192.255C27.5136 192.255 26.6647 193.528 25.3914 193.528C25.8158 192.679 27.0642 192.679 27.4886 191.431C26.2153 191.855 25.3914 192.28 24.1181 192.679C24.5425 192.679 24.9669 192.255 24.9669 192.255C25.3914 191.83 25.3914 191.406 26.2402 190.981C24.9669 191.406 24.143 191.83 22.8697 192.255C23.2942 190.981 24.5425 190.981 24.9669 190.157C23.7186 190.157 22.8697 191.006 22.0208 191.431C21.5964 191.431 21.5964 191.431 21.5964 191.006C22.0208 190.157 23.2692 190.582 23.6936 189.333C22.4203 189.333 21.5964 190.182 20.7475 190.607C20.3231 190.607 20.3231 190.607 20.3231 190.182C20.7475 189.333 21.9959 189.758 22.4203 188.51C21.172 188.934 20.3231 189.358 19.0498 189.758C19.4742 188.909 20.7226 188.909 21.147 188.085C19.8986 187.661 19.0498 188.934 17.7765 188.934C19.0498 188.934 19.0498 187.261 20.2981 187.261C19.0248 187.686 17.7765 187.686 16.5031 188.535C17.352 187.686 18.1759 187.261 19.0248 186.437C17.7515 186.437 16.5031 187.711 15.2298 187.711C16.0787 186.862 16.9026 186.437 17.7515 185.613C16.5031 185.613 15.2298 186.862 13.9565 186.862C14.8054 186.013 15.6293 185.613 16.4782 184.765C15.2049 184.765 13.9565 186.013 12.6832 186.013C13.9315 185.588 14.356 184.765 15.2049 183.916C13.9565 184.765 12.2588 184.34 11.4099 185.588C12.2588 184.74 12.6832 183.916 13.9315 183.491C12.6832 183.491 11.4099 184.765 10.1366 184.765C10.9854 183.916 11.8094 183.491 12.6582 183.092C13.0827 182.667 12.6582 182.667 12.2338 182.667C10.9854 183.092 10.1366 183.516 8.86326 183.941C9.71214 183.092 10.536 182.667 11.3849 182.268C11.8094 181.843 11.3849 181.843 10.9605 181.843C10.1116 182.692 9.2877 183.092 8.01439 183.092C8.43883 182.243 9.68717 181.843 10.1116 180.995C9.26273 181.843 7.58995 181.843 6.74107 182.667C7.16551 181.818 7.98942 180.995 8.8383 180.57C7.56498 180.57 6.74107 181.419 5.46776 181.818C5.8922 180.57 7.56498 180.97 7.98942 179.721C6.74107 180.146 5.46776 180.146 4.61888 180.995C4.19445 181.419 3.77001 180.995 4.19445 180.57C5.04332 180.146 5.86723 179.721 6.71611 178.897C5.46776 179.322 4.19445 179.746 2.92113 180.146C3.77001 179.297 4.59392 178.473 5.86723 178.473C4.19445 178.473 2.92113 178.897 1.67278 179.322C2.92113 178.897 3.77001 178.473 4.61888 177.649C3.37054 178.073 2.52166 177.649 1.24835 178.498C0.823909 178.498 0.823909 178.073 0.823909 178.073C2.07226 178.073 2.92113 177.224 4.19445 176.825C2.92113 176.401 1.24835 177.249 0 177.249C1.27331 176.401 2.9461 176.401 4.19445 176.401C3.22074 175.826 1.54795 175.826 0.274638 175.427C1.54795 175.002 3.22073 175.826 4.49405 175.826C3.64517 174.578 2.39683 174.977 1.54795 174.154C2.7963 173.729 4.06961 175.002 5.34292 175.002C4.49405 174.154 3.67014 173.754 2.82126 173.33C4.06961 173.33 5.34292 174.603 6.61624 174.179C5.36789 174.179 5.36789 172.506 4.09458 172.506C5.76736 172.081 6.1918 173.754 7.88955 173.754C7.04067 172.905 6.21677 172.506 5.36789 171.657C6.61624 171.657 7.88955 172.93 9.16286 172.93C8.31399 172.081 7.49008 171.657 6.6412 170.833C7.88955 170.833 9.16287 172.081 10.4362 172.081C9.16287 171.657 9.16286 170.833 8.33896 169.984C9.18783 170.833 10.0117 171.232 11.2851 171.657C11.2851 170.808 10.4362 170.384 10.0367 169.56C10.8856 170.409 11.7095 170.808 12.5584 171.657C12.5584 170.808 12.5584 169.984 12.5584 169.135C13.4072 169.984 12.9828 170.808 13.4072 171.657C14.2561 170.808 14.2561 169.984 15.08 169.135C15.08 169.984 14.2312 170.808 14.6556 171.657C15.5045 170.808 16.3284 170.384 17.1772 169.56C16.3284 170.409 15.9289 171.232 15.9289 172.081C16.7778 171.232 17.6017 170.409 18.875 170.409C18.875 171.682 16.7778 171.682 17.2022 172.506C17.6267 172.93 18.4506 172.081 19.2994 171.232C19.7239 170.808 20.1483 170.808 20.5728 170.808C19.7239 171.232 19.2994 172.481 18.4755 172.905C19.7239 172.905 20.5728 171.632 21.8461 171.632C21.4216 172.056 20.5977 172.905 20.1733 173.305C21.4216 173.305 22.2705 172.456 23.1194 172.031C23.1194 173.305 21.0222 173.305 21.4466 173.704C22.2955 174.553 23.5438 172.855 24.8171 172.855C24.3927 173.704 22.7199 173.704 22.7199 174.953C23.9932 174.953 24.8171 174.104 25.666 173.704C25.2416 174.129 24.4177 174.953 23.9932 175.377C25.2416 174.953 26.0904 174.528 27.3638 174.129C27.3638 175.377 25.2665 174.977 25.2665 176.226C26.5399 176.226 27.3638 175.377 28.2126 174.977C28.6371 174.977 28.6371 174.977 28.6371 175.402C28.0129 175.826 27.189 175.826 26.7646 176.251C26.3401 176.251 26.3401 177.1 26.3401 177.1C27.6134 177.524 28.4373 175.826 29.7106 175.826C29.2862 176.675 28.0379 176.675 27.6134 177.499C28.8618 177.924 29.7107 177.075 30.5595 176.65C29.7107 177.075 29.7106 178.323 28.4623 178.323C29.7106 177.899 30.984 177.899 32.2573 177.474C30.984 177.474 30.984 179.147 29.7356 179.147C30.984 178.723 32.2573 178.723 33.5306 177.899C32.6817 178.747 31.8578 179.147 31.0089 179.996C32.2822 179.996 33.5306 178.747 34.8039 178.747C34.3795 179.996 32.7067 179.596 32.2822 180.845C33.5306 180.845 34.3795 179.571 35.6528 179.571C35.6528 179.996 35.2283 179.996 35.2283 180.42C34.8039 180.845 33.955 180.845 33.5556 181.269C34.8289 181.694 35.6528 180.42 36.9261 180.42C36.5017 180.42 36.0772 180.845 36.0772 180.845C35.6528 181.269 35.6528 181.694 34.8289 182.093C36.0772 181.669 36.9261 181.244 38.1994 180.845C38.1994 182.093 36.1022 181.694 36.1022 182.942C37.3505 182.942 38.1994 182.093 39.0483 181.694C39.4727 181.694 39.8972 181.694 39.4727 182.118C38.6238 182.542 37.7999 182.967 36.9511 183.791C38.2244 183.366 39.0483 182.942 40.3216 182.517C39.8972 183.791 38.6488 183.791 38.2244 184.615C39.4977 184.615 40.3216 182.942 42.0193 183.341C40.771 183.341 40.771 185.014 39.4977 185.014C40.746 185.014 42.0193 184.165 43.2927 183.766C42.4438 184.615 41.6199 185.014 40.771 185.863C42.0193 185.439 43.2927 185.014 44.566 184.615C43.7171 185.464 42.4688 185.464 42.0443 186.712C42.8932 185.863 44.1415 185.863 45.4149 185.464C44.566 186.312 43.7421 186.712 42.8932 187.561C44.1665 187.136 45.4148 186.287 46.6882 186.287C45.8393 186.712 45.0154 187.561 44.1665 187.96C45.4149 187.96 46.6882 186.712 47.9615 187.111C46.7131 187.111 46.2887 188.784 45.0154 188.784C46.2637 188.36 47.9615 188.36 49.2098 187.511C48.361 188.784 47.1126 188.36 46.2637 189.608C47.537 189.184 48.7854 188.759 50.0587 188.759C49.2098 189.184 47.9615 189.608 47.1126 190.008C46.6882 190.432 47.1126 190.432 47.537 190.432C48.7854 189.583 49.6343 190.008 50.9076 189.583C50.0587 190.432 48.8104 190.432 47.537 190.831C48.7854 190.831 50.4831 190.831 51.7315 190.831C50.4831 190.831 49.2098 191.68 47.9365 191.256C49.1849 192.105 50.4582 191.68 51.7315 192.105C50.4831 192.105 48.7854 192.105 47.537 192.105C48.7854 192.529 49.6343 192.954 50.9076 193.378C49.6343 193.378 48.3859 192.529 47.1126 192.954C47.9615 193.803 49.2098 193.378 49.6343 194.626C48.7854 193.778 47.537 193.778 46.2637 193.378C46.2637 194.626 48.361 194.227 48.361 195.475C47.1126 195.051 46.2637 194.202 44.9904 194.202C45.4148 194.202 45.8393 194.626 45.8393 194.626C46.089 195.176 46.089 195.6 46.9378 196.025Z" fill="#DF4F94"/>
<path d="M6.13984 171.707C7.36322 171.707 8.56163 172.106 9.36057 172.506C8.56163 172.106 8.56163 170.883 7.33825 170.883C8.56163 170.883 9.76004 172.106 10.9834 172.106C10.584 171.307 9.36057 171.307 8.9611 170.484C8.56163 170.084 8.9611 170.084 9.36057 170.084C10.1595 170.883 11.3829 170.883 11.7824 171.707C11.7824 170.908 10.559 170.084 10.559 169.285C11.3579 170.084 12.1818 170.508 12.9808 171.307C12.9808 170.508 12.9808 170.084 12.5813 169.285L12.9808 168.886C13.3802 169.685 12.9808 170.908 13.7797 170.908C14.5787 171.307 14.5787 169.685 15.4026 168.886C15.4026 169.685 14.6036 170.508 15.0031 171.307C15.4026 170.508 16.626 170.084 17.4249 169.285C16.626 170.084 16.2015 170.908 16.2015 171.707C17.0005 170.908 17.8244 170.084 19.0228 170.084C18.6233 170.883 17.3999 170.883 17.3999 172.106C18.6233 172.106 19.4222 171.307 20.2212 170.883C19.4222 171.282 19.4222 172.506 18.5983 172.506C19.7967 172.506 20.6207 171.307 21.8191 171.307C21.0201 172.106 20.5957 172.506 19.7967 173.33C21.0201 173.33 21.8191 172.131 23.0175 172.131C22.2185 172.531 22.2185 173.754 20.9952 173.754C22.2185 173.355 23.417 173.355 24.6403 172.531C23.8414 173.33 23.0175 173.754 22.2185 174.553C23.4419 174.553 24.6403 173.33 25.8637 173.33C25.0648 174.129 24.2409 174.553 23.4419 175.352C24.6403 175.352 25.8637 174.129 27.0871 174.129C25.8637 174.528 25.4642 175.352 24.6653 176.151C25.4642 175.352 27.0871 175.752 27.886 174.928C27.0871 175.327 27.0871 176.55 25.8637 176.55C27.0871 176.151 28.2855 176.151 29.5089 175.327C28.7099 176.126 27.886 176.55 27.0871 177.349C28.3105 177.349 29.5089 176.151 30.7323 176.151C29.9333 176.95 29.1094 177.349 28.3105 178.173C29.5089 178.173 30.7323 176.95 31.9556 176.95C31.1567 177.749 30.3328 178.173 29.5339 178.972C30.7572 178.573 31.9556 177.749 33.179 177.749C31.9556 177.749 31.9556 179.372 30.7572 179.372C31.9806 179.372 32.7795 178.573 33.978 178.573C33.179 178.972 32.7796 179.796 31.9556 180.196C33.179 179.796 33.978 179.397 35.1764 178.972C34.7769 180.196 33.5535 180.196 33.1541 180.995C34.3525 180.995 35.1764 180.196 35.9753 179.771C36.3748 179.771 36.3748 179.771 36.3748 180.171C35.9753 180.97 34.7519 180.57 34.3525 181.794C35.5759 181.794 36.3748 180.995 37.1737 180.595C37.5732 180.595 37.5732 180.595 37.5732 180.995C37.1737 181.794 35.9504 181.394 35.5509 182.617C36.7743 182.218 37.5732 181.818 38.7716 181.419C37.9727 181.818 37.5732 182.617 36.7493 183.042C37.9727 182.642 38.7716 182.243 39.97 181.819C39.1711 182.617 38.7466 183.441 37.5482 183.841C38.7466 183.841 39.5706 183.042 40.769 182.617C41.1684 182.617 41.5679 182.617 41.1684 183.017C40.3695 183.416 39.5456 183.816 38.7466 184.64C39.97 184.24 40.769 183.841 41.9674 183.416C42.3669 183.416 42.7663 183.416 42.3669 183.816C41.5679 184.215 40.744 184.615 39.9451 185.439C41.1684 185.439 42.3669 184.215 43.5902 184.215C42.3669 184.615 41.9674 185.439 41.1684 186.238C42.3918 185.439 43.5902 185.439 44.8136 184.615C44.0147 185.414 43.6152 186.238 42.3918 186.637C43.6152 186.637 44.8136 185.414 46.037 185.414C45.2381 186.213 44.4141 186.637 43.6152 187.037C43.2157 187.436 43.6152 187.436 44.0147 187.436C45.2131 187.037 46.037 186.637 47.2354 186.238C46.4365 187.436 45.2131 187.436 44.4141 188.26C45.6375 187.861 46.8359 187.461 48.0593 187.037C47.6598 187.836 46.4365 188.26 45.6375 188.659C46.8609 188.659 48.0593 188.26 49.2827 187.861C48.4838 188.26 47.6598 189.084 46.4614 189.483C48.0843 189.483 49.2827 189.084 50.5061 188.684C49.2827 189.483 48.0843 189.483 46.8609 190.307C48.0843 190.707 49.6822 189.908 50.9055 189.908C49.6822 190.707 48.4837 190.307 47.2604 190.707C48.4837 191.506 49.6822 190.707 50.9055 191.506C49.6822 191.905 48.0843 191.106 46.8609 191.106C47.6598 191.905 48.8832 191.905 49.6822 192.729C48.4838 192.33 47.2604 191.93 46.037 191.93C47.2604 191.93 47.2604 193.553 48.4588 193.553C47.2354 193.952 46.4365 192.33 45.2381 192.754C46.037 193.153 46.4614 193.977 47.2604 194.377C46.037 193.977 44.8386 193.977 44.0396 193.153C44.0396 194.377 46.062 193.952 46.062 195.176C44.8386 195.176 44.0396 194.377 43.2407 193.952C42.8412 193.952 42.8412 193.952 42.8412 194.352C43.2407 195.151 44.0646 195.151 44.8635 195.575C43.6651 195.975 42.8412 194.776 41.6428 194.776C42.4417 195.176 42.4418 196.399 43.6651 196.399C42.4418 196.399 41.6428 195.6 40.8439 195.176C40.4444 195.176 40.4444 195.176 40.4444 195.575C41.2433 195.975 41.6678 196.374 41.6678 197.198C40.8688 196.799 40.4444 195.575 39.6455 195.575C39.246 195.176 39.246 196.374 39.6455 197.198L39.246 197.598C38.8465 196.799 38.8465 195.975 38.447 195.176C38.447 196.399 36.8242 196.399 37.2486 197.598C37.2486 196.799 37.2486 196.399 37.6481 195.575L37.2486 195.176C36.8492 195.975 35.6258 195.975 35.2263 197.198C35.2263 196.399 36.0252 195.575 36.0252 194.776C35.2263 195.575 34.4024 196 33.6035 196.399C33.6035 195.6 35.2263 195.176 34.8019 194.377C34.0029 193.977 33.179 195.6 32.3801 196C31.9806 196.399 31.9806 196 31.9806 195.6C32.3801 194.801 33.6035 194.801 33.6035 193.977C32.3801 193.977 31.5811 194.776 30.7822 195.201C30.7822 193.977 32.4051 193.977 32.4051 193.178C31.1817 193.578 30.3827 193.977 29.1843 194.402C30.3827 194.402 29.9833 192.779 31.2066 192.779C29.9833 192.779 29.1843 193.578 28.3854 194.002C27.9859 194.002 27.9859 194.002 27.9859 193.603C28.3854 192.804 29.6087 192.804 30.0082 191.98C28.8098 191.98 27.9859 193.203 26.7875 193.203C27.5864 192.404 28.0109 191.98 28.8098 191.181C27.5864 191.98 26.388 191.581 25.5891 192.804C25.9886 191.581 26.388 191.181 27.6114 190.782C26.388 190.782 25.5891 191.581 24.3907 191.98C24.3907 190.782 26.0135 190.782 26.413 189.958C25.1896 189.958 24.3907 190.757 23.5917 191.181C23.1922 191.181 23.1922 191.181 23.1922 190.782C23.5917 189.983 25.2146 190.382 25.2146 189.159C23.9912 189.159 23.1922 190.382 21.9938 190.382C22.3933 189.583 23.6167 189.159 24.0162 188.36C22.8177 188.759 21.9938 189.159 20.7954 189.583C21.1949 189.583 21.5944 189.184 21.5944 189.184C21.9938 188.784 21.9938 188.385 22.8178 187.96C21.5944 188.36 20.7954 188.759 19.597 189.184C19.9965 187.96 21.2199 187.96 21.6193 187.161C20.396 187.161 19.597 187.96 18.7981 188.385C18.3986 188.385 18.3986 188.385 18.3986 187.985C18.7981 187.586 19.597 187.586 20.0214 187.186C20.4209 187.186 20.4209 186.387 20.4209 186.387C19.2225 185.988 18.3986 187.586 17.2002 187.586C17.9991 186.787 18.823 186.387 19.622 185.564C18.823 186.362 17.2002 185.963 16.4012 186.787C17.2002 186.387 17.2002 185.164 18.4236 185.164C17.2002 185.564 16.0018 185.564 14.7784 186.387C15.5773 185.589 16.4012 185.164 17.2002 184.365C15.9768 184.365 14.7784 185.589 13.555 185.589C14.354 184.79 15.1779 184.365 15.9768 183.966C16.3763 183.566 15.9768 183.566 15.5773 183.566C14.7784 184.365 13.555 183.966 12.7561 184.79C12.7561 183.566 14.3789 183.991 14.7784 183.167C15.1779 182.767 14.7784 182.767 14.3789 182.767C13.58 183.566 12.7561 183.991 11.5577 183.991C11.9571 183.991 12.3566 183.591 12.3566 183.591C12.7561 183.192 12.7561 182.792 13.58 182.368C12.3566 182.368 11.1582 182.767 10.3592 183.591C10.7587 182.792 11.9821 182.368 12.781 181.569C11.5577 181.968 10.3592 181.968 9.56031 182.767C9.16084 183.167 8.76136 182.767 9.16084 182.368C9.95978 181.968 10.7837 181.569 11.5826 180.745C10.3592 181.144 9.16084 181.544 7.93746 181.943C8.7364 181.144 9.56031 180.745 10.3592 180.32C10.7587 179.921 10.3592 179.921 9.95978 179.921C9.16084 180.72 7.93746 181.144 6.73905 181.144C7.96242 181.144 8.36189 179.122 9.56031 179.522C8.36189 179.122 7.13852 180.745 5.91514 180.32C7.13852 180.32 7.13851 178.698 8.33693 178.698C7.11355 178.298 5.91513 179.497 4.69175 179.497C5.49069 178.698 6.71408 178.698 7.51302 177.874C6.28964 178.273 5.09122 178.673 3.46837 178.673C4.69175 178.273 5.4907 177.449 6.68911 177.05C5.46573 177.449 4.26732 177.849 2.64447 177.849C3.86784 177.449 4.66679 177.05 5.8652 176.65C4.66679 176.65 3.04394 176.65 1.82056 176.65C3.44341 176.65 4.64182 176.251 5.8652 175.851C4.66679 176.251 3.04394 175.452 1.82056 175.452C3.04394 175.452 4.64182 175.452 5.8652 175.452C5.06626 174.653 3.84288 174.653 2.64447 174.229C3.86784 174.229 5.46573 175.027 6.68911 174.628C5.46573 174.628 4.66679 173.829 3.86784 173.005C5.06626 173.804 6.28964 173.804 7.51302 174.229C6.71408 173.43 5.89017 173.005 5.09123 172.206C6.31461 172.606 7.51302 173.005 8.7364 173.405C7.73772 172.93 7.33825 171.707 6.13984 171.707Z" fill="#FFAFD9"/>
<path d="M36.3994 194.502L6.86353 177.45L16.6506 171.807L46.1864 188.86L36.3994 194.502Z" fill="#FF85C5"/>
<path d="M23.5904 175.827L39.3196 184.915L29.4826 190.608L13.7534 181.52L14.2278 180.895C15.5261 179.148 17.049 177.725 18.597 176.801L18.6469 176.776C20.0201 175.977 21.3683 175.627 22.5667 175.727L23.5904 175.827Z" fill="#F445A1"/>
<path d="M29.881 179.472L33.3764 181.495L23.5144 187.162L20.019 185.14L20.4934 184.516C21.7917 182.768 23.3147 181.345 24.8626 180.421L24.9126 180.396C26.2858 179.597 27.634 179.248 28.8324 179.348L29.881 179.472Z" fill="#FF8C6E"/>
<path d="M29.881 179.472L23.1898 183.317L20.019 185.14L20.4934 184.516C21.7917 182.768 23.3147 181.345 24.8626 180.421L24.9126 180.396C26.2858 179.597 27.634 179.248 28.8324 179.348L29.881 179.472Z" fill="#F445A1"/>
<path d="M26.5065 183.967L24.7338 182.943C24.5091 182.818 24.3843 182.593 24.3843 182.344V181.67C24.3843 181.12 24.9585 180.796 25.4329 181.07L27.5051 182.269C27.8547 182.469 27.9546 182.893 27.7548 183.243L27.4552 183.742C27.2804 184.041 26.856 184.141 26.5065 183.967Z" fill="#FF716E"/>
<path d="M33.3712 181.47L23.5093 187.163L23.9836 186.538C25.2819 184.766 26.8049 183.368 28.3529 182.444L28.4028 182.419C29.776 181.62 31.1242 181.27 32.3226 181.37L33.3712 181.47Z" fill="#F445A1"/>
<path d="M68.7568 53.0887L25.1146 181.244C25.0397 181.394 25.0647 181.594 25.2145 181.793C25.4891 182.218 26.1383 182.542 26.6376 182.492C26.8873 182.467 27.0621 182.368 27.137 182.218L70.7791 54.0625L68.7568 53.0887Z" fill="#9DBDC4"/>
<path d="M70.8322 54.1129C70.258 54.812 68.5353 53.9631 68.735 53.0892C69.2843 52.3902 71.032 53.239 70.8322 54.1129Z" fill="#F1F2F2"/>
<path d="M74.1765 53.5889L68.2593 50.8176C68.2593 50.8176 66.0622 49.3695 65.2883 51.1421C64.5143 52.9148 65.9374 53.8885 65.9374 53.8885C65.9374 53.8885 64.5642 53.8635 64.3395 55.4864C64.1148 56.9844 65.5379 57.5836 65.5379 57.5836C65.5379 57.5836 63.99 57.0843 63.99 58.5823C63.99 59.3063 64.764 60.3549 64.764 60.3549C64.764 60.3549 63.8152 60.6046 64.764 61.9278C65.7127 63.2511 67.2607 64.1499 68.7587 63.9502C70.2567 63.7504 71.1805 64.2747 71.1805 64.2747L81.1423 77.3574C81.1423 77.3574 79.4695 72.9882 82.3906 70.0671C85.0122 67.4455 87.4339 67.4955 87.4339 67.4955L74.1765 53.5889Z" fill="#FFAE30"/>
<path d="M57.1195 85.6216L55.247 84.8976C55.247 84.8976 52.6504 85.5217 53.1248 86.4705C53.5742 87.4192 55.0223 89.092 55.0972 89.7162C55.1721 90.3403 59.1168 91.1143 59.1168 91.1143C59.1168 91.1143 60.4151 90.8646 59.3166 89.6413C58.218 88.4179 57.0196 88.4179 57.0196 88.4179L56.5952 87.0697L57.1195 85.6216Z" fill="#FFBE59"/>
<path d="M57.246 83.1001L55.024 82.2513C55.024 82.2513 51.953 82.9753 52.5023 84.1238C53.0516 85.2473 54.7743 87.2446 54.8492 87.9687C54.9241 88.7177 59.6179 89.6415 59.6179 89.6415C59.6179 89.6415 61.1658 89.3419 59.8676 87.8938C58.5693 86.4207 57.1462 86.4457 57.1462 86.4457L56.6468 84.8478L57.246 83.1001Z" fill="#FFBE59"/>
<path d="M58.7958 80.7282L56.8483 79.3799C56.8483 79.3799 53.6775 79.3799 53.9522 80.6033C54.2018 81.8267 55.4252 84.1736 55.3254 84.8976C55.2255 85.6467 59.5697 87.644 59.5697 87.644C59.5697 87.644 61.1426 87.7189 60.2189 85.9962C59.2951 84.2735 57.9219 83.9489 57.9219 83.9489L57.822 82.2761L58.7958 80.7282Z" fill="#FFBE59"/>
<path d="M60.096 79.3553L60.845 76.8336C60.845 76.8336 55.1026 76.5839 55.2524 77.9571C55.4022 79.3303 56.4258 81.9768 56.2511 82.7757C56.0763 83.5747 60.4205 86.1463 60.4205 86.1463C60.4205 86.1463 62.0684 86.371 61.2694 84.3986C60.4954 82.4262 59.0723 81.9518 59.0723 81.9518L59.1472 80.1292L60.096 79.3553Z" fill="#FFBE59"/>
<path d="M57.7473 76.2589C57.7473 76.2589 58.5712 78.0066 60.3938 78.0066C62.2164 78.0066 61.9667 77.0828 61.9667 77.0828L63.0403 79.9789C63.0403 79.9789 61.792 83.1997 63.0403 83.7739C64.2887 84.3482 66.5357 83.4493 66.5357 80.7529C66.5357 78.0565 65.9115 76.7083 65.9115 76.7083L63.1402 73.9869L57.7473 76.2589Z" fill="#FFBE59"/>
<path d="M108.331 41.9549C108.331 41.9549 100.716 41.9549 98.9435 50.2689C97.1709 58.5829 96.6216 68.1452 96.6216 68.1452C96.6216 68.1452 103.662 75.3606 107.657 73.0387C111.677 70.7168 113.899 69.5683 113.899 69.5683C113.899 69.5683 120.964 44.177 108.331 41.9549Z" fill="#FF85C5"/>
<path d="M150.652 143.395C145.758 140.574 141.763 133.658 141.763 128.016C141.763 122.348 145.758 120.051 150.652 122.898C155.545 125.719 159.54 132.635 159.54 138.277C159.515 143.92 155.545 146.242 150.652 143.395ZM150.652 125.17C146.832 122.972 143.736 124.77 143.736 129.164C143.736 133.558 146.832 138.926 150.652 141.123C154.472 143.32 157.568 141.523 157.568 137.129C157.543 132.735 154.447 127.367 150.652 125.17Z" fill="#2F444A"/>
<path d="M150.152 143.12L149.153 142.546V124.32L150.152 124.87V143.12Z" fill="#4C727E"/>
<path d="M144.404 123.854L143.712 124.253L154.885 143.604L155.577 143.205L144.404 123.854Z" fill="#4C727E"/>
<path d="M157.543 138.851L141.763 129.714V128.59L157.543 137.703V138.851Z" fill="#4C727E"/>
<path d="M154.906 129.858L143.731 136.319L144.431 137.53L155.606 131.068L154.906 129.858Z" fill="#4C727E"/>
<path d="M149.656 143.969C144.762 141.148 140.767 134.232 140.767 128.589C140.767 122.922 144.762 120.625 149.656 123.471C154.549 126.293 158.544 133.208 158.544 138.851C158.544 144.493 154.549 146.79 149.656 143.969ZM149.656 125.743C145.836 123.546 142.74 125.344 142.74 129.738C142.74 134.132 145.836 139.5 149.656 141.697C153.475 143.894 156.571 142.097 156.571 137.702C156.571 133.308 153.475 127.94 149.656 125.743Z" fill="#ADD4E1"/>
<path d="M149.656 143.969C144.762 141.148 140.767 134.232 140.767 128.589C140.767 122.922 144.762 120.625 149.656 123.471C154.549 126.293 158.544 133.208 158.544 138.851C158.544 144.493 154.549 146.79 149.656 143.969ZM149.656 125.743C145.836 123.546 142.74 125.344 142.74 129.738C142.74 134.132 145.836 139.5 149.656 141.697C153.475 143.894 156.571 142.097 156.571 137.702C156.571 133.308 153.475 127.94 149.656 125.743Z" fill="#0D252D"/>
<path d="M151.327 119.277L145.784 122.472C151.526 125.793 156.195 133.857 156.195 140.499L161.738 137.303C161.738 130.662 157.069 122.597 151.327 119.277Z" fill="#5CA9C2"/>
<path d="M178.976 126.992C174.083 124.171 170.088 117.255 170.088 111.613C170.088 105.945 174.083 103.648 178.976 106.494C183.87 109.316 187.865 116.231 187.865 121.874C187.865 127.516 183.87 129.813 178.976 126.992ZM178.976 108.741C175.156 106.544 172.061 108.342 172.061 112.736C172.061 117.13 175.156 122.498 178.976 124.695C182.796 126.892 185.892 125.095 185.892 120.7C185.892 116.306 182.796 110.938 178.976 108.741Z" fill="#2F444A"/>
<path d="M178.479 126.693L177.505 126.118V107.893L178.479 108.467V126.693Z" fill="#4C727E"/>
<path d="M172.754 107.417L172.062 107.817L183.235 127.168L183.927 126.768L172.754 107.417Z" fill="#4C727E"/>
<path d="M185.892 122.423L170.088 113.31V112.161L185.892 121.274V122.423Z" fill="#4C727E"/>
<path d="M183.236 113.474L172.066 119.945L172.767 121.155L183.937 114.684L183.236 113.474Z" fill="#4C727E"/>
<path d="M178.005 127.566C173.112 124.745 169.117 117.829 169.117 112.186C169.117 106.519 173.112 104.222 178.005 107.068C182.899 109.889 186.893 116.805 186.893 122.448C186.893 128.09 182.899 130.387 178.005 127.566ZM178.005 109.315C174.185 107.118 171.089 108.916 171.089 113.31C171.089 117.704 174.185 123.072 178.005 125.269C181.825 127.466 184.921 125.668 184.921 121.274C184.921 116.88 181.8 111.512 178.005 109.315Z" fill="#ADD4E1"/>
<path d="M178.005 127.566C173.112 124.745 169.117 117.829 169.117 112.186C169.117 106.519 173.112 104.222 178.005 107.068C182.899 109.889 186.893 116.805 186.893 122.448C186.893 128.09 182.899 130.387 178.005 127.566ZM178.005 109.315C174.185 107.118 171.089 108.916 171.089 113.31C171.089 117.704 174.185 123.072 178.005 125.269C181.825 127.466 184.921 125.668 184.921 121.274C184.921 116.88 181.8 111.512 178.005 109.315Z" fill="#0D252D"/>
<path d="M179.681 102.849L174.138 106.044C179.881 109.365 184.55 117.429 184.55 124.07L190.092 120.875C190.092 114.233 185.423 106.169 179.681 102.849Z" fill="#5CA9C2"/>
<path d="M184.599 54.2133L181.054 102.724V102.849C181.054 103.723 180.48 104.572 179.356 105.221L155.713 118.478C154.764 119.002 153.54 119.352 152.317 119.427C150.594 119.552 148.797 119.227 147.473 118.478L132.518 109.84C131.644 109.34 131.095 108.716 130.895 108.042V108.017L130.821 107.318L127.25 58.3827L152.317 60.4051L184.599 54.2133Z" fill="#F445A1"/>
<path d="M184.597 54.2133L181.052 102.724V102.849C181.052 103.723 180.478 104.572 179.354 105.221L155.71 118.478C154.762 119.002 153.538 119.352 152.315 119.427V60.3801L184.597 54.2133Z" fill="#F445A1"/>
<path d="M147.074 71.7653L128.074 60.7798C125.178 59.107 124.354 52.7155 127.25 51.0427L154.314 39.9824C157.21 38.3096 161.879 38.3096 164.775 39.9824L185.498 47.6972C188.394 49.3699 186.671 55.3121 183.775 56.9849L157.535 71.7403C154.639 73.4381 149.97 73.4381 147.074 71.7653Z" fill="#FF9E6E"/>
<path d="M151.843 67.471C149.996 67.471 148.248 67.0715 146.975 66.3225L127.975 55.3371C126.801 54.663 126.152 53.8141 126.152 52.9403C126.152 52.0664 126.801 51.2175 127.975 50.5434L154.215 35.788C155.513 35.039 157.236 34.6395 159.108 34.6395C160.956 34.6395 162.704 35.039 163.977 35.788L182.977 46.7734C184.15 47.4475 184.799 48.2964 184.799 49.1702C184.799 50.0441 184.15 50.893 182.977 51.5671L156.737 66.3225C155.438 67.0715 153.716 67.471 151.843 67.471Z" fill="#F445A1"/>
<path d="M159.082 35.3384C160.78 35.3384 162.427 35.7129 163.601 36.387L182.601 47.3725C183.525 47.8968 184.049 48.5709 184.049 49.1701C184.049 49.7693 183.525 50.4184 182.601 50.9427L156.36 65.7232C155.187 66.3973 153.539 66.7718 151.841 66.7718C150.144 66.7718 148.496 66.3723 147.322 65.7232L128.323 54.7377C127.399 54.2134 126.875 53.5393 126.875 52.9401C126.875 52.3409 127.399 51.6917 128.323 51.1425L154.588 36.387C155.736 35.7129 157.384 35.3384 159.082 35.3384ZM159.082 33.9153C157.184 33.9153 155.287 34.3397 153.864 35.1636L127.624 49.9191C124.727 51.5919 124.727 54.2883 127.624 55.9611L146.623 66.9465C148.071 67.7704 149.969 68.1949 151.841 68.1949C153.714 68.1949 155.636 67.7704 157.06 66.9465L183.3 52.1911C186.196 50.5183 186.196 47.8219 183.3 46.1491L164.3 35.1636C162.877 34.3397 160.979 33.9153 159.082 33.9153Z" fill="#FF85C5"/>
<path d="M186.949 159.474L188.872 154.455L184.153 151.609V157.177C184.153 158.125 184.802 159.299 185.601 159.773L185.626 159.798C186.2 160.148 186.749 160.023 186.949 159.474Z" fill="#1A4A5A"/>
<path d="M188.866 160.197C188.866 161.271 188.517 162.02 187.942 162.394L184.971 164.167L180.228 155.853L183.174 154.08L183.348 153.98C183.923 153.681 184.722 153.756 185.57 154.28C187.393 155.353 188.866 158 188.866 160.197Z" fill="#2F444A"/>
<path d="M179.333 158.025C179.333 160.197 180.806 162.869 182.628 163.942C184.451 165.041 185.924 164.142 185.924 161.97C185.924 159.798 184.451 157.151 182.628 156.053C180.806 154.954 179.333 155.828 179.333 158.025Z" fill="#0D252D"/>
<path d="M180.982 158.998C180.982 160.072 181.706 161.395 182.63 161.944C183.528 162.494 184.277 162.044 184.277 160.971C184.277 159.872 183.553 158.574 182.63 158.025C181.706 157.475 180.982 157.925 180.982 158.998Z" fill="#3394B3"/>
<path d="M183.999 161.246L185.922 156.228L181.203 153.382V158.949C181.203 159.898 181.852 161.071 182.651 161.546L182.676 161.571C183.25 161.92 183.775 161.795 183.999 161.246Z" fill="#5CA9C2"/>
<path d="M181.18 153.382L184.126 151.609L188.87 154.43L185.898 156.203L181.18 153.382Z" fill="#ADD4E1"/>
<path d="M186.151 151.56H183.904V153.407C183.879 153.607 183.979 153.807 184.229 153.956C184.678 154.231 185.377 154.231 185.827 153.956C186.076 153.807 186.176 153.607 186.151 153.407V151.56Z" fill="#73B5CB"/>
<path d="M185.828 152.033C185.379 152.308 184.68 152.308 184.23 152.033C183.781 151.759 183.781 151.334 184.23 151.085C184.805 150.735 185.604 150.685 185.828 151.085C186.078 151.534 186.253 151.784 185.828 152.033Z" fill="#85BFD1"/>
<path d="M217.482 141.847L219.404 136.829L214.685 133.983V139.55C214.685 140.499 215.334 141.673 216.133 142.147L216.158 142.172C216.733 142.521 217.257 142.397 217.482 141.847Z" fill="#1A4A5A"/>
<path d="M219.375 142.571C219.375 143.645 219.026 144.394 218.452 144.768L215.481 146.541L210.737 138.252L213.683 136.479L213.858 136.379C214.432 136.08 215.231 136.155 216.08 136.679C217.902 137.728 219.375 140.399 219.375 142.571Z" fill="#2F444A"/>
<path d="M209.848 140.399C209.848 142.571 211.321 145.243 213.144 146.316C214.966 147.415 216.439 146.516 216.439 144.344C216.439 142.172 214.966 139.525 213.144 138.427C211.321 137.328 209.848 138.227 209.848 140.399Z" fill="#0D252D"/>
<path d="M211.492 141.398C211.492 142.496 212.216 143.795 213.14 144.344C214.039 144.893 214.788 144.444 214.788 143.37C214.788 142.272 214.064 140.973 213.14 140.424C212.241 139.85 211.492 140.299 211.492 141.398Z" fill="#3394B3"/>
<path d="M214.514 143.62L216.437 138.602L211.718 135.755V141.323C211.718 142.272 212.367 143.445 213.166 143.919L213.191 143.944C213.765 144.294 214.314 144.169 214.514 143.62Z" fill="#5CA9C2"/>
<path d="M211.694 135.755L214.665 133.983L219.384 136.829L216.438 138.602L211.694 135.755Z" fill="#ADD4E1"/>
<path d="M216.663 133.933H214.416V135.781C214.391 135.981 214.491 136.18 214.74 136.33C215.19 136.605 215.889 136.605 216.338 136.33C216.588 136.18 216.688 135.981 216.663 135.781V133.933Z" fill="#73B5CB"/>
<path d="M216.335 134.407C215.885 134.682 215.186 134.682 214.737 134.407C214.288 134.133 214.288 133.708 214.737 133.458C215.311 133.109 216.11 133.059 216.335 133.458C216.585 133.908 216.784 134.157 216.335 134.407Z" fill="#85BFD1"/>
<path d="M213.685 129.738V130.113L188.394 115.507C187.17 114.783 185.173 114.783 183.925 115.507L158.633 130.113V129.738H152.766V134.257C152.766 134.731 153.065 135.181 153.69 135.555L183.95 153.007C185.173 153.731 187.17 153.731 188.419 153.007L218.679 135.555C219.303 135.206 219.602 134.731 219.602 134.257V129.738H213.685Z" fill="#BBCDFF"/>
<path d="M218.636 131.036L215.365 132.934L188.401 148.513C187.178 149.212 185.156 149.212 183.957 148.513L157.018 132.934L153.722 131.036C152.474 130.337 152.474 129.189 153.722 128.44L183.957 110.988C185.18 110.289 187.203 110.289 188.401 110.988L218.636 128.44C219.885 129.189 219.885 130.337 218.636 131.036Z" fill="#BBCDFF"/>
<path d="M215.355 132.934L188.391 148.513C187.167 149.212 185.145 149.212 183.946 148.513L157.007 132.934L184.745 116.88C185.095 116.68 185.619 116.555 186.193 116.555C186.743 116.555 187.242 116.68 187.592 116.88L215.355 132.934Z" fill="#778DFD"/>
<path d="M186.179 111.162C186.903 111.162 187.577 111.312 188.052 111.587L218.287 129.039C218.661 129.263 218.886 129.513 218.886 129.738C218.886 129.962 218.661 130.212 218.312 130.412L215.041 132.309L188.077 147.889C187.602 148.163 186.928 148.313 186.204 148.313C185.48 148.313 184.806 148.163 184.332 147.889L157.342 132.309L154.047 130.412C153.697 130.212 153.472 129.962 153.472 129.738C153.472 129.513 153.697 129.263 154.047 129.039L184.282 111.587C184.781 111.312 185.455 111.162 186.179 111.162ZM186.179 110.463C185.38 110.463 184.556 110.638 183.957 110.988L153.722 128.44C152.474 129.164 152.474 130.337 153.722 131.036L157.018 132.934L183.957 148.513C184.556 148.862 185.38 149.037 186.179 149.037C186.978 149.037 187.802 148.862 188.401 148.513L215.365 132.934L218.636 131.036C219.885 130.337 219.885 129.189 218.636 128.44L188.401 110.988C187.777 110.638 186.978 110.463 186.179 110.463Z" fill="#9FB6FF"/>
<path d="M196.088 123.572L194.016 122.373V63.9756L196.088 65.1741V123.572Z" fill="#79C7D3"/>
<path d="M196.091 123.572L198.163 122.373V63.9756L196.091 65.174V123.572Z" fill="#3BAAC4"/>
<path d="M202.607 92.1134V92.4879L189.574 84.6233C188.351 83.9243 186.354 83.9243 185.13 84.6233L159.839 99.229V98.8545H153.971V103.373C153.971 103.848 154.271 104.297 154.895 104.672L172.871 115.408C174.095 116.107 176.092 116.107 177.34 115.408L207.6 97.9307C208.225 97.5812 208.524 97.1068 208.524 96.6574V92.1384H202.607V92.1134Z" fill="#BBCDFF"/>
<path d="M207.546 93.3868L204.275 95.2843L177.311 110.864C176.088 111.563 174.065 111.563 172.867 110.864L158.186 102.025L154.891 100.128C153.643 99.4288 153.643 98.2803 154.891 97.5313L185.126 80.0794C186.349 79.3803 188.372 79.3803 189.57 80.0794L207.546 90.7902C208.794 91.5392 208.794 92.6877 207.546 93.3868Z" fill="#BBCDFF"/>
<path d="M204.275 95.2838L177.31 110.863C176.087 111.562 174.065 111.562 172.866 110.863L158.186 102.025L185.924 85.9711C186.274 85.7714 186.798 85.6466 187.372 85.6466C187.921 85.6466 188.421 85.7714 188.77 85.9711L204.275 95.2838Z" fill="#778DFD"/>
<path d="M187.348 80.2792C188.072 80.2792 188.746 80.429 189.22 80.7036L207.197 91.4144C207.571 91.6391 207.796 91.8888 207.796 92.1135C207.796 92.3382 207.571 92.5879 207.222 92.7876L203.951 94.6851L176.987 110.264C176.512 110.539 175.838 110.689 175.114 110.689C174.39 110.689 173.716 110.539 173.242 110.264L158.561 101.426L155.265 99.5287C154.916 99.3289 154.691 99.0793 154.691 98.8546C154.691 98.6299 154.916 98.3802 155.265 98.1555L185.5 80.7036C185.95 80.429 186.624 80.2792 187.348 80.2792ZM187.348 79.5551C186.549 79.5551 185.725 79.7299 185.126 80.0794L154.891 97.5313C153.643 98.2803 153.643 99.4288 154.891 100.128L158.186 102.025L172.867 110.864C173.466 111.213 174.29 111.388 175.089 111.388C175.888 111.388 176.712 111.213 177.311 110.864L204.275 95.2843L207.546 93.3868C208.794 92.6877 208.794 91.5392 207.546 90.7902L189.57 80.0794C188.971 79.7299 188.147 79.5551 187.348 79.5551Z" fill="#9FB6FF"/>
<path d="M202.607 62.8766V63.2511L189.574 55.3865C188.351 54.6874 186.354 54.6874 185.13 55.3865L159.839 69.9922V69.6177H153.971V74.1367C153.971 74.6111 154.271 75.0605 154.895 75.435L172.871 86.1458C174.095 86.8449 176.092 86.8449 177.34 86.1458L207.6 68.6939C208.225 68.3444 208.524 67.87 208.524 67.3956V62.8766H202.607Z" fill="#BBCDFF"/>
<path d="M207.546 64.1773L204.275 66.0748L177.311 81.6541C176.088 82.3532 174.065 82.3532 172.867 81.6541L158.186 72.8159L154.891 70.9184C153.643 70.2193 153.643 69.0708 154.891 68.3218L185.126 50.8699C186.349 50.1708 188.372 50.1708 189.57 50.8699L207.546 61.5807C208.794 62.3048 208.794 63.4532 207.546 64.1773Z" fill="#BBCDFF"/>
<path d="M204.275 66.0474L177.31 81.6268C176.087 82.3258 174.065 82.3258 172.866 81.6268L158.186 72.7885L185.924 56.7347C186.274 56.535 186.798 56.4102 187.372 56.4102C187.921 56.4102 188.421 56.535 188.77 56.7347L204.275 66.0474Z" fill="#778DFD"/>
<path d="M187.348 51.0426C188.072 51.0426 188.746 51.1924 189.22 51.467L207.197 62.1778C207.571 62.4025 207.796 62.6522 207.796 62.8769C207.796 63.1016 207.571 63.3513 207.222 63.551L203.951 65.4485L176.987 81.0279C176.512 81.3025 175.838 81.4523 175.114 81.4523C174.39 81.4523 173.716 81.3025 173.242 81.0279L158.561 72.1896L155.265 70.2921C154.916 70.0924 154.691 69.8427 154.691 69.618C154.691 69.3933 154.916 69.1436 155.265 68.9189L185.5 51.467C185.95 51.1924 186.624 51.0426 187.348 51.0426ZM187.348 50.3185C186.549 50.3185 185.725 50.4933 185.126 50.8428L154.891 68.2947C153.643 69.0188 153.643 70.1922 154.891 70.8913L158.186 72.7888L172.867 81.6271C173.466 81.9766 174.29 82.1514 175.089 82.1514C175.888 82.1514 176.712 81.9766 177.311 81.6271L204.275 66.0477L207.546 64.1502C208.794 63.4512 208.794 62.3027 207.546 61.5537L189.57 50.8428C188.971 50.4933 188.147 50.3185 187.348 50.3185Z" fill="#9FB6FF"/>
<path d="M168.35 139.6L166.277 138.402V80.0044L168.35 81.2028V139.6Z" fill="#79C7D3"/>
<path d="M168.345 139.6L170.417 138.402V80.0044L168.345 81.2028V139.6Z" fill="#3BAAC4"/>
<path d="M171.022 111.138L155.043 100.552V94.6845C155.043 90.9145 156.441 87.5439 159.212 87.2194C160.086 87.1195 162.832 87.1195 162.832 87.1195L162.033 77.5322C162.033 76.5086 162.733 76.1091 163.606 76.6334L163.631 76.6583C164.505 77.1577 165.204 78.3811 165.204 79.3797L164.505 87.6688C164.505 87.6688 168.999 90.7397 169.873 91.8382C176.464 100.202 171.022 111.138 171.022 111.138Z" fill="#2FB299"/>
<path d="M171.021 105.271V111.138L153.869 101.226V95.3587C153.869 91.6137 155.267 88.6177 158.038 88.2931C158.912 88.1932 161.659 88.3181 161.659 88.3181L160.86 78.2314C160.86 77.2078 161.559 76.8083 162.433 77.3326L162.458 77.3576C163.331 77.8569 164.03 79.0803 164.03 80.079L163.256 89.2668C163.256 89.2668 165.978 92.3128 166.852 93.4113C169.623 96.9317 171.021 101.501 171.021 105.271Z" fill="#45CCB8"/>
<path d="M170.593 107.018V110.913L154.264 101.5V97.6056C154.264 94.0353 155.588 91.2141 158.234 90.9145C159.058 90.8146 160.731 90.6398 161.655 90.9394C162.029 91.0642 162.828 91.4887 163.203 91.8133C164.126 92.5623 165.774 94.7094 166.598 95.7331C169.27 99.0786 170.593 103.448 170.593 107.018Z" fill="#37BFA8"/>
<path d="M179.634 114.309L177.013 115.832C177.013 115.832 176.763 114.334 177.013 113.91C177.387 113.261 178.985 112.012 179.634 112.387C180.034 112.636 179.634 114.309 179.634 114.309Z" fill="#FF9E6E"/>
<path d="M197.603 118.827L196.105 139.35V139.4C196.105 139.774 195.855 140.124 195.381 140.399L185.394 145.991C184.994 146.216 184.47 146.366 183.946 146.391C183.222 146.441 182.448 146.316 181.898 145.991L175.582 142.346C175.207 142.121 174.983 141.872 174.908 141.597V141.572L174.883 141.272L173.385 120.575L183.996 121.424L197.603 118.827Z" fill="#FED517"/>
<path d="M197.603 118.827L196.105 139.35V139.4C196.105 139.774 195.855 140.124 195.381 140.399L185.394 145.991C184.994 146.216 184.47 146.366 183.946 146.391V121.424L197.603 118.827Z" fill="#FFB600"/>
<path d="M181.727 126.268L173.687 121.624C172.464 120.925 172.115 118.203 173.338 117.504L184.798 112.835C186.021 112.136 187.993 112.136 189.217 112.835L197.98 116.106C199.204 116.805 198.48 119.327 197.256 120.026L186.146 126.268C184.948 126.967 182.95 126.967 181.727 126.268Z" fill="#FF9E6E"/>
<path d="M183.744 124.395C182.97 124.395 182.246 124.22 181.697 123.92L173.658 119.276C173.183 119.002 172.909 118.652 172.909 118.303C172.909 117.953 173.183 117.604 173.658 117.329L184.768 111.087C185.317 110.763 186.041 110.613 186.815 110.613C187.589 110.613 188.313 110.788 188.863 111.087L196.902 115.731C197.376 116.006 197.651 116.355 197.651 116.705C197.651 117.054 197.376 117.404 196.902 117.678L185.792 123.92C185.242 124.245 184.518 124.395 183.744 124.395Z" fill="#EFA500"/>
<path d="M186.817 110.938C187.516 110.938 188.215 111.088 188.689 111.388L196.729 116.031C197.078 116.231 197.303 116.506 197.303 116.731C197.303 116.955 197.078 117.205 196.729 117.43L185.618 123.671C185.144 123.946 184.445 124.121 183.746 124.121C183.047 124.121 182.348 123.971 181.873 123.671L173.834 119.027C173.459 118.828 173.26 118.553 173.26 118.328C173.26 118.104 173.484 117.854 173.834 117.654L184.944 111.413C185.419 111.088 186.118 110.938 186.817 110.938ZM186.817 110.239C186.018 110.239 185.219 110.414 184.595 110.763L173.484 117.005C172.261 117.704 172.261 118.853 173.484 119.552L181.524 124.196C182.123 124.545 182.947 124.72 183.746 124.72C184.545 124.72 185.344 124.545 185.968 124.196L197.078 117.954C198.302 117.255 198.302 116.106 197.078 115.407L189.039 110.763C188.415 110.439 187.616 110.239 186.817 110.239Z" fill="#FFCCB3"/>
<path d="M192.465 121.375L189.844 122.898C189.844 122.898 189.594 121.4 189.844 120.975C190.218 120.326 191.816 119.078 192.465 119.452C192.89 119.702 192.465 121.375 192.465 121.375Z" fill="#FF9E6E"/>
<path d="M191.316 120.675C191.316 120.675 185.399 131.336 183.95 131.96C182.053 132.784 172.591 128.115 172.765 126.492C172.865 125.494 173.614 124.27 173.614 124.27L173.564 123.546C173.564 123.546 172.141 125.619 172.141 126.617C172.141 128.265 180.979 133.508 183.801 132.609C186.048 131.885 191.59 120.825 191.59 120.825C191.59 120.825 191.49 120.351 191.316 120.675Z" fill="#0D252D"/>
<path d="M189.186 94.2851L181.421 89.841V87.619L189.186 92.0631V94.2851Z" fill="#653338"/>
<path d="M189.183 94.2852L194.725 91.0895V88.8674L189.183 92.0632V94.2852Z" fill="#190D0E"/>
<path d="M189.186 91.7143L181.421 87.2951L186.989 84.0744L194.729 88.5185L189.186 91.7143Z" fill="#FFBE59"/>
<path d="M189.186 93.936L181.421 89.4919V87.2948L189.186 91.7139V93.936Z" fill="#FFAE30"/>
<path d="M189.183 93.9364L194.725 90.7407V88.5186L189.183 91.7144V93.9364Z" fill="#FF5D0D"/>
<path d="M181.25 102.2L173.51 97.7556V95.5585L181.25 100.003V102.2Z" fill="#653338"/>
<path d="M181.252 102.2L186.82 99.0042V96.7821L181.252 100.003V102.2Z" fill="#190D0E"/>
<path d="M181.248 99.6532L173.508 95.2091L179.05 91.9883L186.815 96.4325L181.248 99.6532Z" fill="#FF884D"/>
<path d="M181.248 101.876L173.508 97.4314V95.2094L181.248 99.6535V101.876Z" fill="#FFB28D"/>
<path d="M181.249 101.876L186.817 98.6548V96.4327L181.249 99.6534V101.876Z" fill="#FF5D0D"/>
<path d="M194.71 97.0567L188.044 90.3656L188.793 88.9674L195.459 95.6586L194.71 97.0567Z" fill="#653338"/>
<path d="M194.712 97.0568L200.255 93.8361V93.4865L195.461 95.6587L194.712 97.0568Z" fill="#190D0E"/>
<path d="M195.461 95.3092L188.795 88.6181L194.362 85.3973L201.028 92.0885L195.461 95.3092Z" fill="#45CCB8"/>
<path d="M194.71 96.7076L188.044 90.0164L188.793 88.6183L195.459 95.3094L194.71 96.7076Z" fill="#37BFA8"/>
<path d="M194.712 96.7072L200.255 93.4865L201.029 92.0883L195.461 95.3091L194.712 96.7072Z" fill="#2FB299"/>
<path d="M183.383 59.4806L180.811 64.8485C180.037 65.2979 176.717 62.7512 176.642 62.0022L175.993 55.8354C175.993 53.139 181.136 47.7211 181.136 47.7211C182.534 46.0484 183.658 44.3256 184.456 45.2994L184.606 45.3493C185.28 45.599 185.655 47.7461 185.655 48.6449L184.931 57.0588C184.906 57.9326 184.232 59.0062 183.383 59.4806Z" fill="#3DECFF"/>
<path d="M185.828 48.0708L184.454 48.8448C182.607 49.9184 181.109 49.2942 181.109 47.4716V42.603L184.33 40.7555L185.828 48.0708Z" fill="#3DECFF"/>
<path d="M187.802 49.2196L186.279 59.6308C184.432 60.7044 183.083 50.4679 183.083 48.6204V43.7518L186.304 41.9043L187.802 49.2196Z" fill="#45CCB8"/>
<path d="M182.729 44.1018L180.757 42.9783V41.8797L182.729 43.0032V44.1018Z" fill="#6CB3C4"/>
<path d="M186.651 41.8294L182.732 44.1014V43.0029L186.651 40.7309V41.8294Z" fill="#85BFD1"/>
<path d="M177.466 47.6215C177.291 47.7713 177.241 47.5965 177.366 47.3219C178.415 44.8751 177.816 43.6517 179.164 41.5295C184.082 38.134 181.611 41.954 182.285 41.7293C180.113 41.3298 178.44 48.1458 178.44 48.1458C178.44 48.1458 177.616 47.7713 177.466 47.6215Z" fill="#79C7D3"/>
<path d="M178.415 48.1211C178.215 48.2709 178.19 48.0961 178.315 47.8215C179.364 45.3747 178.765 44.1514 180.113 42.0292C185.031 38.6337 182.56 42.4536 183.234 42.2289C181.062 41.8294 180.562 44.6257 179.164 47.2223C178.64 47.8964 178.515 48.0462 178.415 48.1211Z" fill="#6CB3C4"/>
<path d="M184.131 40.2068L180.461 42.4288C180.461 42.4288 179.338 41.505 178.514 41.3053C178.589 40.9308 178.614 39.5826 178.689 39.2081L186.154 35.8875C184.731 37.5852 184.206 39.283 184.131 40.2068Z" fill="#AADCE6"/>
<path d="M186.804 61.8276L181.561 64.8486C180.787 65.298 180.113 65.0983 180.038 64.3742L179.389 58.2074C179.389 55.511 183.059 48.8198 183.059 48.8198C184.457 47.147 187.229 46.9723 187.229 46.9723C188.627 47.6464 189.026 50.1181 189.026 51.0419L188.302 59.4807C188.327 60.2796 187.653 61.3532 186.804 61.8276Z" fill="#45CCB8"/>
<path d="M181.581 63.5256C181.481 63.5755 181.406 63.5506 181.406 63.4757L180.757 57.3837C180.807 55.9856 183.104 52.2655 184.727 50.0684C184.976 49.7938 185.276 49.5691 185.55 49.4193C186.075 49.1197 186.574 49.0198 186.949 49.1696L187.073 49.2196C187.348 49.4193 187.698 50.8674 187.723 51.7662L186.999 60.18V60.23C186.999 60.3298 186.924 60.4547 186.824 60.5296L181.581 63.5256Z" fill="#95D3E0"/>
<path d="M186.804 60.8543L181.561 63.8753C181.287 64.0251 181.062 63.9502 181.037 63.7005L180.388 57.5836V57.5587C180.463 55.9608 182.935 52.016 184.507 49.9188L184.582 49.8439C184.882 49.5443 185.207 49.2696 185.556 49.0699C186.155 48.7204 186.755 48.6205 187.179 48.7703L187.329 48.8452C187.678 49.1198 188.028 50.6428 188.028 51.5416L187.304 60.0054V60.0304C187.329 60.305 187.104 60.6795 186.804 60.8543ZM181.711 63.1263L186.655 60.28L187.354 51.9411C187.354 51.0673 186.979 49.7939 186.779 49.6192L186.68 49.5942C186.205 49.4194 185.481 49.719 184.882 50.3182C183.084 52.74 181.137 56.0606 181.062 57.2341L181.711 63.1263Z" fill="#0295AD"/>
<path d="M188.101 37.0356L180.636 41.3549V40.3562L187.252 36.5363L188.101 37.0356Z" fill="#BFE5EC"/>
<path d="M186.078 41.3297L183.881 42.6031C182.432 42.7778 181.259 42.653 180.435 42.4533C180.51 42.0788 180.485 41.7791 180.56 41.4046L188.075 37.0604C186.702 38.7332 186.177 40.406 186.078 41.3297Z" fill="#95D3E0"/>
<path d="M187.253 36.5363L180.637 40.3563L178.665 39.2328L185.306 35.3878L187.253 36.5363Z" fill="#D5EDF3"/>
<path d="M180.141 41.28C180.141 40.8306 179.817 40.2813 179.417 40.0566C179.193 39.9318 178.993 39.9318 178.868 40.0316L177.545 41.0303L177.969 41.7044L178.419 42.3536L179.767 41.7793C179.842 41.7793 179.892 41.7544 179.942 41.7044C180.092 41.6295 180.141 41.4797 180.141 41.28Z" fill="#709EA8"/>
<path d="M178.566 42.0286C178.566 42.3781 178.316 42.5279 177.992 42.3532C177.667 42.1784 177.417 41.729 177.417 41.3795C177.417 41.0299 177.667 40.8801 177.992 41.0549C178.316 41.2297 178.566 41.6791 178.566 42.0286Z" fill="#95D3E0"/>
<path d="M196.962 55.062V66.372C196.962 66.4219 196.962 66.4469 196.962 66.4968C196.912 67.0711 196.487 67.6703 195.713 68.1197C194.041 69.0934 191.319 69.0934 189.646 68.1197C188.872 67.6703 188.448 67.096 188.398 66.4968H188.373V55.062H196.962Z" fill="#FFAE30"/>
<path d="M196.962 54.7877C196.812 52.6905 194.79 51.9415 194.79 51.9415L194.291 52.6905C193.741 52.5656 193.142 52.4907 192.543 52.5157V52.4408L190.496 51.9415C190.496 51.9415 188.673 53.4894 188.473 54.4631C188.174 55.2621 188.573 56.1109 189.622 56.7351C191.295 57.7088 194.016 57.7088 195.689 56.7351C196.588 56.2108 196.987 55.5367 196.937 54.8626C196.962 54.8376 196.962 54.8127 196.962 54.7877Z" fill="#FFBE59"/>
<path d="M194.343 53.4639C193.818 54.2878 192.146 54.163 190.997 53.4639C190.073 52.9147 190.073 52.0658 190.997 51.5415C191.921 51.0172 193.419 51.0172 194.343 51.5415C195.291 52.0658 194.917 52.5651 194.343 53.4639Z" fill="#FFCE83"/>
<path d="M194.191 50.5677V52.1655C194.191 52.1905 194.191 52.1905 194.191 52.2155C194.166 52.4402 194.016 52.6399 193.741 52.7897C193.142 53.1393 192.143 53.1393 191.544 52.7897C191.269 52.6149 191.12 52.4152 191.095 52.2155V50.5677H194.191Z" fill="#FF5D0D"/>
<path d="M193.741 51.1671C193.142 51.5167 192.143 51.5167 191.544 51.1671C190.945 50.8176 190.945 50.2433 191.544 49.8938C192.143 49.5443 193.142 49.5443 193.741 49.8938C194.34 50.2433 194.34 50.8176 193.741 51.1671Z" fill="#FF884D"/>
<path d="M172.585 51.8165V71.9898C172.585 72.0397 172.585 72.0897 172.585 72.1146C172.535 72.7138 172.111 73.313 171.312 73.7625C169.589 74.7611 166.793 74.7611 165.07 73.7625C164.271 73.2881 163.847 72.7138 163.797 72.1146H163.772V51.8165H172.585Z" fill="#FFAE30"/>
<path d="M171.281 53.5389C169.558 54.5376 166.762 54.5376 165.064 53.5389C163.341 52.5403 163.341 50.9424 165.064 49.9437C166.786 48.945 169.583 48.945 171.281 49.9437C173.003 50.9424 173.003 52.5403 171.281 53.5389Z" fill="#1A4A5A"/>
<path d="M172.585 47.023V53.04C172.585 53.09 172.585 53.1399 172.585 53.1649C172.535 53.7641 172.111 54.3633 171.312 54.8127C169.589 55.8114 166.793 55.8114 165.07 54.8127C164.271 54.3383 163.847 53.7641 163.797 53.1649H163.772V47.023H172.585Z" fill="#FF7D3D"/>
<path d="M171.284 48.7456C169.561 49.7443 166.765 49.7443 165.067 48.7456C163.344 47.7469 163.344 46.149 165.067 45.1503C166.79 44.1517 169.586 44.1517 171.284 45.1503C173.007 46.1241 173.007 47.7469 171.284 48.7456Z" fill="#FF9E6E"/>
<path d="M176.563 73.2627L179.134 78.6306C179.933 79.08 183.229 76.5334 183.304 75.7844L183.953 69.6176C183.953 66.9211 178.81 61.5033 178.81 61.5033C177.436 59.8305 176.288 58.1078 175.489 59.0815L175.339 59.1314C174.665 59.3811 174.291 61.5283 174.291 62.4271L175.015 70.8659C175.04 71.7148 175.714 72.7884 176.563 73.2627Z" fill="#95D3E0"/>
<path d="M174.109 61.8781L175.483 62.677C177.33 63.7506 178.828 63.1264 178.828 61.3038V56.4353L175.607 54.5877L174.109 61.8781Z" fill="#AADCE6"/>
<path d="M172.138 63.0019L173.661 73.4131C175.509 74.4867 176.857 64.2502 176.857 62.4276V57.5591L173.636 55.7115L172.138 63.0019Z" fill="#79C7D3"/>
<path d="M177.204 57.9089L179.176 56.7604V55.6619L177.204 56.7854V57.9089Z" fill="#FF9764"/>
<path d="M173.288 55.6112L177.208 57.9082V56.7847L173.288 54.5127V55.6112Z" fill="#FFB28D"/>
<path d="M182.479 61.4043C182.679 61.5541 182.704 61.3793 182.579 61.1047C181.531 58.6579 182.13 57.4345 180.782 55.3123C175.863 51.9168 178.335 55.7617 177.661 55.5121C179.833 55.1126 181.506 61.9286 181.506 61.9286C181.506 61.9286 182.33 61.5541 182.479 61.4043Z" fill="#FFB48F"/>
<path d="M181.527 61.9033C181.727 62.0531 181.752 61.8783 181.627 61.6037C180.579 59.1569 181.178 57.9336 179.83 55.8114C174.911 52.4159 177.383 56.2358 176.709 56.0111C178.881 55.6116 179.38 58.4079 180.778 61.0045C181.303 61.6786 181.427 61.8284 181.527 61.9033Z" fill="#FF9764"/>
<path d="M175.813 53.9886L179.483 56.2106C179.483 56.2106 180.607 55.2868 181.431 55.0871C181.356 54.7126 181.331 53.3644 181.256 52.9899L173.791 49.6693C175.214 51.367 175.738 53.0648 175.813 53.9886Z" fill="#FF5D0D"/>
<path d="M173.14 75.6348L178.383 78.6558C179.157 79.1052 179.831 78.9055 179.906 78.1815L180.555 72.0146C180.555 69.3182 176.885 62.6021 176.885 62.6021C175.487 60.9293 172.715 60.7545 172.715 60.7545C171.317 61.4287 170.918 63.9004 170.918 64.8242L171.642 73.238C171.617 74.0869 172.291 75.1355 173.14 75.6348Z" fill="#79C7D3"/>
<path d="M178.357 77.3078C178.457 77.3578 178.532 77.3328 178.532 77.2579L179.181 71.166C179.131 69.7678 176.834 66.0478 175.211 63.8507C174.962 63.576 174.662 63.3513 174.387 63.2015C173.863 62.9019 173.364 62.802 172.989 62.9519L172.864 63.0018C172.59 63.2015 172.24 64.6496 172.215 65.5484L172.939 73.9623V74.0122C172.939 74.1121 173.014 74.2369 173.114 74.3118L178.357 77.3078Z" fill="#45CCB8"/>
<path d="M173.14 74.6361L178.383 77.6571C178.658 77.8069 178.883 77.732 178.907 77.4823L179.557 71.3654V71.3405C179.482 69.7426 177.01 65.7978 175.437 63.7006L175.362 63.6257C175.063 63.3261 174.738 63.0515 174.388 62.8517C173.789 62.5022 173.215 62.4023 172.766 62.5521L172.616 62.627C172.266 62.9017 171.917 64.4246 171.917 65.3235L172.641 73.7872V73.8122C172.616 74.1118 172.841 74.4613 173.14 74.6361ZM178.233 76.9081L173.29 74.0619L172.591 65.7229C172.591 64.8491 172.965 63.6007 173.165 63.401L173.265 63.376C173.739 63.2013 174.513 63.426 175.063 64.1001C176.935 66.2972 179.132 68.719 178.883 71.0159L178.233 76.9081Z" fill="#30EBFF"/>
<path d="M171.84 50.8178L179.305 55.1371V54.1384L172.688 50.3185L171.84 50.8178Z" fill="#FFBE59"/>
<path d="M173.867 55.1369L176.064 56.4102C177.512 56.585 178.686 56.4602 179.51 56.2355C179.435 55.861 179.46 55.5614 179.385 55.1869L171.87 50.8426C173.268 52.5154 173.767 54.2132 173.867 55.1369Z" fill="#FFAE30"/>
<path d="M172.691 50.3186L179.308 54.1386L181.28 53.015L174.639 49.1951L172.691 50.3186Z" fill="#FFCE83"/>
<path d="M179.809 55.0619C179.809 54.6125 180.134 54.0632 180.533 53.8385C180.758 53.7137 180.958 53.7137 181.082 53.8135L182.406 54.8122L181.981 55.4863L181.532 56.1355L180.184 55.5612C180.109 55.5612 180.059 55.5362 180.009 55.4863H179.984C179.859 55.4114 179.809 55.2616 179.809 55.0619Z" fill="#FF884D"/>
<path d="M181.384 55.8105C181.384 56.185 181.634 56.3098 181.959 56.135C182.283 55.9603 182.533 55.5109 182.533 55.1613C182.533 54.7868 182.283 54.662 181.959 54.8368C181.634 55.0115 181.384 55.4609 181.384 55.8105Z" fill="#FFC4A7"/>
<path d="M92.1492 52.5408C92.1492 52.5408 100.313 39.0087 104.058 37.7105C107.803 36.4122 109.976 40.7564 109.976 40.7564C109.976 40.7564 101.936 39.2334 98.4658 52.366C96.9678 58.0335 92.1492 52.5408 92.1492 52.5408Z" fill="#BBCDFF"/>
</svg>
