<svg width="192" height="220" viewBox="0 0 192 220" fill="none" xmlns="http://www.w3.org/2000/svg">
<path d="M181.465 198.371L179.333 197.139L178.488 193.942L180.27 192.913L181.465 198.371Z" fill="#EFA500"/>
<path d="M152.723 133.851L173.525 121.832L169.501 180.343L159.853 185.911L158.806 181.06L152.3 184.809L149.599 186.371L143.094 190.12L142.046 196.202L132.398 201.77L152.723 133.851Z" fill="#FED517"/>
<path d="M154.195 134.677L174.997 122.659L170.972 181.17L161.325 186.738L160.277 181.887L153.772 185.636L151.071 187.198L144.565 190.947L143.518 197.029L133.87 202.616L154.195 134.677Z" fill="#EFA500"/>
<path d="M155.886 135.707L176.689 123.688L191.096 192.821L181.467 198.389L180.401 193.519L173.895 197.286L171.212 198.83L164.707 202.579L163.641 208.662L154.012 214.23L155.886 135.707Z" fill="#FED517"/>
<path d="M155.884 135.707L152.723 133.851L132.398 201.77L133.869 202.616L154.175 134.751V134.769L152.3 213.237L154.009 214.23L155.884 135.707Z" fill="#FFCE00"/>
<path d="M173.527 121.832L176.688 123.688L155.885 135.707L152.725 133.851L173.527 121.832Z" fill="#FDE01A"/>
<path d="M174.318 129.753L172.738 130.671C172.811 133.207 172.315 137.728 168.291 140.632C167.96 140.87 166.324 141.826 165.994 141.955C164.597 142.561 163.402 142.598 162.41 142.304C163.66 143.351 165.405 143.939 167.758 142.91C168.088 142.782 169.724 141.826 170.055 141.587C175.899 137.397 174.318 129.753 174.318 129.753Z" fill="#FFB600"/>
<path d="M172.734 130.671L171.724 131.259C171.172 133.869 169.702 137.673 165.714 140.227C165.347 140.466 163.528 141.422 163.179 141.55C162.756 141.716 162.37 141.826 162.002 141.918C162.131 142.047 162.26 142.194 162.407 142.304C163.399 142.598 164.594 142.561 165.99 141.955C166.321 141.826 167.956 140.87 168.287 140.632C172.312 137.728 172.808 133.207 172.734 130.671Z" fill="#EFA500"/>
<path d="M165.714 140.209C169.702 137.655 171.172 133.851 171.723 131.241L169.536 132.491C168.654 134.659 167.111 137.048 164.317 138.812C163.95 139.051 162.131 140.007 161.781 140.135C161.451 140.264 161.157 140.356 160.844 140.448C161.157 140.944 161.524 141.422 161.965 141.881C162.333 141.789 162.719 141.679 163.141 141.514C163.527 141.403 165.346 140.448 165.714 140.209Z" fill="#FFB600"/>
<path d="M160.882 140.466C161.176 140.393 161.488 140.282 161.819 140.154C162.168 140.025 163.987 139.07 164.355 138.831C167.13 137.048 168.692 134.678 169.574 132.509L159.798 138.151C159.779 138.151 160.128 139.272 160.882 140.466Z" fill="white"/>
<path d="M161.361 155.902L162.445 155.278L162.997 158.383C163.107 159.082 163.217 159.78 163.327 160.497L163.364 160.478C163.401 159.688 163.456 158.879 163.493 158.089L163.768 154.506L164.669 153.991L165.386 156.987C165.533 157.648 165.661 158.347 165.808 159.045L165.845 159.026C165.863 158.236 165.863 157.446 165.882 156.693L165.974 153.22L166.984 152.631L166.635 160.129L165.312 160.883L164.632 157.961C164.522 157.464 164.43 156.932 164.338 156.435L164.301 156.454C164.283 157.005 164.265 157.611 164.228 158.2L164.007 161.636L162.703 162.389L161.361 155.902Z" fill="black"/>
<path d="M167.605 152.282L170.509 150.61L170.601 151.952L168.745 153.036L168.837 154.451L170.417 153.532L170.509 154.855L168.929 155.774L169.039 157.391L170.968 156.27L171.06 157.612L168.083 159.339L167.605 152.282Z" fill="black"/>
<path d="M172.513 150.849L171.245 151.584L171.154 150.242L174.774 148.166L174.866 149.507L173.579 150.242L173.965 155.939L172.899 156.546L172.513 150.849Z" fill="black"/>
<path d="M158.602 166.873L161.543 165.183L161.634 166.524L159.742 167.608L159.852 169.244L161.469 168.307L161.561 169.648L159.944 170.585L160.128 173.305L159.08 173.912L158.602 166.873Z" fill="black"/>
<path d="M162.35 164.705L163.397 164.098L163.783 169.795L165.621 168.729L165.712 170.071L162.827 171.743L162.35 164.705Z" fill="black"/>
<path d="M165.787 166.322C165.64 164.025 166.393 162.224 167.661 161.489C168.911 160.772 169.866 161.599 170.013 163.878C170.16 166.175 169.407 168.049 168.157 168.766C166.908 169.501 165.952 168.619 165.787 166.322ZM168.948 164.503C168.856 163.106 168.396 162.481 167.753 162.849C167.11 163.216 166.779 164.282 166.871 165.697C166.963 167.112 167.422 167.774 168.065 167.406C168.69 167.057 169.039 165.918 168.948 164.503Z" fill="black"/>
<path d="M170.681 163.51C170.534 161.213 171.288 159.412 172.556 158.677C173.805 157.961 174.761 158.788 174.908 161.066C175.055 163.363 174.301 165.238 173.052 165.954C171.784 166.689 170.828 165.807 170.681 163.51ZM173.824 161.691C173.732 160.294 173.272 159.67 172.629 160.037C171.986 160.405 171.655 161.471 171.747 162.886C171.839 164.301 172.298 164.962 172.942 164.595C173.585 164.227 173.916 163.106 173.824 161.691Z" fill="black"/>
<path d="M175.546 157.079L177.219 156.105C178.211 155.535 179.038 155.59 179.167 157.262C179.24 158.291 178.946 159.137 178.468 159.762L179.718 161.967L178.542 162.647L177.476 160.625L176.906 160.956L177.072 163.492L176.024 164.098L175.546 157.079ZM177.347 159.394C177.899 159.082 178.174 158.549 178.119 157.85C178.064 157.152 177.752 157.097 177.2 157.409L176.649 157.722L176.778 159.688L177.347 159.394Z" fill="black"/>
<path d="M177.682 186.408C177.167 186.518 176.873 186.555 176.377 186.941C176.285 185.856 175.734 183.504 175.55 182.824C174.852 181.666 173.437 181.593 172.463 181.428C172.573 180.454 172.297 180.215 172.059 179.204C171.875 178.451 171.82 178.248 171.893 177.624C171.967 176.962 172.555 176.227 172.794 175.584C173.492 173.581 173.382 171.651 172.683 170.181C172.628 170.071 172.481 170.181 172.481 170.346C172.389 171.982 173.032 172.699 172.316 175.088C171.911 175.621 171.507 176.209 171.085 177.017C170.919 177.348 170.772 177.844 170.625 178.101C170.497 177.844 170.423 177.789 170.405 177.642C170.46 177.458 170.607 177.33 170.607 177.109C170.625 176.448 170.019 175.731 169.78 175.712C169.817 175.547 169.945 175.308 169.817 175.033C169.67 175.363 169.449 175.547 169.302 175.657C169.082 175.804 168.843 176.043 168.696 176.374C168.457 176.889 168.549 177.348 168.769 177.568C168.604 177.844 168.714 178.285 168.898 178.524C169.137 178.855 169.67 178.322 169.706 178.322C169.78 178.506 169.872 178.947 169.89 179.167C169.798 179.351 169.596 179.59 169.394 179.921C169.026 180.49 168.806 181.134 168.567 181.869C168.236 182.861 168.052 184.239 167.813 185.323C167.685 185.93 167.391 186.536 167.336 187.143C167.225 188.227 167.428 188.503 167.648 188.153C167.997 187.584 167.997 186.077 168.144 185.636C168.365 184.901 168.604 184.202 168.898 183.357C169.155 182.585 169.523 181.758 169.945 181.299C170.166 181.795 170.221 183.228 170.809 183.412C170.754 184.074 170.809 184.496 170.993 185.176C171.213 185.967 171.764 186.61 172.022 187.767C171.801 189.458 171.82 190.138 171.342 192.049C170.974 192.417 170.938 192.95 171.195 193.336C171.673 194.107 172.114 194.273 172.812 193.777C172.922 193.703 172.977 193.483 172.904 193.372C172.683 193.042 172.205 192.564 171.893 192.417C172.205 191.682 173.161 188.833 173.308 187.712C173.418 186.757 173.088 185.176 172.665 183.706C173.124 184.202 174.117 184.405 174.741 184.294C174.907 185.654 175.568 186.83 175.752 187.712C175.679 188.3 175.844 188.65 176.065 188.558C176.634 188.227 177.277 187.767 177.7 186.941C177.847 186.702 177.81 186.389 177.682 186.408Z" fill="black"/>
<path d="M165.253 198.26L179.55 190.009L179.422 189.017L165.106 197.268L165.253 198.26Z" fill="black"/>
<path d="M35.6946 173.674C35.6946 170.053 37.8998 165.863 40.6011 164.301C41.2811 163.897 42.108 163.695 42.7512 163.713C43.2657 163.713 44.5521 163.769 45.8936 164.595C47.4372 165.551 47.6393 167.719 47.6393 167.719L42.1264 179.039C42.1264 179.039 40.3439 179.903 38.5246 178.911C37.3852 178.286 36.7053 177.257 36.3929 176.687C36.2643 176.43 36.0437 175.934 35.9886 175.75C35.7865 175.144 35.6946 174.445 35.6946 173.674Z" fill="black"/>
<path d="M47.7459 169.281C47.7459 172.902 45.5408 177.092 42.8394 178.654C40.1381 180.216 37.9329 178.562 37.9329 174.941C37.9329 171.321 40.1381 167.131 42.8394 165.569C45.5408 164.007 47.7459 165.661 47.7459 169.281Z" fill="#3F2A28"/>
<path d="M45.9324 170.715C45.9324 172.7 44.7379 174.997 43.2494 175.842C41.7609 176.706 40.5664 175.787 40.5664 173.802C40.5664 171.817 41.7609 169.52 43.2494 168.675C44.7196 167.811 45.9324 168.73 45.9324 170.715Z" fill="white"/>
<path d="M45.4517 164.118H42.2542V173.453C42.2542 174.059 42.4563 174.482 42.7503 174.703L43.8529 175.272L44.8269 174.115L44.5512 174.004C45.0841 173.343 45.4517 172.424 45.4517 171.597V164.118Z" fill="#D8C4C3"/>
<path d="M43.2278 164.118V173.949C43.2278 175.125 43.9445 175.658 44.8265 175.162C45.7086 174.647 46.4253 173.288 46.4253 172.111V164.118H43.2278Z" fill="#EDDCDA"/>
<path d="M85.8665 144.602C85.8665 140.982 88.0716 136.792 90.773 135.23C91.4529 134.825 92.2799 134.623 92.9231 134.642C93.4376 134.642 94.7239 134.697 96.0654 135.524C97.6091 136.479 97.8112 138.648 97.8112 138.648L92.2983 149.968C92.2983 149.968 90.5157 150.831 88.6964 149.839C87.5571 149.214 86.8771 148.185 86.5647 147.615C86.4361 147.358 86.2156 146.862 86.1604 146.678C85.9767 146.072 85.8665 145.392 85.8665 144.602Z" fill="black"/>
<path d="M97.9769 140.21C97.9769 143.83 95.7717 148.02 93.0703 149.582C90.369 151.144 88.1638 149.49 88.1638 145.87C88.1638 142.25 90.369 138.06 93.0703 136.498C95.7901 134.936 97.9769 136.608 97.9769 140.21Z" fill="#3F2A28"/>
<path d="M96.1042 141.643C96.1042 143.628 94.9097 145.925 93.4212 146.77C91.9327 147.634 90.7383 146.715 90.7383 144.73C90.7383 142.746 91.9327 140.449 93.4212 139.603C94.9097 138.758 96.1042 139.658 96.1042 141.643Z" fill="white"/>
<path d="M95.6416 135.046H92.4441V144.381C92.4441 144.988 92.6462 145.41 92.9402 145.631L94.0428 146.2L95.0168 145.043L94.7412 144.932C95.2741 144.271 95.6416 143.352 95.6416 142.525V135.046Z" fill="#D8C4C3"/>
<path d="M93.4177 135.046V144.877C93.4177 146.053 94.1344 146.586 95.0165 146.09C95.8986 145.576 96.6152 144.216 96.6152 143.04V135.046H93.4177Z" fill="#EDDCDA"/>
<path d="M3.6748 155.15C3.6748 151.53 5.87999 147.34 8.58135 145.778C9.26128 145.374 10.0882 145.171 10.7314 145.19C11.2459 145.19 12.5323 145.245 13.8738 146.072C15.4174 147.027 15.6196 149.196 15.6196 149.196L10.1066 160.516C10.1066 160.516 8.32406 161.38 6.50478 160.387C5.36544 159.762 4.68552 158.733 4.37312 158.164C4.24449 157.906 4.02397 157.41 3.96884 157.226C3.78507 156.62 3.6748 155.94 3.6748 155.15Z" fill="black"/>
<path d="M15.7857 150.758C15.7857 154.378 13.5806 158.568 10.8792 160.13C8.17784 161.692 5.97266 160.038 5.97266 156.418C5.97266 152.798 8.17784 148.608 10.8792 147.046C13.5806 145.484 15.7857 147.156 15.7857 150.758Z" fill="#3F2A28"/>
<path d="M13.9131 152.191C13.9131 154.176 12.7186 156.473 11.2301 157.318C9.74161 158.182 8.54712 157.263 8.54712 155.279C8.54712 153.294 9.74161 150.997 11.2301 150.151C12.7002 149.306 13.9131 150.207 13.9131 152.191Z" fill="white"/>
<path d="M13.4329 145.594H10.2354V154.929C10.2354 155.536 10.4375 155.958 10.7315 156.179L11.8341 156.749L12.8081 155.591L12.5324 155.481C13.0653 154.819 13.4329 153.9 13.4329 153.073V145.594Z" fill="#D8C4C3"/>
<path d="M11.2275 145.594V155.426C11.2275 156.602 11.9442 157.135 12.8263 156.638C13.7084 156.124 14.4251 154.764 14.4251 153.588V145.594H11.2275Z" fill="#EDDCDA"/>
<path d="M55.6182 70.6361L53.3762 72.0327V116.78L53.3946 116.761C53.4314 117.515 53.9092 117.845 54.4972 117.515C55.122 117.166 55.6182 116.192 55.6182 115.365C55.6182 115.31 55.5998 115.291 55.5998 115.236L55.6182 115.218V70.6361Z" fill="#D8C4C3"/>
<path d="M90.4419 126.85L73.076 116.908C69.364 114.758 63.704 114.538 60.4881 116.394L8.13324 146.623L8.15164 146.458H0.19458V153.478H0.212947C0.378336 154.801 1.40743 156.161 3.26346 157.226L26.3444 170.421C30.0565 172.571 35.7165 172.791 38.9324 170.935L97.0575 137.38C98.6011 136.479 99.2811 135.266 99.1892 133.998H99.2075V127.383L90.4419 126.85Z" fill="#EDDCDA"/>
<path d="M97.0562 130.636L38.9311 164.191C35.7152 166.047 30.0552 165.808 26.3431 163.677L3.26214 150.482C-0.449926 148.332 -0.854221 145.061 2.36168 143.205L60.4868 109.649C63.7027 107.793 69.3626 108.032 73.0747 110.164L96.1557 123.358C99.8677 125.508 100.272 128.779 97.0562 130.636Z" fill="#F4EBEA"/>
<path d="M44.1449 107.977C44.586 108.418 45.1373 108.749 45.6885 109.043C46.3685 103.567 48.3532 97.5209 51.5507 91.9712L55.1709 85.7048C54.7298 85.2086 54.0866 84.9881 53.4435 85.0616L49.9887 91.0524C46.8279 96.5102 44.8432 102.354 44.0347 107.775C44.0714 107.867 44.0898 107.922 44.1449 107.977Z" fill="#3F2A28"/>
<path d="M45.5256 126.777C45.5256 128.596 46.3526 130.305 47.8043 131.83L47.1979 122.403C46.1321 123.744 45.5256 125.215 45.5256 126.777Z" fill="#D3BCBA"/>
<path d="M86.0654 122.403L85.459 131.812C86.8924 130.286 87.7193 128.577 87.7193 126.777C87.7193 125.215 87.1312 123.744 86.0654 122.403Z" fill="#D3BCBA"/>
<path d="M45.5251 96.6205L47.1974 122.403L47.8038 131.83C51.277 135.487 58.3888 138.005 66.6215 138.005C74.8542 138.005 81.9843 135.487 85.4575 131.83L86.0639 122.421L87.7177 96.6389H45.5251V96.6205Z" fill="#FFB600"/>
<path d="M66.621 85.3924C54.9702 85.3924 45.5247 90.4092 45.5247 96.6205C45.5247 102.813 54.9702 107.849 66.621 107.849C78.2717 107.849 87.7172 102.832 87.7172 96.6205C87.7172 90.4276 78.2717 85.3924 66.621 85.3924Z" fill="#FDE01A"/>
<path d="M66.6218 94.2316C74.928 94.2316 82.0581 96.8227 85.0535 100.516C86.0274 99.3219 86.5787 97.9988 86.5787 96.6205C86.5787 90.9973 77.6477 86.4399 66.6218 86.4399C55.5958 86.4399 46.6648 90.9973 46.6648 96.6205C46.6648 97.9988 47.2161 99.3219 48.1901 100.516C51.1855 96.8227 58.3156 94.2316 66.6218 94.2316Z" fill="#FFB600"/>
<path d="M66.6192 106.801C74.9254 106.801 82.0555 104.21 85.0509 100.516C82.0555 96.8226 74.9254 94.2315 66.6192 94.2315C58.313 94.2315 51.1829 96.8226 48.1875 100.516C51.1829 104.21 58.313 106.801 66.6192 106.801Z" fill="#AA83E2"/>
<path d="M75.8279 91.0707C75.8279 91.4934 75.4971 91.8242 75.0744 91.8242C74.6518 91.8242 74.321 91.4934 74.321 91.0707C74.321 90.6481 74.6518 90.3173 75.0744 90.3173C75.4971 90.3173 75.8279 90.6665 75.8279 91.0707Z" fill="white"/>
<path d="M73.1833 102.372C73.1833 102.795 72.8526 103.126 72.43 103.126C72.0073 103.126 71.6765 102.795 71.6765 102.372C71.6765 101.95 72.0073 101.619 72.43 101.619C72.8342 101.619 73.1833 101.95 73.1833 102.372Z" fill="white"/>
<path d="M63.2613 95.2973C63.0224 94.8379 62.3424 93.9926 61.6992 93.9007C61.8646 92.8165 61.4971 91.7139 60.3394 91.1442C59.0714 90.5194 56.8478 91.2912 56.6089 92.6511C56.1679 92.2652 55.5431 92.1365 54.9183 92.4306C54.0546 92.8532 53.8892 93.6067 54.073 94.3601C52.952 94.0845 51.6289 94.5071 51.1327 95.5913C50.8019 96.308 51.1144 97.5576 51.7943 97.9803C51.3165 98.697 51.5186 99.8179 52.4558 100.388C53.246 100.865 54.2016 100.774 54.9183 100.332C55.4696 100.865 56.2231 101.178 57.0868 101.068C57.8953 100.957 58.6488 100.461 59.0347 99.7261C60.3578 100.075 61.8646 99.4136 62.8202 98.5316C63.8861 97.5392 63.9228 96.5285 63.2613 95.2973Z" fill="white"/>
<path d="M83.5663 95.8854C83.1988 95.72 82.6475 95.6098 82.1697 95.6833C82.188 94.7828 81.7286 93.9559 80.7179 93.5516C80.1482 93.3311 79.4867 93.4046 79.0089 93.6986C78.77 93.0922 78.0717 92.6511 77.3917 92.6327C76.7669 92.6144 76.4362 93.1657 76.3443 93.7537C75.6092 93.1657 74.3964 92.8165 73.7164 92.9451C72.8527 93.1105 72.1177 93.6251 71.8604 94.3417C71.0886 93.6802 69.5817 93.7537 69.012 94.599C68.1851 95.8119 69.6552 96.5102 70.7762 96.9145C70.5557 97.1166 70.3903 97.3555 70.2984 97.6679C70.0595 98.5684 70.7211 99.285 71.5113 99.5974C72.3934 99.9282 73.4224 99.8364 74.2494 99.3586C74.3413 100.369 74.9844 101.031 76.3627 101.012C76.8588 100.994 77.4469 100.774 77.9247 100.443C78.3106 101.564 79.2846 102.391 80.6812 102.391C81.3611 102.391 82.3534 102.115 82.7945 101.564C83.0517 101.233 83.1988 100.737 83.2723 100.241C83.5479 100.186 83.8235 100.094 84.0441 99.9466C84.7424 99.5056 85.1467 98.6603 85.0364 97.8333C84.9445 96.9696 84.3381 96.2162 83.5663 95.8854Z" fill="white"/>
<path d="M65.4061 91.0707C65.4061 91.6771 64.91 92.1733 64.3035 92.1733C63.6971 92.1733 63.2009 91.6771 63.2009 91.0707C63.2009 90.4643 63.6971 89.9681 64.3035 89.9681C64.9283 89.9681 65.4061 90.4643 65.4061 91.0707Z" fill="white"/>
<path d="M51.35 93.478C51.35 94.0845 50.8538 94.5806 50.2474 94.5806C49.641 94.5806 49.1448 94.0845 49.1448 93.478C49.1448 92.8716 49.641 92.3755 50.2474 92.3755C50.8538 92.3755 51.35 92.8716 51.35 93.478Z" fill="white"/>
<path d="M67.6864 103.144C68.7622 103.144 69.6343 102.272 69.6343 101.196C69.6343 100.12 68.7622 99.2483 67.6864 99.2483C66.6106 99.2483 65.7385 100.12 65.7385 101.196C65.7385 102.272 66.6106 103.144 67.6864 103.144Z" fill="white"/>
<path d="M64.8586 102.905C64.8586 103.64 64.2706 104.228 63.5355 104.228C62.8005 104.228 62.2124 103.64 62.2124 102.905C62.2124 102.17 62.8005 101.582 63.5355 101.582C64.2522 101.582 64.8586 102.17 64.8586 102.905Z" fill="white"/>
<path d="M71.049 90.6665C71.049 91.2913 70.5344 91.8058 69.9096 91.8058C69.2848 91.8058 68.7703 91.2913 68.7703 90.6665C68.7703 90.0416 69.2848 89.5271 69.9096 89.5271C70.5344 89.5271 71.049 90.0416 71.049 90.6665Z" fill="white"/>
<path d="M52.8572 91.4199C52.8572 91.8425 52.5264 92.1733 52.1037 92.1733C51.6811 92.1733 51.3503 91.8425 51.3503 91.4199C51.3503 90.9972 51.6811 90.6664 52.1037 90.6664C52.5264 90.6664 52.8572 90.9972 52.8572 91.4199Z" fill="white"/>
<path d="M69.1927 88.7736C69.1927 89.1963 68.8619 89.5271 68.4392 89.5271C68.0166 89.5271 67.6858 89.1963 67.6858 88.7736C67.6858 88.351 68.0166 88.0202 68.4392 88.0202C68.8619 88.0202 69.1927 88.351 69.1927 88.7736Z" fill="white"/>
<path d="M58.1094 103.163C58.1094 103.585 57.7786 103.916 57.356 103.916C56.9333 103.916 56.6025 103.585 56.6025 103.163C56.6025 102.74 56.9333 102.409 57.356 102.409C57.7786 102.409 58.1094 102.74 58.1094 103.163Z" fill="white"/>
<path d="M78.4411 102.262C79.5169 102.262 80.389 101.39 80.389 100.314C80.389 99.2383 79.5169 98.3662 78.4411 98.3662C77.3653 98.3662 76.4932 99.2383 76.4932 100.314C76.4932 101.39 77.3653 102.262 78.4411 102.262Z" fill="#3F2A28"/>
<path d="M82.9225 97.3739L82.2241 96.8777C82.1874 96.841 82.1323 96.8042 82.0771 96.7858L82.0036 96.7307L81.9852 96.7491C81.5442 96.5102 80.9929 96.5286 80.3865 96.8777C79.0082 97.6863 77.8689 99.8547 77.8689 101.692V105.349L78.7326 105.845C79.3023 105.349 82.9225 103.916 82.9225 102.06V98.7705C82.9225 98.403 82.8673 98.1089 82.7938 97.8149L82.9225 97.3739ZM80.4232 102.464C80.2027 102.593 80.019 102.63 79.8352 102.648C79.7801 102.446 79.7249 102.244 79.7249 101.986C79.7249 100.737 80.4784 99.285 81.4156 98.7521C81.6177 98.6235 81.8199 98.5867 82.0036 98.5683C82.0588 98.7705 82.1139 98.9726 82.1139 99.2299C82.1323 100.48 81.3604 101.931 80.4232 102.464Z" fill="#FDE01A"/>
<path d="M81.249 97.4841C79.8708 98.2927 78.7314 100.461 78.7314 102.299V105.827L83.7666 103.732V99.3953C83.785 97.5392 82.6456 96.6756 81.249 97.4841ZM80.4221 102.464C80.2015 102.593 80.0178 102.63 79.8341 102.648C79.7789 102.446 79.7237 102.244 79.7237 101.986C79.7237 100.737 80.4772 99.285 81.4144 98.7521C81.6166 98.6235 81.8187 98.5867 82.0025 98.5683C82.0576 98.7705 82.1127 98.9726 82.1127 99.2299C82.1311 100.48 81.3593 101.931 80.4221 102.464Z" fill="#FFB600"/>
<path d="M82.0249 98.5684C82.08 98.7706 82.1352 98.9727 82.1352 99.23C82.1352 100.48 81.3817 101.931 80.4445 102.464C80.224 102.593 80.0402 102.63 79.8564 102.648C80.077 103.401 80.7018 103.695 81.4369 103.273C82.3741 102.74 83.1275 101.288 83.1275 100.039C83.1275 99.0646 82.668 98.5133 82.0249 98.5684Z" fill="#FDE01A"/>
<path d="M55.6214 81.57L54.9231 81.0739C54.8864 81.0371 54.8313 81.0004 54.7761 80.982L54.7026 80.9269L54.6843 80.9452C54.2432 80.7064 53.6919 80.7247 53.0855 81.0739C51.6888 81.8825 50.5679 84.0509 50.5679 85.8885V89.5455L51.4316 90.0416C52.0012 89.5455 55.6214 88.1121 55.6214 86.2561V82.9667C55.6214 82.5991 55.5663 82.3051 55.4928 82.0111L55.6214 81.57ZM53.1406 86.6604C52.9385 86.789 52.7363 86.8257 52.5526 86.8441C52.4974 86.642 52.4423 86.4398 52.4423 86.1826C52.4423 84.933 53.1957 83.4812 54.1329 82.9483C54.3351 82.8197 54.5372 82.7829 54.721 82.7645C54.7761 82.9667 54.8312 83.1688 54.8312 83.4261C54.8312 84.6757 54.0778 86.1274 53.1406 86.6604Z" fill="#FFB600"/>
<path d="M53.9626 81.6804C52.5844 82.4889 51.4451 84.6573 51.4451 86.495V90.0233L56.4986 87.8549V83.5915C56.4802 81.7355 55.3409 80.8718 53.9626 81.6804ZM53.1357 86.6604C52.9336 86.789 52.7314 86.8258 52.5477 86.8442C52.4925 86.642 52.4374 86.4399 52.4374 86.1826C52.4374 84.933 53.1908 83.4812 54.128 82.9483C54.3302 82.8197 54.5323 82.7829 54.7161 82.7646C54.7712 82.9667 54.8264 83.1688 54.8264 83.4261C54.8264 84.6757 54.0729 86.1275 53.1357 86.6604Z" fill="#FFB600"/>
<path d="M54.7163 82.7645C54.7714 82.9667 54.8265 83.1688 54.8265 83.4261C54.8265 84.6757 54.0731 86.1274 53.1359 86.6604C52.9338 86.789 52.7316 86.8257 52.5479 86.8441C52.7684 87.5976 53.3931 87.8916 54.1282 87.4689C55.0654 86.936 55.8189 85.4843 55.8189 84.2346C55.8189 83.2607 55.3595 82.7094 54.7163 82.7645Z" fill="#FDE01A"/>
<path d="M73.9188 111.818C69.1225 120.142 62.4334 125.931 56.4978 126.923C53.7413 127.383 51.4075 126.795 49.5147 125.159C45.5821 121.76 44.5346 114.372 46.1517 106.195C46.0047 103.898 45.9312 102.648 45.7475 100.498C42.2008 111.322 42.9542 121.907 48.3202 126.537C50.1211 128.1 52.3263 128.89 54.7704 128.89C55.4319 128.89 56.1119 128.835 56.7918 128.724C63.2604 127.64 70.4272 121.502 75.4991 112.718L81.4531 102.391C81.986 101.233 81.7104 100.498 80.3322 99.8731C79.8176 100.608 79.7257 101.729 79.7257 101.729L73.9188 111.818Z" fill="#3F2A28"/>
<path d="M54.6366 88.3878C55.7124 88.3878 56.5845 87.5156 56.5845 86.4398C56.5845 85.364 55.7124 84.4919 54.6366 84.4919C53.5608 84.4919 52.6887 85.364 52.6887 86.4398C52.6887 87.5156 53.5608 88.3878 54.6366 88.3878Z" fill="#3F2A28"/>
<path d="M31.966 84.6202L21.2524 132.216L32.6643 126.464L44.7929 119.223L33.8404 83.536L31.966 84.6202ZM28.5663 108.216C28.8971 106.929 29.3749 106.176 30.6613 105.441C31.525 104.945 32.9399 104.118 32.9399 104.118C32.9399 104.118 34.355 103.309 35.2187 102.813C36.505 102.078 36.9828 102.262 37.3136 103.162C37.92 104.871 38.4346 107.132 38.4346 107.132L32.9399 110.292L27.4454 113.453C27.4454 113.49 27.9599 110.641 28.5663 108.216ZM24.6338 127.64C24.6338 127.64 25.4056 123.34 26.3244 119.664C26.8206 117.716 27.5556 116.595 29.4852 115.474C30.7899 114.721 32.9216 113.471 32.9216 113.471C32.9216 113.471 35.0533 112.259 36.358 111.487C38.3059 110.366 39.041 110.641 39.5188 112.02C40.456 114.611 41.2094 118.047 41.2094 118.047L32.9032 122.844L24.6338 127.64Z" fill="#D8C4C3"/>
<path d="M38.4324 107.15L40.6927 108.602L39.6452 102.354L37.3481 102.96L38.4324 107.15Z" fill="#C9B2B1"/>
<path d="M41.2439 118.048L39.4062 111.469L42.6589 112.259L43.5042 119.499L41.2439 118.048Z" fill="#C9B2B1"/>
<path d="M23.5128 133.686L21.2524 132.234L31.966 84.6207L34.2447 86.0724L23.5128 133.686Z" fill="#D8C4C3"/>
<path d="M36.1753 84.9514L34.2457 86.0724L31.967 84.6207L33.915 83.4997L36.1753 84.9514Z" fill="#F4EBEA"/>
<path d="M34.2453 86.0724L23.5317 133.668L35.2193 126.924L46.9067 120.179L36.1932 84.9515L34.2453 86.0724ZM41.8164 113.49C42.7537 116.081 43.5071 119.518 43.5071 119.518L35.2009 124.314L26.8947 129.11C26.8947 129.11 27.6665 124.81 28.5853 121.135C29.0815 119.187 29.8165 118.066 31.7461 116.945C33.0508 116.192 35.1825 114.942 35.1825 114.942C35.1825 114.942 37.3141 113.729 38.6189 112.957C40.5852 111.836 41.3203 112.112 41.8164 113.49ZM39.5745 104.633C40.1809 106.342 40.6954 108.602 40.6954 108.602L35.2009 111.763L29.7063 114.924C29.7063 114.924 30.2208 112.075 30.8272 109.65C31.158 108.363 31.6358 107.61 32.9222 106.875C33.7859 106.379 35.2009 105.552 35.2009 105.552C35.2009 105.552 36.6158 104.743 37.4795 104.247C38.7659 103.53 39.2621 103.714 39.5745 104.633Z" fill="#EDDCDA"/>
<path d="M69.3295 105.147C69.3295 105.147 36.5272 86.0907 36.5089 86.0907C36.1965 85.8702 35.7371 85.8518 35.2593 86.1275L69.1089 105.662L69.3295 105.147Z" fill="#B88FF2"/>
<path d="M33.6807 88.4245L68.0816 108.29L68.6697 106.819L34.379 87.0279C34.085 87.4322 33.8277 87.91 33.6807 88.4245Z" fill="#B88FF2"/>
<path d="M34.0807 90.9789L67.2871 110.238L67.6179 109.411L33.511 89.7109C33.5477 90.3173 33.7499 90.7767 34.0807 90.9789Z" fill="#B88FF2"/>
<path d="M33.4778 89.5639C33.4778 89.619 33.4961 89.6558 33.5145 89.7293L67.6214 109.429L68.0808 108.308L33.6799 88.4429C33.5696 88.8105 33.4778 89.1964 33.4778 89.5639Z" fill="#A876E2"/>
<path d="M35.2783 86.1458C34.9476 86.3296 34.6535 86.6604 34.3962 87.0095L68.6869 106.801L69.1463 105.68L35.2783 86.1458Z" fill="#A876E2"/>
<path d="M66.5674 108.749C66.5674 110.072 67.376 110.679 68.3499 110.109C69.3422 109.539 70.1324 108.014 70.1324 106.691C70.1324 105.368 69.3239 104.761 68.3499 105.331C67.3576 105.901 66.5674 107.426 66.5674 108.749Z" fill="#EDDCDA"/>
<path d="M66.3454 104.301L55.6318 151.897L67.0437 146.145L79.1722 138.904L68.2198 103.217L66.3454 104.301ZM62.9457 127.897C63.2765 126.611 63.7543 125.857 65.0406 125.122C65.9043 124.626 67.3193 123.799 67.3193 123.799C67.3193 123.799 68.7343 122.99 69.598 122.494C70.8844 121.759 71.3622 121.943 71.6929 122.843C72.2994 124.552 72.8139 126.813 72.8139 126.813L67.3193 129.973L61.8247 133.134C61.8247 133.171 62.3209 130.323 62.9457 127.897ZM59.0131 147.339C59.0131 147.339 59.785 143.039 60.7038 139.364C61.2 137.416 61.935 136.295 63.8646 135.174C65.1693 134.421 67.301 133.171 67.301 133.171C67.301 133.171 69.4326 131.958 70.7374 131.186C72.6853 130.065 73.4204 130.341 73.8981 131.719C74.8354 134.31 75.5888 137.747 75.5888 137.747L67.2826 142.543L59.0131 147.339Z" fill="#D8C4C3"/>
<path d="M72.7932 126.832L75.0719 128.283L74.0245 122.054L71.709 122.642L72.7932 126.832Z" fill="#C9B2B1"/>
<path d="M75.627 137.747L73.7893 131.15L77.0419 131.94L77.8872 139.199L75.627 137.747Z" fill="#C9B2B1"/>
<path d="M57.892 153.367L55.6133 151.916L66.3452 104.302L68.6055 105.754L57.892 153.367Z" fill="#D8C4C3"/>
<path d="M70.5508 104.633L68.6029 105.754L66.3425 104.302L68.2721 103.181L70.5508 104.633Z" fill="#F4EBEA"/>
<path d="M68.6061 105.754L57.8926 153.349L69.58 146.605L81.2676 139.861L70.554 104.633L68.6061 105.754ZM76.1956 133.172C77.1328 135.763 77.8862 139.199 77.8862 139.199L69.58 143.995L61.2739 148.792C61.2739 148.792 62.0456 144.492 62.9645 140.816C63.4606 138.868 64.1957 137.747 66.1252 136.626C67.43 135.873 69.5617 134.623 69.5617 134.623C69.5617 134.623 71.6934 133.41 72.9981 132.639C74.9644 131.518 75.6995 131.793 76.1956 133.172ZM73.9537 124.314C74.5601 126.023 75.0746 128.283 75.0746 128.283L69.58 131.444L64.0855 134.605C64.0855 134.605 64.6 131.757 65.2064 129.331C65.5372 128.045 66.015 127.291 67.3014 126.556C68.1651 126.06 69.58 125.233 69.58 125.233C69.58 125.233 70.995 124.424 71.8587 123.928C73.1451 123.211 73.6229 123.395 73.9537 124.314Z" fill="#EDDCDA"/>
<path d="M115.011 49.4846L89.7802 35.2244C86.0681 33.0927 80.5368 32.1371 77.376 36.8967L40.8066 88.59L42.5524 89.6007L78.7542 38.4219C81.1616 34.765 85.719 35.206 88.7511 36.9702L113.982 51.2304C114.809 51.7082 115.783 52.5168 115.783 53.7112C115.783 54.9241 115.048 55.7878 113.688 57.8643L69.7681 119.904C69.4006 120.363 69.1249 121.025 69.1249 121.613C69.1249 122.44 69.6211 122.826 70.2459 122.458C70.4848 122.329 70.687 122.072 70.8707 121.815L70.8891 121.833L115.066 59.3896C116.775 57.0741 117.786 55.6224 117.786 53.7112C117.823 52.039 116.831 50.5321 115.011 49.4846Z" fill="#D8C4C3"/>
<path d="M91.9297 91.4016L89.6877 92.7982V137.545L89.7061 137.527C89.7429 138.28 90.2207 138.611 90.8087 138.28C91.4335 137.931 91.9297 136.957 91.9297 136.13C91.9297 136.075 91.9113 136.057 91.9113 136.001L91.9297 135.983V91.4016Z" fill="#D8C4C3"/>
<path d="M89.0657 31.8982C88.6614 31.7145 88.1653 31.7512 87.6324 32.0636C86.346 32.7987 85.3169 34.7833 85.3169 36.4924C85.3169 37.4479 85.6477 38.0911 86.1439 38.3668L89.4884 40.2412L111.448 52.9578L114.297 46.4341C114.334 46.4709 89.0657 31.8982 89.0657 31.8982Z" fill="#FF61AD"/>
<path d="M110.623 51.0834C110.623 52.7924 111.671 53.5826 112.939 52.8475C114.225 52.1125 115.254 50.1278 115.254 48.4188C115.254 46.7098 114.207 45.9196 112.939 46.6546C111.652 47.3897 110.623 49.3744 110.623 51.0834Z" fill="#F445A1"/>
<path d="M113.706 48.768C113.595 48.6945 113.448 48.6945 113.265 48.7863C112.897 49.0069 112.603 49.5582 112.603 50.0543C112.603 50.3116 112.677 50.477 112.805 50.5689L114.551 51.598L115.378 49.7419L113.706 48.768Z" fill="#D8C4C3"/>
<path d="M10.0629 127.677C10.5039 128.118 11.0552 128.449 11.6065 128.743C12.2864 123.266 14.2711 117.221 17.4686 111.671L21.0888 105.404C20.6478 104.908 20.0046 104.688 19.3614 104.761L15.9067 110.752C12.7459 116.21 10.7612 122.054 9.95264 127.475C9.98939 127.548 10.0261 127.622 10.0629 127.677Z" fill="#3F2A28"/>
<path d="M11.4651 146.458C11.4651 148.277 12.292 149.986 13.7438 151.511L13.1373 142.084C12.0531 143.426 11.4651 144.914 11.4651 146.458Z" fill="#D3BCBA"/>
<path d="M51.9863 142.084L51.3799 151.493C52.8133 149.968 53.6402 148.259 53.6402 146.458C53.6402 144.914 53.0522 143.444 51.9863 142.084Z" fill="#D3BCBA"/>
<path d="M11.4651 116.32L13.1373 142.102L13.7438 151.53C17.2169 155.187 24.3287 157.704 32.5614 157.704C40.7941 157.704 47.9242 155.187 51.3974 151.53L52.0038 142.121L53.6577 116.338H11.4651V116.32Z" fill="#F445A1"/>
<path d="M32.5592 105.092C20.9084 105.092 11.4629 110.109 11.4629 116.32C11.4629 122.513 20.9084 127.548 32.5592 127.548C44.2099 127.548 53.6555 122.531 53.6555 116.32C53.6371 110.109 44.1916 105.092 32.5592 105.092Z" fill="#FF76BE"/>
<path d="M32.5597 113.931C40.8659 113.931 47.9961 116.522 50.9914 120.216C51.9654 119.021 52.5167 117.698 52.5167 116.32C52.5167 110.697 43.5857 106.139 32.5597 106.139C21.5338 106.139 12.6028 110.697 12.6028 116.32C12.6028 117.698 13.1541 119.021 14.128 120.216C17.1234 116.522 24.2352 113.931 32.5597 113.931Z" fill="#FF61AD"/>
<path d="M32.5623 126.501C40.8685 126.501 47.9986 123.91 50.994 120.216C47.9986 116.522 40.8685 113.931 32.5623 113.931C24.2561 113.931 17.126 116.522 14.1306 120.216C17.126 123.891 24.2377 126.501 32.5623 126.501Z" fill="#AA83E2"/>
<path d="M41.7461 110.77C41.7461 111.193 41.4154 111.524 40.9927 111.524C40.57 111.524 40.2393 111.193 40.2393 110.77C40.2393 110.348 40.57 110.017 40.9927 110.017C41.4154 110.017 41.7461 110.348 41.7461 110.77Z" fill="white"/>
<path d="M39.1016 122.072C39.1016 122.495 38.7708 122.825 38.3482 122.825C37.9255 122.825 37.5947 122.495 37.5947 122.072C37.5947 121.649 37.9255 121.318 38.3482 121.318C38.7708 121.3 39.1016 121.649 39.1016 122.072Z" fill="white"/>
<path d="M29.1795 114.979C28.9406 114.519 28.2606 113.674 27.6175 113.582C27.7828 112.498 27.4153 111.395 26.2576 110.825C24.9896 110.201 22.766 110.972 22.5271 112.332C22.0861 111.946 21.4613 111.818 20.8365 112.112C19.9728 112.534 19.8074 113.288 19.9912 114.041C18.8702 113.766 17.5471 114.188 17.0509 115.273C16.7201 115.989 17.0325 117.239 17.7125 117.661C17.2347 118.378 17.4368 119.499 18.374 120.069C19.1642 120.547 20.1198 120.455 20.8365 120.014C21.3878 120.547 22.1412 120.859 23.0049 120.749C23.8135 120.639 24.5669 120.142 24.9529 119.407C26.276 119.756 27.7828 119.095 28.7384 118.213C29.8043 117.239 29.841 116.21 29.1795 114.979Z" fill="white"/>
<path d="M49.4992 115.567C49.1316 115.401 48.5803 115.291 48.1025 115.364C48.1209 114.464 47.6615 113.637 46.6508 113.233C46.0811 113.012 45.4195 113.086 44.9418 113.38C44.7029 112.773 44.0045 112.332 43.3246 112.314C42.6998 112.296 42.3691 112.847 42.2772 113.435C41.5421 112.847 40.3292 112.498 39.6493 112.626C38.7856 112.792 38.0506 113.306 37.7933 114.023C37.0215 113.361 35.5146 113.435 34.9449 114.28C34.1179 115.493 35.5881 116.191 36.7091 116.596C36.4886 116.798 36.3232 117.037 36.2313 117.349C35.974 118.25 36.6539 118.966 37.4441 119.279C38.3262 119.609 39.3553 119.518 40.1822 119.04C40.2741 120.05 40.9173 120.712 42.2955 120.694C42.7917 120.675 43.3797 120.455 43.8575 120.124C44.2434 121.245 45.2174 122.072 46.614 122.072C47.294 122.072 48.2863 121.796 48.7273 121.245C48.9846 120.914 49.1316 120.418 49.2051 119.922C49.4808 119.867 49.7565 119.775 49.977 119.628C50.6753 119.187 51.0795 118.341 50.9693 117.515C50.859 116.669 50.271 115.916 49.4992 115.567Z" fill="white"/>
<path d="M31.3465 110.77C31.3465 111.377 30.8504 111.873 30.2439 111.873C29.6375 111.873 29.1414 111.377 29.1414 110.77C29.1414 110.164 29.6375 109.668 30.2439 109.668C30.8504 109.668 31.3465 110.164 31.3465 110.77Z" fill="white"/>
<path d="M17.2682 113.178C17.2682 113.784 16.772 114.28 16.1656 114.28C15.5592 114.28 15.063 113.784 15.063 113.178C15.063 112.571 15.5592 112.075 16.1656 112.075C16.772 112.075 17.2682 112.571 17.2682 113.178Z" fill="white"/>
<path d="M33.6083 122.844C34.6841 122.844 35.5562 121.972 35.5562 120.896C35.5562 119.82 34.6841 118.948 33.6083 118.948C32.5325 118.948 31.6604 119.82 31.6604 120.896C31.6604 121.972 32.5325 122.844 33.6083 122.844Z" fill="white"/>
<path d="M30.7768 122.605C30.7768 123.34 30.1888 123.928 29.4537 123.928C28.7187 123.928 28.1306 123.34 28.1306 122.605C28.1306 121.87 28.7187 121.282 29.4537 121.282C30.1704 121.282 30.7768 121.87 30.7768 122.605Z" fill="white"/>
<path d="M36.9672 110.366C36.9672 110.991 36.4526 111.505 35.8278 111.505C35.203 111.505 34.6885 110.991 34.6885 110.366C34.6885 109.741 35.203 109.227 35.8278 109.227C36.4526 109.227 36.9672 109.741 36.9672 110.366Z" fill="white"/>
<path d="M18.7754 111.119C18.7754 111.542 18.4447 111.873 18.022 111.873C17.5993 111.873 17.2686 111.542 17.2686 111.119C17.2686 110.697 17.5993 110.366 18.022 110.366C18.4447 110.366 18.7754 110.697 18.7754 111.119Z" fill="white"/>
<path d="M35.1295 108.473C35.1295 108.896 34.7987 109.227 34.376 109.227C33.9533 109.227 33.6226 108.896 33.6226 108.473C33.6226 108.051 33.9533 107.72 34.376 107.72C34.7803 107.72 35.1295 108.051 35.1295 108.473Z" fill="white"/>
<path d="M24.0276 122.862C24.0276 123.285 23.6969 123.616 23.2742 123.616C22.8515 123.616 22.5208 123.285 22.5208 122.862C22.5208 122.439 22.8515 122.109 23.2742 122.109C23.6969 122.09 24.0276 122.439 24.0276 122.862Z" fill="white"/>
<path d="M44.3529 121.962C45.4287 121.962 46.3009 121.09 46.3009 120.014C46.3009 118.938 45.4287 118.066 44.3529 118.066C43.2771 118.066 42.405 118.938 42.405 120.014C42.405 121.09 43.2771 121.962 44.3529 121.962Z" fill="#3F2A28"/>
<path d="M48.8277 117.055L48.1295 116.559C48.0927 116.522 48.0375 116.486 47.9824 116.467L47.9089 116.412L47.8906 116.43C47.4495 116.191 46.8982 116.21 46.2918 116.559C44.9136 117.368 43.7742 119.536 43.7742 121.374V125.031L44.6379 125.527C45.2075 125.031 48.8277 123.597 48.8277 121.741V118.452C48.8277 118.084 48.7726 117.79 48.6991 117.496L48.8277 117.055ZM46.3469 122.164C46.1448 122.292 45.9426 122.329 45.7589 122.348C45.7037 122.145 45.6486 121.943 45.6486 121.686C45.6486 120.436 46.402 118.985 47.3392 118.452C47.5597 118.323 47.7435 118.286 47.9273 118.268C47.9824 118.47 48.0375 118.672 48.0375 118.93C48.0375 120.179 47.2841 121.631 46.3469 122.164Z" fill="#FF61AD"/>
<path d="M47.1785 117.184C45.8002 117.992 44.6609 120.161 44.6609 121.998V125.527L49.6961 123.432V119.095C49.6961 117.239 48.5567 116.375 47.1785 117.184ZM46.3516 122.164C46.1494 122.292 45.9473 122.329 45.7635 122.348C45.7084 122.145 45.6532 121.943 45.6532 121.686C45.6532 120.436 46.4066 118.985 47.3439 118.452C47.5644 118.323 47.7482 118.286 47.9319 118.268C47.987 118.47 48.0422 118.672 48.0422 118.93C48.0422 120.179 47.2888 121.631 46.3516 122.164Z" fill="#F445A1"/>
<path d="M47.9284 118.268C47.9836 118.47 48.0387 118.672 48.0387 118.93C48.0387 120.179 47.2853 121.631 46.3481 122.164C46.1459 122.293 45.9438 122.329 45.76 122.348C45.9805 123.101 46.6053 123.395 47.3404 122.972C48.2776 122.44 49.031 120.988 49.031 119.738C49.031 118.764 48.5716 118.213 47.9284 118.268Z" fill="#FF61AD"/>
<path d="M21.5235 101.251L20.8252 100.755C20.7885 100.718 20.7333 100.682 20.6782 100.663L20.6047 100.608L20.5863 100.627C20.1453 100.388 19.594 100.406 18.9876 100.755C17.6093 101.564 16.47 103.732 16.47 105.57V109.227L17.3337 109.723C17.9033 109.227 21.5235 107.793 21.5235 105.937V102.648C21.5235 102.28 21.4684 101.986 21.3949 101.692L21.5235 101.251ZM19.0427 106.36C18.8405 106.489 18.6384 106.525 18.4546 106.544C18.3995 106.342 18.3444 106.14 18.3444 105.882C18.3444 104.633 19.0978 103.181 20.035 102.648C20.2555 102.519 20.4393 102.483 20.6231 102.464C20.6782 102.666 20.7333 102.868 20.7333 103.126C20.7333 104.375 19.9799 105.809 19.0427 106.36Z" fill="#F445A1"/>
<path d="M19.874 101.38C18.4958 102.189 17.3564 104.357 17.3564 106.195V109.723L22.41 107.536V103.273C22.3916 101.435 21.2523 100.571 19.874 101.38ZM19.0471 106.36C18.8449 106.489 18.6428 106.525 18.4591 106.544C18.4039 106.342 18.3488 106.139 18.3488 105.882C18.3488 104.633 19.1022 103.181 20.0394 102.648C20.26 102.519 20.4437 102.483 20.6275 102.464C20.6826 102.666 20.7377 102.868 20.7377 103.126C20.7377 104.375 19.9843 105.809 19.0471 106.36Z" fill="#FF61AD"/>
<path d="M20.624 102.464C20.6791 102.666 20.7342 102.868 20.7342 103.126C20.7342 104.375 19.9808 105.827 19.0436 106.36C18.8415 106.489 18.6393 106.525 18.4556 106.544C18.6761 107.297 19.3009 107.591 20.036 107.169C20.9732 106.636 21.7266 105.184 21.7266 103.934C21.7266 102.96 21.2672 102.409 20.624 102.464Z" fill="#F445A1"/>
<path d="M39.8306 131.518C35.0343 139.842 28.3452 145.631 22.4096 146.623C19.6531 147.083 17.3193 146.494 15.4265 144.859C11.4939 141.459 10.4464 134.072 12.0636 125.894C11.9166 123.597 11.8431 122.348 11.6593 120.198C8.11265 131.021 8.86608 141.606 14.232 146.237C16.0329 147.799 18.2381 148.589 20.6822 148.589C21.3438 148.589 22.0237 148.534 22.7036 148.424C29.1722 147.34 36.3391 141.202 41.411 132.418L47.365 122.09C47.8979 120.933 47.6223 120.198 46.244 119.573C45.7295 120.308 45.6376 121.429 45.6376 121.429L39.8306 131.518Z" fill="#3F2A28"/>
<path d="M20.5485 108.087C21.6243 108.087 22.4964 107.215 22.4964 106.14C22.4964 105.064 21.6243 104.192 20.5485 104.192C19.4727 104.192 18.6006 105.064 18.6006 106.14C18.6006 107.215 19.4727 108.087 20.5485 108.087Z" fill="#3F2A28"/>
<path d="M100.642 208.698C100.899 208.551 100.807 207.963 101.34 207.394C101.193 207.026 100.072 206.953 99.1167 207.026C99.1167 206.126 97.867 204.123 96.8931 203.388C96.0294 203.461 95.3311 204.141 95.0371 204.453C94.9452 203.626 94.5225 202.689 94.0999 202.358C93.0156 201.532 91.2515 201.219 89.8733 201.991C89.6711 201.348 89.5425 200.466 89.083 199.951C88.1826 200.061 87.5394 199.639 86.8962 200.172C86.8778 199.878 86.1061 198.996 86.8228 198.463C85.812 198.077 83.8274 198.132 83.2944 198.702C83.0923 198.261 82.7983 197.856 82.5043 197.525C81.6957 196.607 80.5931 195.449 79.27 195.688C79.1597 195.045 78.5717 193.96 78.1306 193.593C77.1199 192.784 76.3481 192.748 75.1169 193.115C74.6207 192.619 73.5733 191.884 72.7647 191.994C72.6361 191.296 72.3604 190.653 72.4339 190.101C71.368 190.12 70.7433 189.991 70.1185 190.45C70.1185 190.046 70.2103 188.888 69.659 188.484C69.0894 189.146 68.1154 188.944 67.4354 189.366C67.0495 188.245 65.7632 187.308 64.6055 187.51C64.7525 187.179 64.5504 186.334 65.0098 185.82C63.3191 184.919 61.3896 185.507 61.022 185.636C60.9485 183.761 59.2395 182.604 57.4754 183.228C57.4202 182.714 57.4386 181.887 57.1813 181.483C56.6852 180.711 55.6009 181.409 54.8659 181.924C54.9578 181.519 54.9394 181.005 55.5275 180.123C54.3881 179.645 53.2304 179.737 52.2013 180.288C51.8705 179.204 50.5658 178.101 49.5551 178.451C49.4081 177.568 48.7465 176.613 48.1217 176.19C47.8461 176.76 47.3315 176.833 46.6148 177.164C45.7327 175.731 44.3913 175.455 43.8216 175.565C44.0054 175.198 43.987 174.591 44.428 174.022C43.307 173.636 42.0574 173.746 40.9548 174.206C40.8445 174.261 40.7343 174.316 40.624 174.389C40.5322 174.242 40.4219 174.114 40.3117 173.967C39.9809 173.581 39.0804 172.846 38.5107 172.882C38.0513 173.452 37.9778 173.967 37.8308 174.61C37.6654 174.555 37.5 174.5 37.3163 174.481C36.2504 174.353 34.6516 174.904 33.6042 174.849C33.6777 175.474 34.376 175.676 34.523 175.731C33.9166 175.915 33.5307 176.3 33.3469 176.833C32.3913 176.833 31.0683 177.036 30.0943 176.797C29.8554 177.33 30.5353 177.807 30.7742 178.01C29.249 177.826 27.595 178.524 26.2535 179.112C26.2535 179.59 27.4297 179.608 27.6686 179.663C27.2275 179.902 26.3822 180.417 26.1801 180.693C25.9779 180.987 25.8677 181.409 25.886 181.813C25.0223 181.924 23.9014 182.42 23.2214 182.457C23.1847 183.21 24.5629 183.578 25.2796 183.706C24.8202 184.368 24.2322 185.801 24.0668 186.352C24.7835 186.04 26.4925 185.764 27.3194 185.544C27.2643 186.169 27.6318 186.794 28.0912 187.161C28.569 187.547 29.1755 187.731 29.8003 187.749C29.3776 188.08 28.5323 188.741 27.9626 189.182C28.6609 189.587 29.7635 189.881 30.5353 189.936C30.4067 189.991 29.8554 190.653 29.7084 191.094C30.572 191.333 32.2811 191.259 33.2918 190.947C32.9978 191.498 33.0345 192.123 32.8875 192.729C34.082 192.49 35.2581 191.865 36.2504 191.645C36.2137 191.829 36.2137 191.994 36.2504 192.196C36.379 192.913 36.9671 193.409 37.5919 193.703C38.3821 194.071 39.4847 194.163 40.4403 193.924C40.3116 194.089 40.4403 195.081 39.6869 195.816C40.6608 196.331 42.2412 196.276 43.4908 195.78C43.4724 196.809 43.6011 198.242 43.6929 199.069C44.6302 198.793 45.4938 197.709 45.7878 197.213C46.0635 198.389 47.6071 199.951 48.9486 199.933C48.4157 200.558 48.1033 201.054 48.3973 201.679C49.2243 201.862 51.2089 201.293 52.5688 200.723C52.7893 201.77 54.0206 202.414 55.1599 202.414C55.0313 202.855 54.9027 203.884 55.2886 205.133C56.1339 204.674 57.4018 204.398 58.0818 204.104C58.2655 204.031 58.4493 203.939 58.6147 203.865C58.872 204.747 59.607 205.372 60.5442 205.74C61.0588 205.942 61.6468 206.034 62.2165 205.997C61.6652 206.456 60.9118 206.916 60.6361 207.871C62.0511 208.092 63.5396 208.294 64.9914 208.184C65.3038 208.165 65.5978 208.11 65.8735 208.018C65.3773 209.231 65.6713 210.738 66.7923 211.492C67.2333 210.518 68.2808 210.003 68.8137 209.617C68.7218 210.132 68.777 210.701 68.8872 211.161C69.1261 212.08 69.4385 212.833 70.2287 213.329C70.927 212.668 71.9377 212.153 72.1766 211.841C72.2134 212.19 73.0036 213.587 73.4262 214.597C74.4186 214.708 75.0434 213.899 75.5395 213.237C75.613 213.899 76.2746 214.946 76.5319 215.939C77.1199 216.178 77.8917 215.755 78.5165 215.259C78.6635 216.141 79.4537 217.096 80.0785 217.391C80.832 217.758 81.9529 217.758 82.835 217.409C82.9085 218.401 83.6987 219.449 84.397 220C85.2975 218.824 86.7676 219.044 87.2454 218.383C87.5945 219.008 87.9989 219.338 88.6053 220C89.5976 219.835 91.178 217.813 91.0677 216.729C91.6007 217.06 93.8793 217.354 94.4858 217.262C95.2208 217.152 96.2683 216.6 96.8931 216.141C96.0478 215.498 96.2132 214.469 96.0478 214.193C97.2974 214.524 98.8961 214.211 99.6496 213.219C99.962 212.796 100.183 212.061 100.183 211.473C101.634 211.712 103.637 211.161 104.225 210.279C102.663 209.195 101.138 208.772 100.642 208.698Z" fill="#975ECF"/>
<path d="M27.0612 184.643L83.9 217.464C85.4069 218.346 88.0898 218.236 89.8356 217.225L99.1158 211.859C100.862 210.848 101.064 209.305 99.5384 208.423L42.6997 175.602C41.1928 174.72 38.5098 174.83 36.7641 175.841L27.4839 181.207C25.7381 182.218 25.5543 183.761 27.0612 184.643Z" fill="#A876E2"/>
<path d="M30.2798 182.879L84.3988 214.285C85.6301 215.002 87.7985 214.91 89.2135 214.083L96.7479 209.727C98.1629 208.901 98.3283 207.651 97.0971 206.953L42.978 175.547C41.7468 174.83 39.5784 174.922 38.1634 175.749L30.629 180.104C29.1956 180.913 29.0486 182.163 30.2798 182.879Z" fill="#B88FF2"/>
<path d="M62.9546 190.744C59.4631 190.744 56.6331 192.251 56.6331 194.107C56.6331 195.963 59.4631 197.47 62.9546 197.47C66.4461 197.47 69.2761 195.963 69.2761 194.107C69.2761 192.233 66.4461 190.744 62.9546 190.744Z" fill="#975ECF"/>
<path d="M122.531 58.4332L119.977 57.3489L61.723 193.666H61.7597C61.7413 193.721 61.7046 193.777 61.7046 193.832C61.7046 194.273 62.3845 194.64 63.2115 194.64C63.9649 194.64 64.553 194.346 64.6632 193.96H64.6816L122.531 58.4332Z" fill="#C6AFAF"/>
<path d="M121.797 61.5204H112.994C112.994 61.5204 110.073 66.2616 109.65 69.5694C109.227 72.8771 112.462 74.9721 112.462 74.9721L114.612 69.9369C114.612 69.9369 114.759 69.9553 114.979 69.992C114.887 70.7455 114.85 71.554 115.108 72.0318C115.659 73.116 117.092 73.3917 117.625 71.701C117.883 70.8741 118.158 70.1574 118.379 69.6429C118.93 69.4591 119.463 69.1835 119.978 68.7792C122.183 66.9966 121.797 61.5204 121.797 61.5204Z" fill="#FFC9B6"/>
<path d="M114.849 31.3644C114.849 31.3644 111.155 31.3644 109.648 39.5787C108.545 45.5695 115.951 49.9983 115.951 49.9983L123.136 35.8483L114.849 31.3644Z" fill="#FF61AD"/>
<path d="M113.12 111.064C113.12 111.064 111.944 118.892 116.336 126.077C118.762 130.065 123.448 136.331 128.373 142.157C132.14 146.604 134.437 151.676 134.327 153.017C134.18 154.69 128.042 159.449 128.042 159.449L130.449 163.033L143.111 154.12C143.111 154.12 139.436 147.817 138.278 143.388C137.028 138.592 135.724 131.995 133.041 126.739C127.895 116.613 125.598 111.082 125.598 111.082H113.12V111.064Z" fill="#FFB9A4"/>
<path d="M141.974 152.043C141.974 152.043 139.99 155.186 138.887 156.141C136.645 158.108 134.807 159.431 132.235 159.431C130.232 159.431 129.166 158.53 129.166 158.53C129.166 158.53 120.474 164.08 122.936 166.138C124.866 167.737 126.85 168.215 131.059 167.002C133.08 166.414 137.086 163.768 139.052 161.489C140.853 160.919 143.83 159.376 144.639 157.703C145.062 156.803 143.757 153.734 141.974 152.043Z" fill="#AA83E2"/>
<path d="M137.898 93.7713C134.737 90.7392 129.444 93.8632 127.019 96.8586C122.755 102.114 123.582 110.77 123.233 117.091C122.792 125.14 122.443 133.207 121.836 141.256C121.432 146.751 120.532 157.207 118.878 165.366C117.444 172.423 114.872 174.334 113.236 176.778C112.042 178.579 120.219 182.218 121.487 180.784C122.645 179.461 126.817 175.4 126.908 171.192C127.037 165.109 129.757 158.971 133.065 148.791C133.708 146.806 135.27 144.913 134.718 135.725C134.59 133.557 134.553 129.22 135.215 127.162C135.729 125.563 137.548 123.688 138.302 122.108C139.074 120.491 139.717 118.819 140.213 117.11C142.308 109.851 143.539 99.174 137.898 93.7713Z" fill="#FFC9B6"/>
<path d="M117.035 35.0949C121.188 29.8208 123.228 29.4165 128.263 32.3017C134.438 35.83 140.043 37.3368 142.744 39.5788C147.32 43.3827 149.359 51.9462 150.131 61.8328C150.242 63.3397 150.83 67.6582 148.771 70.6903C150.039 74.9537 151.951 76.7178 150.407 81.2017C143.277 85.3916 128.208 87.1925 122.695 77.0486C122.346 76.4238 123.246 74.2186 123.687 73.6673C122.53 73.0241 121.721 71.4254 121.721 69.9369C119.608 68.7975 117.789 67.0701 117.311 64.0747C113.066 63.1192 108.508 60.7302 109.887 55.6215C110.566 53.1223 113.948 47.3337 114.554 44.4118C115.638 39.1377 115.859 36.6018 117.035 35.0949Z" fill="#FF85C5"/>
<path d="M119.961 35.8667C121.118 35.683 122.68 31.732 123.177 29.4349C123.507 27.8729 130.013 23.6279 129.994 23.8485C129.921 28.9388 130.711 34.7641 133.063 37.4104C129.7 40.9387 126.503 48.1239 120.733 46.9111C117.572 46.2311 117.664 42.3537 119.961 35.8667Z" fill="#FFB9A4"/>
<path d="M125.765 69.1834C125.765 69.1834 131.48 67.3273 134.585 67.6949C137.673 68.0624 140.337 69.1834 140.337 69.1834C140.337 69.1834 135.982 69.8082 133.06 69.9185C130.138 70.0471 125.765 69.1834 125.765 69.1834Z" fill="#71ABFF"/>
<path d="M128.28 76.1849C128.648 76.1849 135.079 76.0011 138.534 75.7439C141.989 75.505 143.349 75.3212 143.349 75.3212C143.349 75.3212 140.5 77.4713 136.494 77.4713C132.47 77.4713 128.28 76.1849 128.28 76.1849Z" fill="#71ABFF"/>
<path d="M118.082 67.6582C117.421 69.9369 119.093 72.234 120.232 74.0349C119.35 78.4636 117.439 87.6703 115.638 96.2889C113.635 105.79 111.32 116.283 111.154 126.408C115.602 132.638 120.343 135.284 128.245 135.854C141.99 136.846 149.617 130.488 149.617 130.488C149.617 130.488 150.517 111.064 150.517 97.6855C156.967 84.5463 150.113 74.3105 150.113 74.3105C150.113 74.3105 141.292 73.6673 135.816 69.9553C132.637 67.7868 127.712 58.7639 128.906 55.107C131.038 48.5833 138.701 37.2817 138.701 37.2817L135.816 35.9953C135.816 35.9953 126.83 50.7334 124.386 53.9125C123.595 54.9416 120.141 53.8022 118.174 52.8283C114.26 50.8988 114.223 51.2663 114.591 48.9325C115.179 45.1836 120.655 34.9846 120.655 34.9846L116.796 32.6324C116.796 32.6324 112.478 46.5251 110.199 51.303C108.38 55.107 107.883 57.6797 109.629 60.4546C110.952 62.5863 114.352 65.9492 118.082 67.6582Z" fill="#AA83E2"/>
<path d="M117.995 33.2205C117.995 33.2205 116.966 38.6049 116.286 40.5528C115.606 42.5007 114.191 46.9662 114.191 46.9662C114.191 46.9662 116.102 45.9555 117.149 46.4884C118.197 47.0213 119.042 48.4179 119.943 48.6385C120.843 48.859 122.019 48.6385 122.019 48.6385L122.662 46.1576C122.662 46.1576 120.77 45.6247 120.696 42.4639C120.622 39.3032 120.99 35.0214 120.99 35.0214L117.995 33.2205Z" fill="#FF61AD"/>
<path d="M114.409 15.7076C118.948 14.6969 121.318 14.4948 125.343 16.1303C127.603 16.7367 129.735 17.7474 131.774 19.0889C131.921 19.1808 132.05 19.4197 132.032 19.6035C131.003 25.5758 129 31.9158 122.292 34.562C116.779 36.7488 113.692 30.6845 112.736 26.6417C111.597 21.9189 111.266 16.4243 114.409 15.7076Z" fill="#FFC9B6"/>
<path d="M136.186 11.0583C134.55 5.04921 130.82 2.01708 128.211 4.70006C127.696 1.83331 124.884 -0.0043432 123.267 2.14572C121.962 -0.959925 118.636 -0.169728 116.817 1.24527C113.381 3.94662 106.012 14.1456 111.396 18.0231C111.727 23.1134 117.809 23.4993 121.338 21.0185C123.249 22.7826 126.924 22.7275 128.027 20.945C128.688 24.1609 129.662 27.193 130.324 29.8943C132.621 28.4793 138.575 19.8791 136.186 11.0583Z" fill="#2C1D1B"/>
<path d="M126.539 24.2344C126.539 24.2344 127.623 20.559 130.012 22.4518C132.401 24.3262 129.02 28.0567 129.02 28.0567L126.539 24.2344Z" fill="#FFC9B6"/>
<path d="M130.651 31.7136C130.614 31.8055 128.905 34.7641 127.38 37.539C125.763 40.4792 123.87 43.4011 122.124 44.8896C119.57 47.0764 120.507 50.5312 120.507 50.5312C120.507 50.5312 121.444 48.3076 122.657 48.6568C123.87 49.0059 125.101 50.1085 126.535 51.3398C127.582 49.6491 129.126 47.6828 130.871 44.7242C132.562 41.8574 134.951 38.6232 133.959 35.1684C132.966 31.7136 130.651 31.7136 130.651 31.7136Z" fill="#FF61AD"/>
<path d="M107.17 184.386C105.222 187.455 104.891 189.642 107.445 191.02C111.323 193.097 113.51 191.461 117.902 187.933C120.842 185.562 121.283 183.284 123.837 180.545C125.399 180.343 126.649 178.487 126.906 176.503C127.2 174.15 126.906 171.229 126.906 171.229C126.906 171.229 125.601 173.581 124.499 175.859C123.231 178.469 120.75 179.755 119.298 179.461C117.093 179.002 113.234 176.833 113.234 176.833C113.234 176.833 108.75 181.905 107.17 184.386Z" fill="#AA83E2"/>
<path d="M122.405 74.972C122.405 74.972 123.526 77.4161 127.973 80.0991C132.42 82.7821 140.028 80.0991 140.028 80.0991C140.028 80.0991 133.302 79.5662 129.59 78.2063C127.127 77.2875 122.405 74.972 122.405 74.972Z" fill="#946DD1"/>
<path d="M119.959 68.7975C120.235 68.8343 123.138 71.7746 126.207 72.0134C129.276 72.2523 132.455 70.1023 132.455 70.1023C132.455 70.1023 128.688 70.286 126.207 69.9369C123.708 69.5877 119.959 68.7975 119.959 68.7975Z" fill="#946DD1"/>
<path d="M130.508 97.8509C130.508 97.8509 126.428 102.849 124.627 107.388C122.827 111.909 121.209 126.114 121.209 126.114C121.209 126.114 124.425 115.143 126.19 109.226C127.954 103.309 130.508 97.8509 130.508 97.8509Z" fill="#946DD1"/>
<path d="M133.961 59.8849C133.961 59.8849 130.653 66.2432 126.941 72.8588C118.818 77.1589 109.097 84.5279 109.097 84.5279L111.431 88.1664C111.431 88.1664 119.829 87.119 127.161 83.2967C131.37 81.1099 132.987 82.0838 134.971 78.7944C139.271 71.7378 144.49 63.2846 144.49 63.2846C144.49 63.2846 138.867 59.1315 133.961 59.8849Z" fill="#FFC9B6"/>
<path d="M142.748 39.5788C137.97 40.1852 135.581 45.496 133.707 51.8176C131.851 58.1391 131.924 63.3948 131.924 63.3948C131.924 63.3948 136.666 65.2692 141.333 68.2279C146.828 63.2662 150.705 56.1361 151.257 50.4026C151.826 44.6691 146.552 40.8468 142.748 39.5788Z" fill="#FF61AD"/>
<path d="M131.995 61.5204C131.995 61.5204 134.88 61.7226 138.041 63.4132C141.202 65.1222 142.745 66.9048 142.745 66.9048L140.43 69.6796C140.43 69.6796 137.747 67.1804 135.836 66.28C133.924 65.3795 131.186 64.9568 131.186 64.9568L131.995 61.5204Z" fill="#FFBBE2"/>
<path d="M115.457 84.5463L110.422 83.554C110.422 83.554 106.636 85.2446 104.688 86.2186C102.722 87.1925 101.509 90.6289 100.774 93.6794C100.039 96.7483 100.902 97.465 100.774 99.0638C100.645 100.663 102.373 100.773 102.85 99.0638C103.347 97.3548 104.32 94.2859 104.32 94.2859C104.32 94.2859 106.287 93.4773 109.098 92.5401C111.91 91.6029 115.953 87.2476 115.953 87.2476L115.457 84.5463Z" fill="#FFC9B6"/>
</svg>
