<svg width="182" height="221" viewBox="0 0 182 221" fill="none" xmlns="http://www.w3.org/2000/svg">
<path d="M128.624 48.5015C121.754 45.3911 118.336 34.881 117.533 28.1306C116.729 21.2947 117.84 13.8949 115.191 7.36659C113.123 2.23969 109.142 -0.238312 103.639 0.0180331C100.938 0.137661 98.1015 0.923784 96.29 2.63275C94.8545 3.69231 94.0513 5.40128 94.3418 7.21279C94.3418 7.28115 94.3247 7.34951 94.3247 7.41786C94.3247 7.45204 94.3589 7.48622 94.3931 7.48622C94.4273 7.65712 94.4444 7.8451 94.5128 8.016C94.7178 8.57996 95.1109 9.16101 95.6065 9.6737C95.6748 9.74206 95.7432 9.81042 95.8115 9.87878C96.7686 10.7845 98.0503 11.3656 99.2124 11.1092C101.263 11.4681 103.468 11.6219 104.527 12.6131C107.039 14.9886 106.253 20.4915 106.681 23.636C107.091 26.7463 107.381 32.1637 108.065 35.2057C109.876 43.1695 117.994 51.5434 128.624 48.5015Z" fill="#2C1D1B"/>
<path d="M89.9672 6.99055C89.9672 6.99055 92.9579 2.90611 96.9739 5.60628C102.289 9.17803 100.734 12.8181 99.3665 13.7922C97.9822 14.7664 89.9672 6.99055 89.9672 6.99055Z" fill="#FF85C5"/>
<path d="M130.775 152.321L133.219 157.602C133.219 157.602 131.955 161.157 130.912 163.259C129.87 165.361 128.058 165.036 126.486 167.685C124.914 170.334 126.674 171.991 131.562 172.179C136.466 172.367 137.509 169.906 139.013 166.694C140.517 163.481 142.807 159.345 142.841 156.696C142.892 152.509 139.303 152.646 137.201 151.193C135.868 150.253 130.775 152.321 130.775 152.321Z" fill="#FFC9B6"/>
<path d="M71.784 173.256C70.9807 175.307 69.7674 177.887 65.6317 178.571C60.3339 179.443 59.1376 178.588 56.7963 180.143C54.455 181.698 57.7363 184.672 60.3168 186.518C64.1107 189.218 68.4857 187.936 71.2713 187.321C74.9968 186.484 78.842 185.236 78.654 181.545C78.4661 177.87 79.9528 175.392 79.9528 175.392C79.9528 175.392 73.1511 169.804 71.784 173.256Z" fill="#FFC9B6"/>
<path d="M65.0484 178.639C65.0484 178.639 64.9972 180.382 67.1505 181.442C69.3038 182.484 73.5933 182.672 75.1655 181.527C76.7378 180.382 78.7373 179.425 78.7373 179.425C78.7373 179.425 80.3266 183.783 75.1143 186.142C69.9019 188.517 67.065 190.209 61.7672 188.603C56.4694 186.996 53.1027 183.527 55.9738 180.126C57.4093 178.468 65.0484 178.639 65.0484 178.639Z" fill="#BBCDFF"/>
<path d="M127.235 134.121C125.065 132.634 122.963 132.07 120.348 131.54C126.825 120.261 126.894 108.93 124.347 96.267C123.647 92.7637 122.194 84.5777 118.571 82.6466C117.118 81.8775 100.08 82.4928 98.3538 81.963C98.3196 81.9459 98.2855 81.9459 98.2513 81.9288C96.7132 87.2779 94.8675 94.2163 94.7137 97.1557C94.2694 104.726 100.336 106.555 100.336 106.555C100.336 106.555 100.593 110.537 101.379 113.955C102.917 121.218 106.044 131.523 110.368 137.453C110.026 141.435 112.658 142.495 115.939 143.281C118.485 143.896 127.902 153.415 133.2 157.568C133.234 157.551 138.668 156.918 138.668 151.723C135.473 147.741 135.114 139.538 127.235 134.121Z" fill="#BBCDFF"/>
<path d="M94.7135 97.1728C94.8844 94.2334 96.7301 87.295 98.2511 81.9459C95.1408 81.006 90.8684 80.2882 89.7404 79.7755C79.6063 94.8316 76.6327 114.143 76.4447 132.155C74.0692 135.915 74.9408 140.769 74.992 145.075C75.0775 153.398 73.1122 161.738 72.1381 169.992C72.0014 171.154 71.557 172.795 71.2494 174.521C73.0267 175.529 78.8031 176.913 79.3499 176.708C82.1868 168.334 87.4162 159.243 88.8347 150.441C89.2277 148.049 89.3816 145.639 89.1594 143.23C88.9543 141.008 87.8264 138.649 88.6638 136.479C89.3474 134.685 91.3981 132.719 92.4577 131.045C94.0983 128.464 95.5851 125.781 96.9694 123.064C98.4562 120.158 99.96 117.116 101.361 114.006C100.575 110.588 100.319 106.606 100.319 106.606C100.319 106.606 94.2863 104.744 94.7135 97.1728Z" fill="#A6C2FF"/>
<path d="M83.0963 34.0265C87.6422 28.2502 90.291 28.985 95.811 32.1295C102.561 35.9918 108.013 38.4356 110.952 40.8794C115.96 45.0493 118.865 53.6283 119.719 64.429C119.856 66.0696 120.83 71.6409 121.411 73.2986C123.479 79.1945 122.471 80.1686 121.001 81.5358C121.804 82.339 122.608 85.774 120.899 86.7823C113.089 91.3623 95.7426 92.1826 89.6929 81.0743C89.3169 80.3908 90.291 77.9811 90.7695 77.3659C89.5049 76.6481 88.6162 74.905 88.6162 73.2815C86.3091 72.0339 84.3267 70.137 83.7969 66.8728C79.1656 65.8304 74.1583 63.2156 75.6793 57.6273C76.4142 54.893 78.7042 48.6894 79.5758 45.5449C81.3189 39.3414 81.7975 35.6842 83.0963 34.0265Z" fill="#FF85C5"/>
<path d="M86.6134 37.0514C87.8781 36.8464 91.1934 35.1545 90.2022 29.0022C89.9288 27.2761 97.6705 22.6448 97.6705 22.8841C97.585 28.4553 98.4566 34.8298 101.02 37.735C97.3287 41.5802 93.1246 51.3384 86.8185 50.0054C83.3664 49.2535 84.1013 44.1436 86.6134 37.0514Z" fill="#FFB9A4"/>
<path d="M83.6593 35.1373C83.6593 35.1373 82.5484 40.9136 81.8307 42.9986C81.1129 45.1006 79.5919 49.8686 79.5919 49.8686C79.5919 49.8686 81.6427 48.792 82.7706 49.3559C83.8985 49.9199 84.8043 51.4238 85.7613 51.663C86.7354 51.9023 87.983 51.663 87.983 51.663L88.6665 48.9971C88.6665 48.9971 86.65 48.4331 86.5645 45.0493C86.4791 41.6656 86.8892 37.0685 86.8892 37.0685L83.6593 35.1373Z" fill="#FF61AD"/>
<path d="M98.53 32.7618C98.4787 32.8643 96.821 36.795 95.1804 39.7515C93.4543 42.896 89.968 46.0234 88.0881 47.6298C85.3538 49.9711 86.3621 53.6796 86.3621 53.6796C86.3621 53.6796 87.3533 51.287 88.6521 51.663C89.951 52.039 91.2839 53.2182 92.8049 54.5341C93.9328 52.7055 96.6501 50.8769 98.5129 47.7153C100.324 44.6391 103.178 39.3242 102.136 35.6158C101.093 31.9244 98.53 32.7618 98.53 32.7618Z" fill="#FF61AD"/>
<path d="M80.0669 16.0141C85.0058 14.9032 87.5864 14.6982 91.9784 16.4755C94.4393 17.142 96.7635 18.2357 98.9852 19.7054C99.1561 19.808 99.2928 20.0643 99.2586 20.2694C98.1307 26.7806 95.9433 33.6677 88.646 36.5559C82.6475 38.9313 79.2808 32.3347 78.2213 27.9256C77.0079 22.7816 76.649 16.7831 80.0669 16.0141Z" fill="#FFC9B6"/>
<path d="M95.9295 9.43443C91.2128 5.62343 85.2485 6.08486 82.0186 8.71667C78.5835 11.5194 75.8321 15.6551 77.3702 20.1155C78.9766 20.4402 81.2666 19.0047 82.3603 18.0647C84.3427 20.2693 87.8461 22.884 92.1186 22.2859C92.956 25.0031 94.7675 30.9674 97.2455 30.7965C102.219 20.5769 103.5 15.5696 95.9295 9.43443Z" fill="#3F2A28"/>
<path d="M91.2131 25.2937C91.2131 25.2937 92.3923 21.2947 94.9899 23.3455C97.5876 25.3962 93.9133 29.4465 93.9133 29.4465L91.2131 25.2937Z" fill="#FFC9B6"/>
<path d="M130.911 163.259C130.911 163.259 130.569 164.181 128.125 165.822C125.664 167.463 125.015 169.548 125.015 170.863C125.015 172.179 127.869 174.008 131.68 173.752C135.508 173.495 137.73 172.043 139.575 168.368C141.404 164.694 144.07 156.508 143.301 154.697C142.874 153.688 141.301 153.227 140.926 152.953C140.926 152.953 141.524 154.782 141.011 156.423C140.156 159.208 139.182 161.157 137.866 163.361C136.551 165.549 134.26 165.925 132.671 165.121C131.099 164.352 130.911 163.259 130.911 163.259Z" fill="#BBCDFF"/>
<path d="M166.06 220.68C163.77 220.68 161.36 220.338 158.934 219.432C149.005 215.775 149.056 209.743 149.158 200.617C149.175 198.891 149.192 197.096 149.158 195.165C149.022 188.705 146.561 184.091 142.237 182.194C137.965 180.314 132.291 181.459 128.155 185.065C126.309 186.672 124.618 188.244 122.994 189.765C115.833 196.43 110.143 201.676 100.624 200.924C96.7443 200.617 93.5827 199.027 91.2243 196.208C87.0032 191.132 85.4309 181.989 86.6956 169.753C87.4133 162.712 88.7121 154.663 89.9426 146.887C91.7883 135.283 93.5485 124.328 93.1554 118.415C92.0617 101.565 88.2507 95.3785 88.1995 95.3272L89.0881 94.7632C89.259 95.0196 93.0871 101.172 94.1979 118.364C94.591 124.397 92.8307 135.403 90.968 147.075C89.7204 154.833 88.4558 162.866 87.7209 169.889C86.4905 181.835 87.9773 190.722 92.0104 195.558C94.1808 198.156 97.0861 199.626 100.692 199.899C109.784 200.617 115.013 195.746 122.259 189.013C123.9 187.492 125.592 185.92 127.454 184.296C131.966 180.365 137.93 179.169 142.647 181.254C147.364 183.339 150.03 188.278 150.184 195.165C150.235 197.13 150.218 198.925 150.184 200.651C150.098 209.64 150.047 215.075 159.275 218.475C169.786 222.338 180.381 215.297 180.484 215.228L181.065 216.1C180.74 216.322 174.161 220.68 166.06 220.68Z" fill="#593D3D"/>
<path d="M0.019043 182.331V198.395C0.019043 206.872 12.9389 213.742 28.8835 213.742C44.8282 213.742 57.748 206.872 57.748 198.395V182.331H0.019043Z" fill="#352221"/>
<path d="M28.8645 207.093C12.9198 207.093 0 200.223 0 191.747V194.122C0 202.599 12.9198 209.469 28.8645 209.469C44.8092 209.469 57.7289 202.599 57.7289 194.122V191.747C57.7289 200.223 44.8092 207.093 28.8645 207.093Z" fill="#778DFD"/>
<path d="M89.2965 88.0639C89.2965 88.0639 86.3059 96.7113 82.1189 105.649C77.9319 114.587 70.8739 117.851 60.1757 113.049C49.4947 108.264 71.5062 77.2632 71.5062 77.2632L89.2965 88.0639Z" fill="#352221"/>
<path d="M28.8661 167.685C12.9214 167.685 0.00158691 174.555 0.00158691 183.031C0.00158691 191.508 12.9214 198.378 28.8661 198.378C44.8108 198.378 57.7305 191.508 57.7305 183.031C57.7305 174.555 44.8108 167.685 28.8661 167.685Z" fill="#472F2E"/>
<path d="M53.5798 176.025C50.7429 170.18 40.7797 165.839 28.8853 165.839C16.9908 165.839 7.02754 170.163 4.19065 176.025H3.35327V179.425C3.35327 186.928 14.7863 193.012 28.8853 193.012C42.9842 193.012 54.4172 186.928 54.4172 179.425V176.025H53.5798Z" fill="#778DFD"/>
<path d="M28.8644 162.113C14.7654 162.113 3.3324 168.197 3.3324 175.7C3.3324 183.202 14.7654 189.286 28.8644 189.286C42.9634 189.286 54.3964 183.202 54.3964 175.7C54.4135 168.18 42.9805 162.113 28.8644 162.113Z" fill="#8DA3FF"/>
<path d="M17.1759 172.948C13.5016 170.846 11.7926 168.984 11.8097 167.104C11.8268 164.985 14.0143 163.498 15.9112 162.421C17.6373 161.464 19.688 160.558 21.6875 159.687C24.832 158.32 28.0791 156.901 29.771 155.312C33.0864 152.201 33.5478 150.954 34.6757 145.314C36.3163 137.128 43.7332 136.291 43.8016 136.274L43.9554 137.795C43.699 137.829 37.5809 138.564 36.1625 145.605C34.9833 151.467 34.4023 153.056 30.7964 156.423C28.9165 158.183 25.6865 159.584 22.2857 161.071C20.3204 161.926 18.3038 162.814 16.6461 163.737C14.4244 164.985 13.3307 166.078 13.3307 167.087C13.3307 167.941 14.1168 169.428 17.9278 171.598L17.1759 172.948Z" fill="#F4EBEA"/>
<path d="M45.101 206.119C45.101 201.557 47.8695 196.259 51.2874 194.276C52.159 193.781 53.1843 193.524 53.9876 193.524C54.6199 193.524 56.2605 193.593 57.9524 194.635C59.9006 195.849 60.157 198.583 60.157 198.583L53.2014 212.87C53.2014 212.87 50.9627 213.964 48.6556 212.716C47.22 211.93 46.3656 210.631 45.9725 209.913C45.8016 209.606 45.5453 208.956 45.4598 208.717C45.2377 207.982 45.101 207.111 45.101 206.119Z" fill="#281818"/>
<path d="M60.3104 200.582C60.3104 205.145 57.5419 210.443 54.124 212.425C50.706 214.408 47.9375 212.306 47.9375 207.743C47.9375 203.18 50.706 197.882 54.124 195.9C57.5419 193.934 60.3104 196.019 60.3104 200.582Z" fill="#3F2A28"/>
<path d="M59.592 201.198C59.592 205.231 57.1481 209.896 54.1233 211.64C51.0984 213.383 48.6545 211.537 48.6545 207.504C48.6545 203.471 51.0984 198.805 54.1233 197.062C57.131 195.319 59.592 197.165 59.592 201.198Z" fill="#778DFD"/>
<path d="M58.0532 202.787C58.0532 204.786 56.8398 207.094 55.3359 207.965C53.832 208.837 52.6187 207.914 52.6187 205.914C52.6187 203.915 53.832 201.608 55.3359 200.736C56.8398 199.865 58.0532 200.788 58.0532 202.787Z" fill="white"/>
<path d="M56.2169 113.206L34.0262 164.665L42.5478 168.34L64.7385 116.881L56.2169 113.206Z" fill="#352221"/>
<path d="M48.658 171.359L26.9199 183.954L11.9152 175.153L33.6532 162.558L48.658 171.359Z" fill="#352221"/>
<path d="M14.3419 167.89C12.3937 169.223 11.9152 172.795 11.9152 175.153C14.3419 175.153 22.357 172.299 22.357 172.299L20.9898 169.069L14.3419 167.89Z" fill="#352221"/>
<path d="M48.657 165.48L44.9998 170.676L29.3286 176.691L14.3409 167.89L33.6523 156.679L48.657 165.48Z" fill="#543A3A"/>
<path d="M48.6543 165.48C48.6543 165.48 49.338 166.112 49.338 168.112C49.338 169.821 49.338 170.949 49.338 170.949L43.8864 174.145L45.3902 169.428L48.6543 165.48Z" fill="#472F2E"/>
<path d="M48.6573 165.48C48.6573 165.48 31.3796 175.563 29.3459 176.691C27.2952 177.819 26.9192 181.562 26.9192 183.954C30.2859 182.006 49.3409 170.949 49.3409 170.949L48.6573 165.48Z" fill="#472F2E"/>
<path d="M23.3623 160.08V165.839C23.3623 168.488 27.3955 170.624 32.3685 170.624C37.3416 170.624 41.3748 168.488 41.3748 165.839V160.08H23.3623Z" fill="#778DFD"/>
<path d="M32.3685 155.295C27.3955 155.295 23.3623 157.431 23.3623 160.08C23.3623 162.729 27.3955 164.865 32.3685 164.865C37.3416 164.865 41.3748 162.729 41.3748 160.08C41.3748 157.448 37.3416 155.295 32.3685 155.295Z" fill="#8DA3FF"/>
<path d="M40.9499 182.297C35.8571 182.297 30.7644 180.263 30.508 180.143C30.115 179.989 29.927 179.545 30.0808 179.152C30.2346 178.759 30.6961 178.571 31.072 178.725C31.1575 178.759 38.9333 181.869 44.4532 180.331C50.5372 178.622 53.5791 175.068 52.5879 170.812C52.1778 169.069 51.3404 167.651 50.6055 166.386C49.751 164.951 48.9649 163.583 48.9991 162.079C49.1358 157.175 51.5967 153.928 53.2202 151.791C53.6475 151.228 54.0234 150.732 54.314 150.27C56.8774 146.118 55.5273 141.845 55.5103 141.811C55.3735 141.401 55.5957 140.974 56.0059 140.837C56.416 140.7 56.8432 140.922 56.9799 141.333C57.0483 141.538 58.5522 146.323 55.6299 151.074C55.3223 151.569 54.9121 152.116 54.4507 152.714C52.8614 154.816 50.6739 157.704 50.5372 162.131C50.503 163.19 51.1695 164.318 51.9214 165.617C52.7246 166.967 53.6304 168.505 54.0918 170.47C55.271 175.529 51.7334 179.87 44.8805 181.801C43.6158 182.16 42.2829 182.297 40.9499 182.297Z" fill="#F4EBEA"/>
<path d="M78.5806 82.0483C76.8032 79.9976 74.3765 78.6304 74.3765 78.6304C74.3765 78.6304 74.0176 78.3911 73.4537 78.0493C70.651 76.2037 66.8229 75.0928 66.8229 75.0928C66.8229 75.0928 53.9885 97.3265 49.511 108.264C46.1102 116.587 39.6161 136.394 39.6161 136.394C39.6161 136.394 39.5819 146.494 40.5219 149.894C40.5561 150.082 40.5731 150.27 40.6073 150.441C41.2054 154.047 43.7347 155.636 46.452 154.098C47.5628 153.466 48.93 152.595 50.6048 151.398C57.1843 146.664 64.1569 131.181 68.6344 120.227C73.1119 109.289 82.1352 89.038 82.1352 89.038C82.1352 89.038 80.3408 84.0991 78.5806 82.0483Z" fill="#778DFD"/>
<path d="M75.7275 80.6811C73.9502 78.6304 71.5235 77.2632 71.5235 77.2632C71.5235 77.2632 69.1822 75.6397 66.8067 75.0928C64.4313 74.5289 60.1589 75.708 60.1589 75.708C60.1589 75.708 53.7673 91.3622 49.2898 102.3C44.8123 113.237 38.8651 129.37 39.6854 138.735C39.8905 141.11 40.1297 142.99 40.3861 144.477C40.9842 148.083 43.5135 149.672 46.2308 148.134C47.3416 147.502 48.7088 146.63 50.3836 145.434C56.9631 140.7 63.9357 125.217 68.4132 114.262C72.8906 103.325 79.2822 87.6708 79.2822 87.6708C79.2822 87.6708 77.4878 82.7319 75.7275 80.6811Z" fill="#8DA3FF"/>
<path d="M99.2408 96.7283L85.5178 89.0209L83.1594 92.9686L97.2242 101.052L99.2408 96.7283Z" fill="#778DFD"/>
<path d="M99.7701 97.9758C99.7701 99.1208 99.0694 100.454 98.215 100.949C97.3605 101.445 96.6598 100.915 96.6598 99.7703C96.6598 98.6253 97.3605 97.2923 98.215 96.7967C99.0694 96.3011 99.7701 96.8308 99.7701 97.9758Z" fill="#8DA3FF"/>
<path d="M63.3198 75.9643L49.5455 68.0347L47.4264 72.3071L61.3203 80.288L63.3198 75.9643Z" fill="#778DFD"/>
<path d="M50.0594 69.2824C50.0594 70.4274 49.3587 71.7604 48.5043 72.256C47.6498 72.7516 46.9491 72.2218 46.9491 71.0768C46.9491 69.9318 47.6498 68.5988 48.5043 68.1032C49.3587 67.6076 50.0594 68.1203 50.0594 69.2824Z" fill="#778DFD"/>
<path d="M72.839 53.8846C72.839 53.8846 71.2154 57.781 70.6856 59.49C70.1559 61.199 70.1559 61.199 70.1559 61.199C70.1559 61.199 63.2174 66.5481 60.5173 68.8723C57.8171 71.1964 55.5955 69.7267 52.6389 71.5041C49.221 73.5377 49.3919 74.8878 49.3407 77.2975C49.2894 79.7071 52.7415 81.9629 52.7415 81.9629C52.7415 81.9629 61.3888 75.8107 64.841 74.1871C71.7281 70.9401 77.4531 64.0188 77.4531 64.0188C77.4531 64.0188 75.2828 62.3269 75.4024 59.6267C75.4708 57.8152 76.3252 55.5081 76.3252 55.5081C76.3252 55.5081 75.2486 53.7992 72.839 53.8846Z" fill="#FFB9A4"/>
<path d="M89.1939 88.7475L89.2451 89.1235L77.3507 82.2364L62.1238 73.4181C62.1238 73.4181 56.9969 76.6139 54.1088 80.0489C53.8866 80.3223 53.6986 80.5958 53.5277 80.8692L52.6561 80.8008V83.6548C52.6561 83.7232 52.6561 83.7915 52.6561 83.8428V83.877C52.7245 85.8081 53.9379 87.5683 55.2367 89.0381C57.3558 91.4306 64.3797 95.498 68.3615 96.643C72.3434 97.7709 77.4875 98.7108 82.6998 96.6259C87.9122 94.558 92.5776 91.0888 92.5776 91.0888V88.3203L89.1939 88.7475Z" fill="#352221"/>
<path d="M92.5763 88.3032L77.3494 79.4849L62.1225 70.6666C62.1225 70.6666 56.9956 73.8624 54.1074 77.2974C51.2364 80.7324 53.1163 83.8769 55.2354 86.2695C57.3545 88.6621 64.3783 92.7294 68.3602 93.8744C72.3421 95.0023 77.4861 95.9423 82.6985 93.8573C87.9109 91.7724 92.5763 88.3032 92.5763 88.3032Z" fill="#472F2E"/>
<path d="M106.504 65.6425C106.043 68.1718 106.829 72.1024 106.624 74.3924C102.368 76.785 94.9002 84.2703 90.303 88.1496C87.0218 88.8332 84.8856 88.1496 82.6298 92.5417C81.2797 95.1735 83.1937 98.2155 85.5179 99.2408C88.201 100.437 90.3031 98.882 90.4569 97.173C89.2948 96.028 89.1239 94.0968 92.5931 93.0031C96.7972 92.5759 106.282 87.1413 109.443 84.5779C112.468 82.1341 113.887 82.5271 114.485 80.8011C116.074 76.2552 119.15 67.4369 119.15 67.4369C119.15 67.4369 108.384 66.1894 106.504 65.6425Z" fill="#FFC9B6"/>
<path d="M110.024 40.213C105.479 42.6739 103.394 50.7915 104.47 57.7641C105.359 63.4892 105.923 65.745 105.923 65.745C105.923 65.745 113.323 66.7533 119.133 67.8983C122.722 60.8061 122.124 55.8672 122.004 49.6978C121.885 43.7335 114.314 40.0079 110.024 40.213Z" fill="#FF61AD"/>
<path d="M105.939 65.762C105.939 65.762 108.895 64.8392 112.706 65.3177C116.517 65.7962 119.713 66.7361 119.713 66.7361L118.124 70.3762C118.124 70.3762 113.903 69.18 111.63 69.0091C109.357 68.8553 106.469 69.4876 106.469 69.4876L105.939 65.762Z" fill="#FFBBE2"/>
<path d="M79.5897 31.7365C79.5897 31.7365 77.5218 34.3513 76.3768 37.0514C75.2318 39.7516 74.5141 43.5968 74.1723 46.0406C73.8305 48.4844 74.0527 50.1079 74.0527 50.1079C74.0527 50.1079 77.0434 51.6631 77.539 51.9195C78.1542 50.7403 78.9061 47.7154 79.7093 45.1178C80.8885 41.3239 82.3582 35.5134 82.3582 35.5134C82.3582 35.5134 80.6493 33.5139 79.5897 31.7365Z" fill="#FF61AD"/>
<path d="M74.0709 50.1079L72.8575 53.8677L76.361 55.4741L77.7794 51.4409C77.7623 51.4751 76.3096 50.2447 74.0709 50.1079Z" fill="#FFBBE2"/>
</svg>
