<svg width="205" height="206" viewBox="0 0 205 206" fill="none" xmlns="http://www.w3.org/2000/svg">
<path d="M82.2897 171.484C81.8151 171.288 70.7333 166.59 72.2228 158.684C72.7303 155.967 74.1871 153.822 76.5443 152.284C77.3463 151.76 78.2303 151.334 79.2124 150.974C81.193 147.324 84.1067 144.59 87.9698 142.79C88.379 141.005 89.2465 139.385 90.6051 137.944C94.4354 133.885 101.147 132.15 106.892 131.446C106.974 129.383 107.432 127.337 108.283 125.357C113.129 113.98 105.812 108.055 102.44 106.041C97.5128 103.095 93.7316 103.57 93.6989 103.57L93.6007 102.899C93.7643 102.866 97.6437 102.375 102.784 105.452C106.303 107.564 113.947 113.751 108.889 125.619C108.103 127.485 107.662 129.416 107.563 131.364C110.575 131.02 113.292 130.971 115.093 130.971C127.975 131.037 136.962 136.864 137.895 142.217C138.222 144.148 137.813 147.733 131.233 150.123C130.529 150.368 129.825 150.581 129.105 150.728C129.203 151.056 129.285 151.383 129.35 151.727C129.972 155.312 128.008 158.684 123.932 160.959C120.397 162.94 116.108 163.48 111.803 163.054C111.819 163.169 111.819 163.3 111.836 163.414C111.934 166.197 109.855 168.423 105.976 169.667C96.8581 172.581 85.9891 168.603 80.7674 163.071C77.8537 159.977 76.8716 156.621 78.0174 153.609C78.2466 153.02 78.4922 152.447 78.7541 151.907C78.0993 152.185 77.4937 152.513 76.9208 152.873C74.711 154.297 73.3687 156.31 72.894 158.831C71.519 166.213 82.4371 170.846 82.5517 170.879L82.2897 171.484ZM79.7034 151.514C79.3106 152.251 78.9669 153.02 78.6559 153.839C77.6082 156.589 78.5249 159.699 81.2585 162.596C86.2346 167.85 97.0217 171.812 105.763 169.013C109.38 167.85 111.246 165.935 111.148 163.431C111.148 163.283 111.132 163.12 111.099 162.956C106.663 162.416 102.243 160.91 98.6423 158.946C94.2881 156.572 91.0307 153.626 89.2465 150.548C85.6126 150.27 82.3388 150.598 79.7034 151.514ZM111.705 162.35C115.944 162.792 120.151 162.285 123.605 160.353C127.402 158.225 129.252 155.115 128.679 151.825C128.614 151.498 128.548 151.17 128.434 150.843C122.721 151.792 116.583 149.648 112.147 144.95C111.033 143.772 110.084 142.511 109.315 141.169C100.623 140.252 93.7316 140.94 88.5754 143.264C88.4281 144.083 88.379 144.934 88.4281 145.818C88.5099 147.16 88.9355 148.535 89.6721 149.894C91.7018 150.057 93.8298 150.417 96.0396 150.941C104.24 152.906 110.69 157.669 111.705 162.35ZM90.0977 150.614C91.8655 153.429 94.9265 156.13 98.986 158.34C102.456 160.239 106.712 161.712 110.968 162.252C109.904 158.356 104.371 153.626 95.8759 151.596C93.8789 151.121 91.9474 150.794 90.0977 150.614ZM87.8224 143.624C84.5322 145.261 81.9951 147.602 80.1781 150.647C82.6662 149.91 85.6126 149.632 88.87 149.845C88.1989 148.519 87.8224 147.176 87.7406 145.867C87.7078 145.098 87.7242 144.345 87.8224 143.624ZM110.166 141.267C110.853 142.397 111.688 143.477 112.638 144.492C116.877 148.977 122.737 151.056 128.188 150.188C126.535 146.211 121.542 143.051 114.897 141.938C113.276 141.66 111.705 141.447 110.166 141.267ZM109.74 140.531C111.443 140.711 113.194 140.956 115.028 141.267C121.984 142.429 127.19 145.785 128.892 150.057C129.612 149.91 130.316 149.714 131.02 149.452C135.538 147.815 137.747 145.278 137.24 142.315C136.356 137.24 127.648 131.708 115.109 131.642C112.474 131.626 109.937 131.757 107.563 132.035C107.531 134.965 108.284 137.863 109.74 140.531ZM106.876 132.117C99.739 133.034 94.0917 135.243 91.1126 138.403C89.9831 139.598 89.1974 140.94 88.7882 142.413C93.9117 140.252 100.607 139.614 108.938 140.432C107.563 137.813 106.859 134.982 106.876 132.117Z" fill="#593D3D"/>
<path d="M79.813 171.91C79.813 170.633 80.5823 169.16 81.5317 168.62C81.9573 168.374 82.3502 168.358 82.6448 168.538L83.5451 169.045L83.2505 169.7C83.2505 169.782 83.2668 169.847 83.2668 169.929C83.2668 171.141 82.5629 172.499 81.679 173.121L81.3517 173.841L80.435 173.334V173.318C80.0585 173.088 79.813 172.614 79.813 171.91Z" fill="#352221"/>
<path d="M84.1826 170.437C84.1826 171.713 83.4132 173.187 82.4638 173.727C81.5144 174.283 80.7451 173.694 80.7451 172.417C80.7451 171.141 81.5144 169.667 82.4638 169.127C83.4132 168.571 84.1826 169.16 84.1826 170.437Z" fill="#472F2E"/>
<path d="M84.085 170.928C84.085 171.877 83.5122 172.99 82.7919 173.399C82.0717 173.809 81.4988 173.367 81.4988 172.417C81.4988 171.468 82.0717 170.355 82.7919 169.946C83.5122 169.536 84.085 169.978 84.085 170.928Z" fill="#5B3D3D"/>
<path d="M83.4006 171.157C83.4006 170.993 83.4989 170.813 83.6134 170.748C83.6625 170.731 83.6952 170.699 83.728 170.715L85.8069 171.91C85.9706 172.008 86.0197 172.205 85.9215 172.368C85.8232 172.532 85.6268 172.581 85.4631 172.483L83.4497 171.321C83.417 171.304 83.4006 171.239 83.4006 171.157Z" fill="#F4EBEA"/>
<path d="M82.2026 172.352C82.2026 172.188 82.3009 172.008 82.4154 171.943C82.4645 171.926 82.4973 171.893 82.53 171.91L84.6089 173.105C84.7726 173.203 84.8217 173.399 84.7235 173.563C84.6252 173.727 84.4288 173.776 84.2651 173.678L82.2517 172.515C82.2354 172.499 82.2026 172.434 82.2026 172.352Z" fill="#F4EBEA"/>
<path d="M54.9837 137.715L51.8736 135.947V135.964C51.4644 135.735 50.957 135.751 50.384 136.078C49.1073 136.815 48.0597 138.812 48.0597 140.514C48.0597 141.349 48.3052 141.955 48.7144 142.282H48.7308C48.7963 142.331 48.8781 142.364 48.9436 142.413L52.0046 144.165L54.9837 137.715Z" fill="#281818"/>
<path d="M55.8508 139.63C55.8508 141.349 54.8032 143.33 53.5264 144.066C52.2497 144.803 51.202 144.017 51.202 142.315C51.202 140.596 52.2497 138.616 53.5264 137.879C54.8032 137.126 55.8508 137.912 55.8508 139.63Z" fill="#3F2A28"/>
<path d="M54.9826 140.302C54.9826 141.235 54.4097 142.331 53.7058 142.74C53.002 143.15 52.4291 142.708 52.4291 141.775C52.4291 140.842 53.002 139.745 53.7058 139.336C54.4097 138.927 54.9826 139.368 54.9826 140.302Z" fill="#FED517"/>
<path d="M37.7855 127.976L34.6754 126.208V126.224C34.2662 125.995 33.7588 126.011 33.1859 126.339C31.9091 127.075 30.8615 129.072 30.8615 130.775C30.8615 131.61 31.107 132.215 31.5162 132.543H31.5326C31.5981 132.592 31.6799 132.624 31.7454 132.674L34.8064 134.425L37.7855 127.976Z" fill="#281818"/>
<path d="M38.6525 129.891C38.6525 131.61 37.6049 133.59 36.3281 134.327C35.0514 135.063 34.0038 134.278 34.0038 132.575C34.0038 130.857 35.0514 128.876 36.3281 128.139C37.6049 127.403 38.6525 128.172 38.6525 129.891Z" fill="#3F2A28"/>
<path d="M37.7879 130.562C37.7879 131.495 37.215 132.592 36.5111 133.001C35.8073 133.41 35.2344 132.968 35.2344 132.035C35.2344 131.102 35.8073 130.005 36.5111 129.596C37.215 129.203 37.7879 129.629 37.7879 130.562Z" fill="#FED517"/>
<path d="M83.1724 118.924C83.1724 114.684 85.7587 109.757 88.9342 107.907C89.7363 107.449 90.6857 107.204 91.455 107.204C92.0443 107.204 93.5666 107.269 95.1544 108.235C96.9713 109.348 97.1841 112.131 97.1841 112.131L90.7348 125.209C90.7348 125.209 88.656 126.241 86.5116 125.062C85.1858 124.325 84.3673 123.131 84.0072 122.459C83.8435 122.165 83.598 121.575 83.5325 121.346C83.3033 120.659 83.1724 119.857 83.1724 118.924Z" fill="#281818"/>
<path d="M97.3328 113.784C97.3328 118.023 94.7465 122.951 91.5709 124.8C88.3953 126.634 85.8091 124.686 85.8091 120.446C85.8091 116.207 88.3953 111.279 91.5709 109.43C94.7628 107.58 97.3328 109.528 97.3328 113.784Z" fill="#3F2A28"/>
<path d="M96.6439 114.635C96.6439 117.794 94.7288 121.445 92.3717 122.819C90.0146 124.178 88.0994 122.738 88.0994 119.578C88.0994 116.419 90.0146 112.769 92.3717 111.394C94.7288 110.035 96.6439 111.476 96.6439 114.635Z" fill="#FED517"/>
<path d="M91.1936 107.449C92.0612 106.942 92.8796 106.696 93.649 106.631V99.0519L70.2905 102.358C68.0153 102.26 65.8055 102.555 63.9722 103.259L29.0737 108.202V125.308C28.8773 127.223 30.1867 129.285 32.9367 130.873L44.264 137.404C48.9619 140.121 56.1315 140.416 60.191 138.059L85.7264 123.474C85.4317 122.607 85.268 121.592 85.268 120.413C85.2517 115.224 87.3142 109.692 91.1936 107.449Z" fill="#EFA500"/>
<path d="M92.7187 107.4C93.6354 106.876 94.4865 106.598 95.305 106.532V98.5609L70.7516 102.031C68.3618 101.933 66.0374 102.244 64.1059 102.964L27.4396 108.153V118.22V122.574C27.2431 124.587 28.6182 126.764 31.4991 128.418L43.3992 135.293C48.3263 138.141 55.8723 138.452 60.1446 135.98L84.6489 121.837C84.6489 121.837 85.1399 121.592 85.3527 121.461C85.3527 121.314 85.3527 120.937 85.3527 120.79C85.5982 115.552 88.8065 109.659 92.7187 107.4Z" fill="#FFB600"/>
<path d="M95.2868 98.0861V95.4016C95.2868 95.4016 94.8448 95.418 94.2556 95.4671C93.5681 94.534 92.5695 93.6338 91.2109 92.8644L79.3108 85.9895C74.3837 83.1413 66.8376 82.8303 62.5654 85.302L30.2696 103.946C29.3529 104.47 28.6818 105.092 28.2071 105.763L27.405 105.583L27.4214 107.793C27.2413 109.806 28.6163 111.967 31.4809 113.62L43.381 120.495C48.3081 123.343 55.8541 123.654 60.1264 121.183L92.4222 102.538C94.452 101.343 95.385 99.7393 95.2868 98.0861Z" fill="#352221"/>
<path d="M60.1248 118.465L92.4206 99.8213C96.6929 97.3496 96.1527 93.0118 91.2257 90.1473L79.3255 83.2723C74.3985 80.4241 66.8524 80.1131 62.5801 82.5848L30.2843 101.229C26.012 103.701 26.5522 108.038 31.4792 110.903L43.3794 117.778C48.3228 120.626 55.8525 120.937 60.1248 118.465Z" fill="#FED517"/>
<path d="M43.2473 98.1025L65.5254 85.2366C68.4718 83.5342 73.6607 83.747 77.0654 85.7113L85.2662 90.4419C86.8213 91.3422 87.7216 92.4553 87.9671 93.5683C88.36 92.0624 87.4433 90.3764 85.2662 89.116L77.0654 84.3854C73.6607 82.4211 68.4718 82.2083 65.5254 83.9107L43.2473 96.7603C41.6432 97.6769 41.0539 98.9864 41.3649 100.296C41.5941 99.4775 42.1997 98.7082 43.2473 98.1025Z" fill="#EFA500"/>
<path d="M44.0803 103.439L52.2811 108.169C55.6858 110.134 60.8748 110.346 63.8212 108.644L86.0992 95.7781C87.1468 95.1724 87.7525 94.4031 87.9816 93.5683C87.7197 92.4552 86.8358 91.3421 85.2808 90.4418L77.0799 85.7112C73.6752 83.747 68.4863 83.5342 65.5399 85.2365L43.2619 98.1025C42.2142 98.7081 41.6086 99.4774 41.3794 100.312C41.6249 101.409 42.5089 102.538 44.0803 103.439Z" fill="#FFB600"/>
<path d="M53.7579 114.455L77.2472 100.902C80.3573 99.101 79.9645 95.9418 76.3797 93.8793L67.7205 88.8868C64.1357 86.808 58.6522 86.5952 55.5421 88.3794L32.0528 101.933C28.9427 103.733 29.3355 106.893 32.9203 108.955L41.5794 113.948C45.1806 116.01 50.6478 116.239 53.7579 114.455Z" fill="#EFDFDF"/>
<path d="M53.3465 111.607L74.2168 99.5594C76.9832 97.9716 76.6231 95.1561 73.4475 93.3064L65.7541 88.8705C62.5622 87.0208 57.7006 86.8244 54.9343 88.4285L34.064 100.476C31.2976 102.064 31.6577 104.879 34.8333 106.729L42.5267 111.165C45.7186 112.998 50.5965 113.211 53.3465 111.607Z" fill="white"/>
<path d="M35.4738 101.556C35.4738 101.556 40.0406 101.998 43.5763 104.372C47.112 106.745 51.3515 110.707 51.3515 110.707L52.612 109.986C52.612 109.986 48.0287 105.207 44.493 103.259C40.9573 101.311 36.7014 100.787 36.7014 100.787L35.4738 101.556Z" fill="#EFDFDF"/>
<path d="M40.4657 98.6918C40.4657 98.6918 45.0326 99.1338 48.5683 101.507C52.104 103.881 56.3435 107.842 56.3435 107.842L57.6039 107.122C57.6039 107.122 53.0206 102.342 49.485 100.394C45.9493 98.4463 41.6934 97.9225 41.6934 97.9225L40.4657 98.6918Z" fill="#EFDFDF"/>
<path d="M45.4576 95.7454C45.4576 95.7454 50.0245 96.1873 53.5602 98.5608C57.0959 100.934 61.3354 104.896 61.3354 104.896L62.5959 104.175C62.5959 104.175 58.0125 99.3956 54.4769 97.4477C50.9412 95.4998 46.6853 94.976 46.6853 94.976L45.4576 95.7454Z" fill="#EFDFDF"/>
<path d="M50.4351 92.8972C50.4351 92.8972 55.002 93.3392 58.5377 95.7126C62.0734 98.0861 66.3129 102.047 66.3129 102.047L67.5733 101.327C67.5733 101.327 62.99 96.5475 59.4543 94.5996C55.9187 92.6517 51.6627 92.1279 51.6627 92.1279L50.4351 92.8972Z" fill="#EFDFDF"/>
<path d="M55.4271 90.049C55.4271 90.049 59.994 90.491 63.5297 92.8645C67.0654 95.238 71.3049 99.1992 71.3049 99.1992L72.5653 98.479C72.5653 98.479 67.982 93.6993 64.4463 91.7514C60.9107 89.8035 56.6548 89.2961 56.6548 89.2961L55.4271 90.049Z" fill="#EFDFDF"/>
<path d="M73.385 119.235L83.2882 113.506V110.756L73.385 116.468V119.235Z" fill="#352221"/>
<path d="M73.385 122.083L83.2882 116.37V114.995L73.385 120.708V122.083Z" fill="#352221"/>
<path d="M54.2466 151.269C47.9773 151.269 42.3628 149.337 37.3539 145.458C33.1962 142.249 30.9864 138.468 30.7572 134.196C30.3971 127.321 35.3242 122.181 35.3733 122.132C36.028 121.51 37.0593 121.543 37.6813 122.181C38.3033 122.836 38.2706 123.867 37.6322 124.489C36.9774 125.128 33.7527 129.318 34.031 134.081C34.2111 137.339 36.0116 140.301 39.3509 142.871C49.5323 150.712 62.1364 149.664 79.0618 139.549C92.7789 131.348 101.34 121.886 103.812 112.212C107.429 98.0043 99.3265 74.8914 90.8311 68.6549C88.3757 66.8379 86.1822 66.5924 84.1361 67.8528C80.7969 69.8989 76.6228 72.7962 73.5618 74.8914C72.1378 75.8736 70.9919 76.6593 70.2881 77.1176C67.2107 79.131 63.4459 84.1726 61.2034 87.1845C60.8269 87.6919 60.4831 88.1502 60.1721 88.5594C59.6319 89.2797 58.6007 89.4106 57.8805 88.8705C57.1602 88.3303 57.0293 87.299 57.5695 86.5788C57.8641 86.186 58.2078 85.744 58.5679 85.2366C61.0888 81.8482 64.9027 76.7247 68.4875 74.384C69.175 73.942 70.3045 73.1563 71.6958 72.1906C74.7895 70.0626 79.0127 67.1653 82.4174 65.0537C84.66 63.6787 88.2775 62.713 92.7462 66.0031C102.175 72.9272 110.916 97.4314 106.954 112.998C104.237 123.671 95.3979 133.541 80.715 142.331C70.7955 148.306 62.0054 151.269 54.2466 151.269Z" fill="#593D3D"/>
<path d="M22.4439 141.595L2.11377 151.269L26.4707 164.02L22.4439 141.595Z" fill="#C6AFAF"/>
<path d="M21.3006 140.989L0.970459 150.663L25.3274 163.414L21.3006 140.989Z" fill="#F4EBEA"/>
<path d="M0.967955 150.663L0.296875 152.202L25.3249 165.362L25.9633 165.641L26.4707 164.02L0.967955 150.663Z" fill="#C6AFAF"/>
<path d="M64.6418 76.4956C64.6418 76.4956 60.5332 81.128 58.2415 84.1726C56.7847 86.1205 52.5942 92.0624 52.5942 92.0624L56.7028 95.0252C56.7028 95.0252 60.8442 88.9523 62.5793 86.7589C63.8233 85.1711 68.4721 79.8185 68.4721 79.8185C68.4721 79.8185 67.5882 76.4956 64.6418 76.4956Z" fill="#352221"/>
<path d="M56.7532 94.9433C56.4258 95.418 55.2309 95.1725 54.0687 94.3868C52.9065 93.6011 52.2354 92.5862 52.5464 92.0951C52.8738 91.6204 54.0687 91.866 55.2309 92.6517C56.3931 93.4538 57.0806 94.4686 56.7532 94.9433Z" fill="#472F2E"/>
<path d="M55.9004 94.5996C55.6876 94.9106 54.9182 94.7469 54.1816 94.2394C53.445 93.732 53.0031 93.0773 53.2159 92.7826C53.4287 92.4716 54.198 92.6353 54.9346 93.1427C55.6712 93.6338 56.1131 94.2886 55.9004 94.5996Z" fill="#D8C4C3"/>
<path d="M53.2641 92.7223L14.5563 149.048L17.241 150.893L55.9488 94.5673L53.2641 92.7223Z" fill="#F4EBEA"/>
<path d="M25.3253 163.414L24.7688 165.068L25.9637 165.641L26.4712 164.02L25.3253 163.414Z" fill="#B29A9A"/>
<path d="M76.2795 88.6741C76.8491 88.6741 77.3108 88.4323 77.3108 88.1339C77.3108 87.8356 76.8491 87.5938 76.2795 87.5938C75.71 87.5938 75.2483 87.8356 75.2483 88.1339C75.2483 88.4323 75.71 88.6741 76.2795 88.6741Z" fill="#3F2A28"/>
<path d="M73.2889 85.8259C73.8618 85.8259 74.3201 86.0714 74.3201 86.366C74.3201 86.6607 73.8618 86.9062 73.2889 86.9062C72.716 86.9062 72.274 86.6607 72.274 86.366C72.2576 86.0714 72.716 85.8259 73.2889 85.8259Z" fill="#3F2A28"/>
<path d="M85.137 92.488C85.7099 92.488 86.1682 92.7335 86.1682 93.0282C86.1682 93.3228 85.7099 93.5683 85.137 93.5683C84.5641 93.5683 84.1221 93.3228 84.1221 93.0282C84.1058 92.7335 84.5641 92.488 85.137 92.488Z" fill="#3F2A28"/>
<path d="M82.1272 90.7529C82.7001 90.7529 83.1421 90.9985 83.1421 91.2931C83.1421 91.5877 82.6837 91.8333 82.1272 91.8333C81.5543 91.8333 81.0959 91.5877 81.0959 91.2931C81.0959 90.9985 81.5543 90.7529 82.1272 90.7529Z" fill="#3F2A28"/>
<path d="M79.1142 89.0014C79.6871 89.0014 80.1455 89.247 80.1455 89.5416C80.1455 89.8363 79.6871 90.0818 79.1142 90.0818C78.5413 90.0818 78.0994 89.8363 78.0994 89.5416C78.0994 89.247 78.5577 89.0014 79.1142 89.0014Z" fill="#3F2A28"/>
<path d="M70.2764 84.0908C70.8493 84.0908 71.3076 84.3363 71.3076 84.631C71.3076 84.9256 70.8493 85.1711 70.2764 85.1711C69.7035 85.1711 69.2451 84.9256 69.2451 84.631C69.2451 84.3363 69.7035 84.0908 70.2764 84.0908Z" fill="#3F2A28"/>
<path d="M66.0337 86.0878L73.5307 90.4255L75.1021 89.5089L67.6215 85.1875L66.0337 86.0878Z" fill="#3F2A28"/>
<path d="M74.9398 91.3258L82.4368 95.6635L84.0082 94.7469L76.5276 90.4255L74.9398 91.3258Z" fill="#3F2A28"/>
<path d="M196.575 122.885V168.931C196.575 169.405 197.312 169.798 198.212 169.798C199.112 169.798 199.849 169.405 199.849 168.931V122.885H196.575Z" fill="#3D2828"/>
<path d="M198.211 122.017C197.311 122.017 196.574 122.41 196.574 122.885C196.574 123.36 197.311 123.753 198.211 123.753C199.112 123.753 199.848 123.36 199.848 122.885C199.848 122.41 199.112 122.017 198.211 122.017Z" fill="#593D3D"/>
<path d="M197.036 122.754H199.344V110.51C199.344 106.238 196.709 101.262 193.468 99.3793L181.224 92.308C179.587 91.3586 177.934 91.2604 176.608 92.0297C175.069 92.9136 174.185 94.8451 174.185 97.3168V153.773H176.493V97.3168C176.493 95.7291 176.968 94.5014 177.754 94.0431C178.343 93.6993 179.178 93.8139 180.062 94.3213L192.305 101.393C194.859 102.866 197.02 107.04 197.02 110.51V122.754H197.036Z" fill="white"/>
<path d="M198.199 123.376C198.841 123.376 199.361 123.098 199.361 122.754C199.361 122.411 198.841 122.132 198.199 122.132C197.557 122.132 197.037 122.411 197.037 122.754C197.037 123.098 197.557 123.376 198.199 123.376Z" fill="#D8C4C3"/>
<path d="M204.09 172.925C204.09 172.925 204.09 177.704 201.814 179.129C199.49 180.585 194.776 170.731 194.776 170.731L203.664 171.763L204.09 172.925Z" fill="#2B1B1A"/>
<path d="M167.11 202.143C167.11 199.704 168.6 196.872 170.417 195.825C170.875 195.563 171.432 195.416 171.857 195.416C172.201 195.416 173.069 195.448 173.985 196.005C175.033 196.643 175.164 198.116 175.164 198.116L171.448 205.761C171.448 205.761 170.253 206.35 169.025 205.679C168.256 205.253 167.798 204.566 167.585 204.189C167.487 204.026 167.356 203.682 167.307 203.551C167.176 203.142 167.11 202.683 167.11 202.143Z" fill="#281818"/>
<path d="M175.231 199.197C175.231 201.636 173.741 204.468 171.924 205.515C170.091 206.563 168.618 205.45 168.618 203.011C168.618 200.572 170.107 197.74 171.924 196.692C173.758 195.628 175.231 196.758 175.231 199.197Z" fill="#3F2A28"/>
<path d="M174.018 200.146C174.018 201.488 173.199 203.027 172.201 203.616C171.202 204.189 170.384 203.584 170.384 202.241C170.384 200.899 171.202 199.361 172.201 198.771C173.199 198.198 174.018 198.82 174.018 200.146Z" fill="white"/>
<path d="M173.693 195.71H171.532V201.996C171.532 202.405 171.663 202.7 171.86 202.831L172.596 203.224L173.251 202.438L173.055 202.356C173.415 201.914 173.66 201.292 173.66 200.735V195.71H173.693Z" fill="#D8C4C3"/>
<path d="M172.202 195.71V202.34C172.202 203.125 172.693 203.502 173.283 203.158C173.872 202.814 174.363 201.898 174.363 201.096V195.71H172.202Z" fill="#EDDCDA"/>
<path d="M139.401 185.84C139.401 183.401 140.891 180.569 142.708 179.521C143.166 179.259 143.723 179.112 144.148 179.112C144.492 179.112 145.36 179.145 146.276 179.701C147.324 180.34 147.455 181.813 147.455 181.813L143.739 189.457C143.739 189.457 142.544 190.047 141.317 189.375C140.547 188.95 140.089 188.262 139.876 187.886C139.778 187.722 139.647 187.378 139.598 187.247C139.467 186.838 139.401 186.364 139.401 185.84Z" fill="#281818"/>
<path d="M147.536 182.877C147.536 185.316 146.047 188.148 144.23 189.195C142.396 190.243 140.923 189.13 140.923 186.691C140.923 184.252 142.413 181.42 144.23 180.373C146.047 179.325 147.536 180.438 147.536 182.877Z" fill="#3F2A28"/>
<path d="M146.308 183.843C146.308 185.185 145.49 186.724 144.491 187.313C143.493 187.886 142.674 187.28 142.674 185.938C142.674 184.596 143.493 183.057 144.491 182.468C145.49 181.895 146.308 182.517 146.308 183.843Z" fill="white"/>
<path d="M145.98 179.407H143.819V185.692C143.819 186.102 143.95 186.396 144.147 186.527L144.883 186.92L145.538 186.134L145.342 186.053C145.702 185.611 145.947 184.989 145.947 184.432V179.407H145.98Z" fill="#D8C4C3"/>
<path d="M144.493 179.407V186.036C144.493 186.822 144.968 187.198 145.573 186.855C146.163 186.511 146.654 185.594 146.654 184.792V179.407H144.493Z" fill="#EDDCDA"/>
<path d="M191.309 183.908C191.309 179.865 193.764 175.167 196.792 173.416C197.561 172.974 198.462 172.745 199.198 172.745C199.771 172.745 201.212 172.794 202.718 173.727C204.453 174.791 204.665 177.426 204.665 177.426L198.511 189.883C198.511 189.883 196.53 190.865 194.484 189.736C193.207 189.048 192.454 187.886 192.094 187.247C191.947 186.969 191.701 186.413 191.636 186.2C191.423 185.561 191.309 184.792 191.309 183.908Z" fill="#281818"/>
<path d="M204.799 178.998C204.799 183.041 202.344 187.739 199.315 189.49C196.287 191.241 193.832 189.375 193.832 185.332C193.832 181.289 196.287 176.591 199.315 174.84C202.344 173.105 204.799 174.954 204.799 178.998Z" fill="#3F2A28"/>
<path d="M202.75 180.602C202.75 182.811 201.408 185.381 199.738 186.347C198.085 187.313 196.727 186.282 196.727 184.072C196.727 181.862 198.069 179.292 199.738 178.326C201.408 177.361 202.75 178.375 202.75 180.602Z" fill="white"/>
<path d="M202.504 181.322C202.504 182.844 201.588 184.596 200.442 185.25C199.313 185.905 198.38 185.218 198.38 183.695C198.38 182.173 199.296 180.422 200.442 179.767C201.588 179.112 202.504 179.8 202.504 181.322Z" fill="#3F2A28"/>
<path d="M192.205 183.073L190.945 178.474L171.188 167.065C167.652 165.035 162.267 164.806 159.222 166.574L143.344 175.74V175.576H138.041V180.88H138.057C138.172 182.157 139.154 183.483 140.954 184.514L163.036 197.265C166.572 199.295 171.957 199.524 175.002 197.756L192.222 187.82C192.058 187.133 191.976 186.38 191.976 185.545C191.976 184.743 192.058 183.908 192.205 183.073Z" fill="#352221"/>
<path d="M169.552 156.212C168.651 156.409 167.817 156.703 167.113 157.096L140.088 172.745C137.027 174.512 137.42 177.623 140.955 179.652L163.037 192.404C166.573 194.433 171.958 194.663 175.002 192.895L192.206 183.057C192.206 181.682 194.22 171.271 194.563 170.797L169.404 156.278L169.552 156.212Z" fill="#472F2E"/>
<path d="M168.998 156.065L171.715 143.15L168.998 141.578C168.998 141.578 167.083 142.691 163.236 144.901C159.39 147.127 158.375 147.258 155.674 152.938C153.349 157.833 150.992 164.937 150.37 166.803L153.088 168.374L168.998 156.065Z" fill="#593D3D"/>
<path d="M171.714 157.62V143.133C171.714 143.133 169.799 144.246 165.953 146.456C162.106 148.682 161.091 148.813 158.39 154.493C156.066 159.388 153.709 166.492 153.087 168.358L171.714 157.62Z" fill="#352221"/>
<path d="M167.543 159.339C157.148 159.339 148.735 154.853 148.735 149.337V176.002C148.735 181.535 157.165 186.003 167.543 186.003C177.937 186.003 186.35 181.518 186.35 176.002V149.337C186.35 154.853 177.937 159.339 167.543 159.339Z" fill="white"/>
<path d="M148.733 149.337C148.733 154.87 157.163 159.339 167.541 159.339C177.935 159.339 186.349 154.853 186.349 149.337V122.803H148.717V149.337H148.733Z" fill="#352221"/>
<path d="M148.733 146.505C148.733 152.038 157.163 156.507 167.541 156.507C177.935 156.507 186.349 152.022 186.349 146.505V119.971H148.717V146.505H148.733Z" fill="#975ECF"/>
<path d="M167.538 175.953C157.144 175.953 148.73 171.468 148.73 165.952V167.572C148.73 173.105 157.16 177.574 167.538 177.574C177.932 177.574 186.346 173.088 186.346 167.572V165.952C186.346 171.468 177.932 175.953 167.538 175.953Z" fill="#CCB5B4"/>
<path d="M167.538 170.142C157.144 170.142 148.73 165.657 148.73 160.141V161.761C148.73 167.294 157.16 171.763 167.538 171.763C177.932 171.763 186.346 167.277 186.346 161.761V160.141C186.346 165.657 177.932 170.142 167.538 170.142Z" fill="#CCB5B4"/>
<path d="M195.708 170.093L204.072 161.728L201.355 160.157C201.355 160.157 199.44 161.27 195.593 163.48C191.746 165.706 190.732 165.837 188.031 171.517C185.706 176.411 183.349 183.515 182.727 185.381L185.444 186.953L191.206 182.484L195.708 170.093Z" fill="#593D3D"/>
<path d="M186.707 108.513C186.707 108.448 186.69 108.399 186.69 108.333V108.693C186.69 108.628 186.707 108.562 186.707 108.513Z" fill="#352221"/>
<path d="M156.589 147.929L148.241 143.117V134.949L156.589 139.761V147.929Z" fill="#3D2828"/>
<path d="M151.252 133.263L148.24 134.949L156.588 139.761L159.584 138.075L151.252 133.263Z" fill="#593D3D"/>
<path d="M156.59 139.761V147.929L159.585 146.243V138.075L156.59 139.761Z" fill="#352221"/>
<path d="M198.771 172.565C200.932 171.321 202.847 171.55 204.091 172.925V161.745C204.091 161.745 202.176 162.858 198.329 165.068C194.483 167.294 193.468 167.425 190.767 173.105C188.443 177.999 186.085 185.103 185.463 186.969L192.207 183.073C192.993 178.768 195.628 174.382 198.771 172.565Z" fill="#352221"/>
<path d="M156.162 187.215L147.814 182.402V167.638L156.162 172.45V187.215Z" fill="#3D2828"/>
<path d="M150.826 165.952L147.814 167.638L156.162 172.45L159.158 170.764L150.826 165.952Z" fill="#593D3D"/>
<path d="M156.163 172.45V187.215L159.159 185.529V170.764L156.163 172.45Z" fill="#352221"/>
<path d="M156.636 194.057C155.817 194.057 154.982 193.926 154.164 193.681C149.548 192.306 147.78 189.654 147.109 187.673C145.93 184.203 147.011 179.636 150.023 175.429C150.465 174.824 151.316 174.676 151.921 175.118C152.527 175.56 152.674 176.411 152.232 177.017C150.301 179.701 148.631 183.679 149.679 186.789C150.366 188.786 152.134 190.227 154.95 191.078C156.636 191.585 158.305 191.34 159.909 190.358C163.216 188.328 165.786 183.532 166.948 177.181C168.388 169.307 167.685 152.038 167.21 140.613C167.046 136.619 166.915 133.459 166.915 131.61C166.915 130.857 167.521 130.251 168.274 130.251C169.027 130.251 169.632 130.857 169.632 131.61C169.632 133.394 169.763 136.537 169.927 140.498C170.402 152.038 171.106 169.504 169.616 177.672C168.323 184.776 165.295 190.243 161.317 192.682C159.828 193.582 158.24 194.057 156.636 194.057Z" fill="#593D3D"/>
<path d="M188.648 121.821V119.415H188.075C185.866 114.455 177.518 110.772 167.533 110.772C157.547 110.772 149.183 114.455 146.99 119.415H146.4V122.017C146.4 128.221 155.862 133.263 167.549 133.263C179.22 133.263 188.697 128.221 188.697 122.017C188.665 121.952 188.648 121.887 188.648 121.821Z" fill="#352221"/>
<path d="M167.534 107.727C155.863 107.727 146.386 112.769 146.386 118.973C146.386 125.177 155.847 130.218 167.534 130.218C179.205 130.218 188.683 125.177 188.683 118.973C188.667 112.753 179.205 107.727 167.534 107.727Z" fill="#472F2E"/>
<path d="M167.535 123.523C157.534 123.523 149.382 119.382 148.776 114.144H148.744C148.744 114.291 148.727 114.455 148.727 114.602V118.351H148.793C149.398 123.589 157.55 127.73 167.552 127.73C177.946 127.73 186.359 123.245 186.359 117.729V114.602C186.359 114.357 186.327 114.128 186.327 113.898C185.934 119.251 177.684 123.523 167.535 123.523Z" fill="#975ECF"/>
<path d="M169.807 98.0534H165.273C156.335 98.0534 149.002 105.256 148.757 114.128H148.789C149.395 119.366 157.547 123.507 167.548 123.507C177.697 123.507 185.947 119.235 186.323 113.882C185.93 105.125 178.663 98.0534 169.807 98.0534Z" fill="#352221"/>
<path d="M170.386 191.896C172.194 191.896 173.66 191.112 173.66 190.145C173.66 189.177 172.194 188.393 170.386 188.393C168.578 188.393 167.112 189.177 167.112 190.145C167.112 191.112 168.578 191.896 170.386 191.896Z" fill="#3D2828"/>
<path d="M143.54 174.136C141.723 174.136 140.266 174.922 140.266 175.888C140.266 176.853 141.739 177.639 143.54 177.639C145.357 177.639 146.814 176.853 146.814 175.888C146.814 174.922 145.357 174.136 143.54 174.136Z" fill="#3D2828"/>
<path d="M178.337 105.158L158.678 116.501C161.166 117.565 164.325 118.204 167.779 118.204C175.816 118.204 182.331 114.733 182.331 110.461C182.331 108.415 180.808 106.533 178.337 105.158Z" fill="#472F2E"/>
<path d="M158.701 116.501C158.701 116.501 158.701 109.855 167.54 105.158C175.381 100.983 178.36 105.158 178.36 105.158L158.701 116.501Z" fill="#3D2828"/>
<path d="M165.394 114.471C164.674 114.471 164.069 114.782 164.069 115.175C164.069 115.568 164.658 115.879 165.394 115.879C166.115 115.879 166.72 115.568 166.72 115.175C166.704 114.782 166.115 114.471 165.394 114.471Z" fill="#D8C4C3"/>
<path d="M169.272 112.229C168.552 112.229 167.946 112.54 167.946 112.933C167.946 113.326 168.536 113.637 169.272 113.637C169.993 113.637 170.598 113.326 170.598 112.933C170.598 112.54 170.009 112.229 169.272 112.229Z" fill="#D8C4C3"/>
<path d="M173.139 109.954C172.419 109.954 171.813 110.265 171.813 110.658C171.813 111.05 172.403 111.361 173.139 111.361C173.859 111.361 174.465 111.05 174.465 110.658C174.465 110.281 173.876 109.954 173.139 109.954Z" fill="#D8C4C3"/>
<path d="M177.032 107.727C176.311 107.727 175.706 108.038 175.706 108.431C175.706 108.824 176.295 109.135 177.032 109.135C177.768 109.135 178.357 108.824 178.357 108.431C178.341 108.038 177.752 107.727 177.032 107.727Z" fill="#D8C4C3"/>
<path d="M180.748 111.427L171.106 116.992L169.06 115.83L178.718 110.248L180.748 111.427Z" fill="#D8C4C3"/>
<path d="M105.727 25.6538L98.5087 20.9396C98.5087 20.9396 94.5801 22.9529 92.534 25.6538C90.4879 28.3547 89.1293 32.8725 90.0296 35.6061C87.918 41.6298 87.4433 51.975 87.165 54.1684C85.7409 60.4377 81.8288 79.7202 81.8942 83.1904C83.0401 84.7782 86.674 87.6428 89.1293 85.2038C91.5846 82.7649 98.345 47.359 98.345 47.359L97.3629 46.9825C101.324 37.3412 105.727 25.6538 105.727 25.6538Z" fill="#F4EBEA"/>
<path d="M81.8805 83.1904C81.8805 83.1904 80.5382 86.0877 79.6543 87.7737C78.7704 89.4597 78.9505 92.8808 79.6543 94.9924C80.3582 97.104 83.3373 99.0191 86.2019 96.04C89.0664 93.0609 88.2808 85.1056 88.2808 85.1056C88.2808 85.1056 84.1558 84.8928 81.8805 83.1904Z" fill="#FFC9B6"/>
<path d="M91.9741 64.088C91.9741 64.088 85.6885 80.1131 84.7227 86.5952C83.757 93.0773 81.7927 102.899 80.6305 111.067C79.4519 119.235 79.4683 127.19 80.0249 135.162C80.2377 138.321 81.3999 146.604 80.7942 151.089C81.4817 154.019 88.3239 154.379 89.1423 150.974C89.6498 148.862 94.9042 130.218 95.4443 124.342C95.9681 118.465 94.5932 114.275 94.5932 114.275C94.5932 114.275 103.154 95.9582 106.15 88.7559C109.145 81.5536 107.115 72.6162 107.115 72.6162L91.9741 64.088Z" fill="#2C1D1B"/>
<path d="M89.016 150.188C89.016 150.188 89.2452 152.12 89.8508 154.133C90.4565 156.147 89.7198 158.962 89.7198 158.962C89.7198 158.962 89.2779 160.206 87.4118 160.566C85.6767 160.91 84.2526 160.484 84.2526 160.484C84.2526 160.484 82.5339 162.547 80.2914 164.135C78.0489 165.722 73.1054 166.95 71.7632 166.737C69.6025 166.41 68.4403 164.724 68.604 163.627C68.7677 162.53 71.3212 159.519 73.4164 158.209C74.7751 157.358 77.8688 154.493 78.8018 153.495C80.3405 151.842 81.47 150.008 81.47 150.008L89.016 150.188Z" fill="#2C1D1B"/>
<path d="M121.246 166.623C121.246 166.623 122.409 170.928 122.261 173.416C122.114 175.904 121.525 176.493 120.772 177.344C120.019 178.179 119.135 177.819 119.135 177.819C119.135 177.819 118.791 182.959 116.352 185.021C113.913 187.1 109.51 187.297 107.48 186.544C105.45 185.791 106.793 182.108 108.773 178.506C110.754 174.905 113.291 171.026 113.913 167.768C118.758 167.097 121.246 166.623 121.246 166.623Z" fill="#2C1D1B"/>
<path d="M114.468 70.7173C114.468 70.7173 117.545 75.0715 120.001 82.7157C121.719 88.1011 121.441 101 121.441 101C121.441 101 121.883 113.702 121.065 118.089C120.246 122.476 120.312 123.376 120.312 123.376C120.312 123.376 123.831 133.901 123.291 146.358C122.751 158.815 121.736 167.736 121.736 167.736C121.736 167.736 121.048 170.093 117.84 170.42C114.926 170.715 112.798 168.702 112.798 168.702C112.798 168.702 107.462 142.348 105.482 136.324C103.501 130.316 102.781 123.392 102.781 123.392L98.7376 93.7975C98.7376 93.7975 90.7332 88.5758 94.8418 75.3988C97.3953 67.1326 114.468 70.7173 114.468 70.7173Z" fill="#3F2A28"/>
<path d="M124.845 37.0629C120.884 29.1731 108.967 23.5095 100.39 24.7535C96.2815 28.0273 94.3827 30.2044 92.9095 34.1329C91.5673 37.685 90.9944 41.8754 91.4363 45.5748C92.7295 56.7056 90.0941 67.5254 89.1283 71.7813C93.6788 76.5283 99.7026 79.622 106.365 80.7679C109.982 81.3899 112.618 80.0313 116.137 78.7381C116.661 78.5417 116.89 78.1979 116.955 77.6741C118.15 68.6876 121.244 61.1416 124.354 52.728C126.007 48.1938 127.104 41.5644 124.845 37.0629Z" fill="white"/>
<path d="M100.391 24.7372C100.391 24.7372 97.8044 27.7981 95.971 31.2356C94.1705 34.5912 93.7121 38.4379 93.7121 38.4379L105.121 44.6254C105.121 44.6254 109.148 37.6686 112.045 34.2148C115.205 30.4499 116.989 28.944 116.989 28.944L118.969 30.3681C118.969 30.3681 115.221 34.5749 113.404 37.9141C112.487 39.6165 109.295 44.6254 108.526 48.7503C108.231 50.3381 109.197 59.3737 109.803 64.0716C110.867 72.4361 118.233 70.9629 118.233 70.9629C118.233 70.9629 119.64 76.692 121.441 85.9404C122.751 92.7008 122.587 98.8391 122.44 109.119C122.325 116.959 121.916 126.093 121.916 126.093C121.916 126.093 109.786 129.924 101.635 128.532C91.6496 126.83 84.3819 122.476 81.9102 120.806C78.0471 118.203 76.6721 115.159 76.6721 115.159C76.6721 115.159 80.6334 100.23 84.2182 85.9241C86.6572 76.2173 87.1646 70.7174 88.4086 64.0716C89.2107 59.8484 90.1764 50.8619 90.2747 45.0346C90.3729 39.2073 93.3357 30.1716 95.2672 27.1925C97.919 23.0839 100.227 22.3637 100.227 22.3637L100.391 24.7372Z" fill="#AA83E2"/>
<path d="M102.88 19.8428C102.88 19.8428 103.699 25.2609 101.718 27.1433C99.7375 29.0258 99.7211 32.8888 103.699 34.182C108.528 35.7534 111.932 32.2832 114.944 29.8769C113.651 27.127 113.013 27.1433 113.013 19.4172C112.98 13.1316 102.88 19.8428 102.88 19.8428Z" fill="#F9BBA7"/>
<path d="M73.7887 197.576V194.695H69.942L50.8068 183.646C49.7592 183.041 47.8931 183.123 46.6818 183.81L42.164 186.413V186.282L38.2355 186.576L38.2518 189.294C38.1863 189.736 38.4155 190.161 38.9557 190.472L61.2174 203.322C62.265 203.927 64.131 203.846 65.3423 203.158L72.7738 198.869C73.445 198.509 73.7723 198.035 73.7887 197.576Z" fill="#352221"/>
<path d="M38.9719 187.624L61.2336 200.474C62.2812 201.079 64.1473 200.997 65.3586 200.31L72.79 196.021C74.0013 195.317 74.1323 194.253 73.0847 193.648L50.823 180.798C49.7754 180.192 47.9093 180.274 46.698 180.962L39.2666 185.25C38.0553 185.938 37.9243 187.018 38.9719 187.624Z" fill="#472F2E"/>
<path d="M57.1254 189.686L55.1448 186.92C62.167 181.895 62.9855 180.078 67.5851 169.896C70.5806 163.267 77.1446 146.636 82.9228 131.953C88.3736 118.138 93.5134 105.076 95.1503 101.704L95.5268 100.918C99.128 93.5029 101.109 89.4106 106.167 87.299C110.717 85.4002 119.916 81.3244 120.015 81.2753L121.39 84.3854C121.291 84.4181 112.059 88.5267 107.476 90.4419C103.597 92.046 102.025 95.2871 98.5878 102.391L98.2113 103.177C96.6235 106.434 91.5001 119.431 86.082 133.181C79.9927 148.617 73.7071 164.577 70.6789 171.271C66.112 181.404 64.8842 184.137 57.1254 189.686Z" fill="white"/>
<path d="M54.2607 188.999C53.1967 188.082 53.6387 187.084 55.7666 185.25C57.4035 183.843 60.8246 181.256 62.6416 178.343C64.9005 174.742 73.8379 152.594 77.0953 144.361C77.6191 143.051 82.3497 144.934 81.8423 146.243C80.631 149.321 69.8766 176.395 66.9793 181.06C63.8529 186.052 59.6952 188.688 59.4496 188.884C58.4348 189.686 56.0613 190.554 54.2607 188.999Z" fill="#593D3D"/>
<path d="M78.5513 143.019L78.0602 144.23C77.8966 144.672 78.4858 145.294 79.3861 145.621C80.27 145.949 81.1212 145.851 81.2849 145.425L81.7596 144.181L78.5513 143.019Z" fill="#D8C4C3"/>
<path d="M62.9709 189.965V187.689C62.9709 187.689 60.3191 188.41 59.0424 189.686C57.7656 190.963 56.9144 193.615 56.9144 193.615L62.9709 189.965Z" fill="#352221"/>
<path d="M59.3676 190.145C60.8899 188.917 62.9523 187.689 62.9687 187.689L55.1444 183.041C55.1444 183.041 53.0819 184.268 51.5432 185.512C50.3319 186.495 49.1042 188.983 49.1042 188.983L56.9286 193.631C56.9286 193.615 58.1399 191.127 59.3676 190.145Z" fill="#593D3D"/>
<path d="M131.045 194.859C130.538 194.859 130.03 194.826 129.49 194.761C124.645 194.188 120.995 191.929 118.654 188.05C114.054 180.422 114.938 166.934 121.076 151.007C122.173 148.142 123.548 144.868 125.005 141.398C130.865 127.37 138.166 109.904 136.774 99.5921C135.808 92.488 133.582 87.7246 130.145 85.433C127.182 83.4687 123.843 83.7797 121.584 84.4017C116.673 85.7276 111.664 88.0193 111.615 88.052C110.977 88.3467 110.224 88.0684 109.929 87.43C109.635 86.7916 109.913 86.0386 110.551 85.744C110.764 85.6458 115.806 83.3378 120.913 81.9628C124.89 80.8824 128.59 81.3571 131.552 83.3214C135.628 86.0386 138.247 91.3913 139.311 99.2647C140.801 110.265 133.353 128.074 127.378 142.397C125.938 145.851 124.563 149.124 123.483 151.94C117.721 166.885 116.739 179.898 120.864 186.74C122.779 189.916 125.791 191.765 129.817 192.24C132.371 192.535 134.45 191.962 136.152 190.456C141.963 185.316 142.061 170.633 142.127 161.859C142.143 159.339 142.16 157.145 142.291 155.656C143.747 139.974 151.67 139.794 152.014 139.794C152.717 139.794 153.29 140.367 153.29 141.071C153.29 141.775 152.717 142.348 152.014 142.348C151.981 142.348 146.055 142.724 144.844 155.885C144.713 157.26 144.697 159.404 144.68 161.876C144.615 171.681 144.517 186.478 137.855 192.371C135.923 194.024 133.664 194.859 131.045 194.859Z" fill="#593D3D"/>
<path d="M129.557 42.5956C129.262 35.7698 121.831 32.8725 121.831 32.8725C121.831 32.8725 116.511 37.1939 117.28 51.7131C117.575 53.0717 119.638 54.3648 120.26 55.7398C119.998 61.338 121.258 64.088 123.386 66.8543C121.504 68.082 117.084 75.2024 114.383 78.7381C118.328 79.8676 118.263 84.3199 118.263 84.3199C118.263 84.3199 128.379 79.7366 133.568 73.4673C135.679 70.8974 134.943 68.4421 135.745 65.6594C137.283 60.3395 129.819 48.6685 129.557 42.5956Z" fill="#F4EBEA"/>
<path d="M113.161 24.5735C113.161 24.5735 112.228 27.8473 109.739 29.7297C106.728 31.9886 101.064 32.3651 101.064 33.9201C102.701 33.9201 103.028 34.0183 103.028 35.1969C103.028 37.4231 103.683 37.9305 103.683 37.9305C103.683 37.9305 107.775 36.7683 110.705 35.5406C114.388 34.002 116.074 28.8949 116.074 28.8949C116.074 28.8949 115.354 24.3607 113.161 24.5735Z" fill="#F4EBEA"/>
<path d="M101.061 24.7372C101.061 24.7372 98.6708 27.3398 97.6396 28.5348C96.6083 29.7297 97.214 31.9395 96.7066 32.9216C96.1992 33.9038 95.97 34.5749 95.97 34.5749C95.97 34.5749 98.0979 34.1493 98.5235 32.9216C98.9327 31.694 101.077 33.9038 101.077 33.9038L102.583 32.6597C102.583 32.6597 100.308 31.2029 101.077 29.6478C101.846 28.0928 103.123 26.0467 103.123 26.0467L101.061 24.7372Z" fill="#F4EBEA"/>
<path d="M111.609 6.46946C108.613 3.16294 100.74 1.80432 97.9079 6.64951C95.7799 10.2998 95.6981 16.7982 96.271 19.7774C97.4823 26.0466 102.622 29.7788 108.548 24.9663C114.211 20.3666 116.765 12.1822 111.609 6.46946Z" fill="#FFC9B6"/>
<path d="M118.107 10.6108C117.616 8.48284 114.85 5.70013 112.296 6.22393C112.771 3.91592 111.69 1.14959 109.219 0.412989C104.063 -1.12569 99.3483 2.04988 94.3721 3.16296C92.9644 3.47397 92.588 4.25967 95.0269 5.74924C93.6847 5.86382 92.4406 6.60043 92.6207 8.12273C92.7516 9.18671 93.4718 9.69414 94.3721 9.92331C92.9971 11.9203 94.9778 13.6063 96.8438 14.3429C99.9867 15.5869 104.259 15.5378 107.074 13.5245C107.729 16.4381 110.315 20.1702 113 20.9232C115.668 19.008 118.811 13.6554 118.107 10.6108Z" fill="#2C1D1B"/>
<path d="M108.515 17.6494C108.515 17.6494 110.25 15.0304 111.772 17.0274C113.311 19.0244 110.152 20.9559 110.152 20.9559L108.515 17.6494Z" fill="#FFC9B6"/>
<path d="M98.344 72.4525C98.9987 72.4852 102.125 75.137 105.546 75.628C109.328 76.1682 111.095 75.2679 112.503 74.6295C111.603 74.5968 109.197 75.006 105.726 74.0893C102.24 73.1727 98.344 72.4525 98.344 72.4525Z" fill="#946DD1"/>
<path d="M114.746 78.2634C112.848 79.6057 111.325 80.997 109.525 81.6681C107.331 82.4866 106.415 82.5521 105.17 84.3035C103.926 86.055 104.663 88.0356 104.663 88.0356L107.609 86.6934C107.609 86.6934 108.493 88.3794 107.38 89.7053C106.758 90.4419 104.565 92.3407 104.565 92.3407C104.565 92.3407 107.626 94.665 112.029 93.0609C116.416 91.4567 115.548 88.4449 116.907 86.3824C118.266 84.3199 119.444 83.747 119.444 83.747C119.444 83.747 120.115 82.5848 118.675 80.6205C116.825 78.1161 116.039 78.2634 114.746 78.2634Z" fill="#FFC9B6"/>
<path d="M92.5984 63.3677C92.5984 63.3677 94.6609 66.2323 97.4927 67.9346C100.324 69.637 103.107 70.1608 103.107 70.1608C103.107 70.1608 100.177 67.8528 98.3439 66.4123C96.5106 64.9555 92.5984 63.3677 92.5984 63.3677Z" fill="#946DD1"/>
<path d="M106.693 95.7454C106.693 95.7454 103.714 103.684 101.062 110.674C99.5725 114.602 97.2153 119.971 97.2153 119.971C97.2153 119.971 100.391 118.22 103.124 112.229C106.071 105.698 106.693 95.7454 106.693 95.7454Z" fill="#946DD1"/>
</svg>
