<svg width="197" height="209" viewBox="0 0 197 209" fill="none" xmlns="http://www.w3.org/2000/svg">
<path d="M47.3088 146.132V157.46C47.3088 158.837 49.4075 159.965 52.0251 159.965C54.6203 159.965 56.7415 158.837 56.7415 157.46V146.132H47.3088Z" fill="#352221"/>
<path d="M2.50293 119.956V131.284C2.50293 132.66 4.60157 133.789 7.21924 133.789C9.81434 133.789 11.9355 132.66 11.9355 131.284V119.956H2.50293Z" fill="#352221"/>
<path d="M99.126 116.435V127.763C99.126 129.14 101.225 130.268 103.842 130.268C106.437 130.268 108.559 129.14 108.559 127.763V116.435H99.126Z" fill="#352221"/>
<path d="M0.851562 54.6718L52.0089 84.2109L111.087 50.0909L59.9297 20.5519L0.851562 54.6718Z" fill="#F4EBEA"/>
<path d="M0.851562 124.379L52.0089 153.918L111.087 119.798L59.9297 90.2586L0.851562 124.379Z" fill="#DEC9C5"/>
<path d="M111.088 50.0907V119.797L52.0098 153.917V84.2107L111.088 50.0907Z" fill="#DDC9C7"/>
<path d="M57.6965 85.5421L106.417 57.4247V72.6569L57.6965 100.774V85.5421Z" fill="white"/>
<path d="M57.6965 104.791L106.417 76.6737V118.015L57.6965 146.132V104.791Z" fill="white"/>
<path d="M0.851562 54.6716V124.378L52.0089 153.917V84.2107L0.851562 54.6716Z" fill="#EDDCDA"/>
<path d="M72.9712 81.6384C72.9712 81.2097 73.242 80.7132 73.5579 80.5327C73.6933 80.4424 73.8287 80.465 73.919 80.5101L73.9415 80.5327C73.9415 80.5327 73.9641 80.5327 73.9641 80.5553L76.9654 82.3606C78.0485 82.9924 79.7862 83.0827 80.6888 82.5411L92.7165 75.5907C92.9422 75.4553 93.0776 75.3199 93.0776 75.2071C93.0776 75.0717 92.9422 74.7783 92.4006 74.4624L89.2865 72.6797C89.1737 72.612 89.0834 72.454 89.0834 72.2284C89.0834 71.7996 89.3542 71.3032 89.6701 71.1226C89.8055 71.0324 89.9409 71.0324 90.0538 71.1001L93.2807 72.9505C94.2736 73.5146 94.8603 74.3496 94.8378 75.2297C94.8378 75.9969 94.3864 76.6965 93.5966 77.1478L81.5689 84.0982C80.8919 84.4818 80.0344 84.6849 79.1092 84.6849C78.0486 84.6849 76.9428 84.4141 76.0627 83.9176L73.1743 82.18C73.1743 82.18 73.1743 82.18 73.1743 82.1575C73.0614 82.0446 72.9712 81.8867 72.9712 81.6384Z" fill="#422C2A"/>
<path d="M72.9712 100.865C72.9712 100.436 73.242 99.9395 73.5579 99.759C73.6933 99.6687 73.8287 99.6913 73.919 99.7364L73.9415 99.759C73.9415 99.759 73.9641 99.759 73.9641 99.7816L76.9654 101.587C78.0485 102.219 79.7862 102.309 80.6888 101.767L92.7165 94.817C92.9422 94.6816 93.0776 94.5462 93.0776 94.4334C93.0776 94.298 92.9422 94.0047 92.4006 93.6887L89.2865 91.8834C89.1737 91.8157 89.0834 91.6578 89.0834 91.4321C89.0834 91.0034 89.3542 90.5069 89.6701 90.3264C89.8055 90.2361 89.9409 90.2361 90.0538 90.3038L93.2807 92.1542C94.2736 92.7184 94.8603 93.5533 94.8378 94.4334C94.8378 95.2007 94.3864 95.9002 93.5966 96.3515L81.5689 103.302C80.8919 103.686 80.0344 103.889 79.1092 103.889C78.0486 103.889 76.9428 103.618 76.0627 103.121L73.1743 101.384C73.0614 101.271 72.9712 101.113 72.9712 100.865Z" fill="#422C2A"/>
<path d="M6.74273 124.401C6.29141 123.543 5.84009 122.708 5.61443 121.761C5.4339 120.926 5.52419 120.045 5.2534 119.256C5.1857 119.03 4.86977 118.985 4.75694 119.188C3.74146 120.88 4.73435 123.679 5.86266 125.1C6.26885 125.619 7.03609 124.942 6.74273 124.401Z" fill="#CEB7B6"/>
<path d="M11.6891 123.927C10.9219 123.182 9.88382 122.46 8.80065 122.415C8.50729 122.393 8.39444 122.776 8.57497 122.979C9.22939 123.747 10.1546 124.311 10.8542 125.033C11.4409 125.62 11.8019 126.567 12.6369 126.77C12.8174 126.815 13.0205 126.725 13.0656 126.522C13.4041 125.507 12.3435 124.559 11.6891 123.927Z" fill="#CEB7B6"/>
<path d="M13.9655 66.7895C13.0403 66.9024 12.4535 67.5568 11.6637 68.0307C10.7611 68.5497 9.72305 68.8882 8.84297 69.4523C8.63987 69.5877 8.61729 70.0165 8.93322 70.0616C10.6257 70.3098 13.9203 69.2041 14.4845 67.4439C14.5522 67.1506 14.304 66.7444 13.9655 66.7895Z" fill="#CEB7B6"/>
<path d="M14.685 69.8362C14.4368 69.7911 14.2562 70.0167 14.3691 70.2424C14.685 70.8742 15.204 71.3707 15.5651 71.98C15.9713 72.6795 16.1744 73.4468 16.4903 74.1915C16.7611 74.8684 18.0248 74.891 17.912 73.9884C17.7314 72.3636 16.4226 70.1972 14.685 69.8362Z" fill="#CEB7B6"/>
<path d="M6.60836 65.2551C6.78889 64.7135 5.99908 64.4201 5.72828 64.8714C4.41945 66.9249 3.7876 69.6329 4.35175 72.0474C4.55485 72.9275 5.99907 72.747 5.93137 71.8218C5.77341 69.4975 5.86368 67.4891 6.60836 65.2551Z" fill="#CEB7B6"/>
<path d="M44.9249 133.901C44.1577 134.872 43.3001 135.729 42.3524 136.519C41.4272 137.286 40.3891 137.873 39.6219 138.798C39.5542 138.888 39.5993 139.024 39.7122 139.024C42.217 139.069 44.5413 136.79 46.0758 135.03C46.7302 134.24 45.5568 133.089 44.9249 133.901Z" fill="#CEB7B6"/>
<path d="M44.338 139.701C44.1123 139.633 43.9092 139.859 43.9543 140.084C44.2251 140.987 44.857 141.754 45.3083 142.589C45.7145 143.356 45.8499 144.056 46.6623 144.394C46.8428 144.462 47.0911 144.349 47.1813 144.191C47.8809 142.657 45.7145 140.175 44.338 139.701Z" fill="#CEB7B6"/>
<path d="M97.0706 38.3789C97.0706 38.3789 92.1061 34.4976 88.4278 32.3312C84.7495 30.1649 78.0925 31.045 78.0925 31.045C78.0925 31.045 83.892 34.4073 85.8552 35.513C87.7959 36.6414 85.2008 39.5298 82.8314 38.8754C80.4619 38.221 77.8668 36.5285 77.1221 38.8754C76.6934 40.2294 79.0629 40.6356 82.9442 42.3731C86.1486 43.7948 93.6405 46.8864 93.6405 46.8864L97.0706 38.3789Z" fill="#778DFD"/>
<path d="M135.272 36.2126C135.272 36.2126 143.034 26.306 149.511 27.5923C155.987 28.8786 167.338 35.7838 167.338 50.4067C167.338 56.8606 154.227 51.9411 148.744 54.6491C143.26 57.357 127.802 64.0592 120.243 64.691C112.683 65.3454 89.7107 46.8638 89.7107 46.8638C89.7107 46.8638 88.3567 45.7355 91.2226 40.7258C94.0659 35.7387 95.7584 35.1068 95.7584 35.1068C95.7584 35.1068 105.326 38.7851 108.531 41.1545C111.735 43.524 118.776 46.8638 118.776 46.8638C118.776 46.8638 124.282 40.9515 127.735 38.7851C131.232 36.6413 135.272 36.2126 135.272 36.2126Z" fill="#FFB600"/>
<path d="M140.277 140.22C140.277 140.22 150.567 143.357 153.162 146.832C155.78 150.329 157.044 153.105 157.54 157.393C158.036 161.68 156.254 164.388 151.65 164.185C147.611 164.005 145.58 161.906 144.903 159.604C144.903 159.604 133.552 158.408 127.73 154.369C121.931 150.329 130.731 139.137 140.277 140.22Z" fill="#2C1D1B"/>
<path d="M109.884 86.6027C118.978 84.5718 130.238 87.9793 139.829 92.4473C140.055 92.4699 140.28 92.515 140.529 92.6279C152.015 98.1566 175.258 103.843 178.214 106.371C182.863 117.699 176.589 134.375 164.674 132.863C158.581 136.609 151.676 136.993 145.403 134.623C145.696 135.03 149.961 141.1 153.143 146.809C149.848 148.479 148.607 149.946 143.485 154.346C137.956 152.112 129.561 144.823 124.845 141.258C120.129 137.692 103.971 120.181 103.971 105.423C98.0591 99.8716 99.368 88.9496 109.884 86.6027Z" fill="#2C1D1B"/>
<path d="M108.034 150.578C108.553 144.124 112.479 135.075 115.21 130.99C122.431 120.204 125.206 113.186 132.946 108.244C142.266 102.286 148.201 112.983 157.995 114.359C158.085 114.314 168.24 110.297 168.939 109.936C168.759 110.23 170.903 125.055 167.36 132.931C164.11 140.152 156.28 141.235 147.208 141.506C143.53 147.825 137.776 152.315 136.151 153.128C138.994 155.362 142.176 156.964 146.96 161.477C153.843 167.976 162.35 175.22 170.677 180.839C168.556 182.012 166.547 183.908 165.713 185.014C164.449 186.706 163.614 188.218 163.14 191.016C147.569 187.451 135.226 179.304 122.453 170.301C117.85 167.051 115.345 163.734 112.073 159.694C105.777 158.656 106.048 152.428 108.034 150.578Z" fill="#3F2A28"/>
<path d="M124.826 39.3721L133.966 46.8641C138.908 45.1039 142.654 39.2819 144.775 33.7081C142.97 32.2638 136.583 28.6081 136.132 26.6674C138.027 21.3418 135.162 16.8737 130.22 12.0897C125.052 7.08004 115.71 7.12517 110.113 11.5481C109.301 11.8641 105.126 14.8654 105.668 19.9427C106.3 25.6068 109.526 39.1916 114.333 41.6513C117.695 43.3889 121.599 40.6133 124.826 39.3721Z" fill="#FFC9B6"/>
<path d="M137.984 12.0218C137.51 7.7117 135.163 3.83032 130.515 1.70911C125.302 -0.682898 115.982 -1.02139 111.785 3.69493C111.694 3.53696 111.672 3.379 111.559 3.2436C110.25 1.57371 108.129 1.84451 106.594 2.99538C105.398 3.89802 104.473 5.25199 103.887 6.71879C102.984 6.42543 101.968 6.40286 101.111 6.76392C98.087 8.02762 98.1998 12.3152 99.2604 14.82C101.472 20.0328 109.686 25.7194 115.756 24.2978C115.463 27.3216 116.93 28.969 119.367 30.9548C123.158 34.0463 128.619 34.2269 132.907 32.0831C137.758 29.6685 142.181 24.0947 141.843 18.4306C141.73 15.7904 140.173 13.2855 137.984 12.0218Z" fill="#2C1D1B"/>
<path d="M113.658 25.6744C113.658 25.6744 114.764 22.1315 118.104 24.343C121.444 26.5545 117.449 33.1664 117.449 33.1664L113.658 25.6744Z" fill="#FFC9B6"/>
<path d="M145.538 31.2706C139.942 33.6851 140.326 34.7006 128.659 43.6819C116.992 52.6407 116.406 57.9211 117.466 63.495C118.527 69.0462 119.339 71.9121 123.875 82.7439C129.652 96.5318 137.054 104.024 137.054 104.024C137.054 104.024 133.082 105.242 131.277 106.371C129.471 107.476 129.043 113.614 131.051 115.51C136.783 120.903 161.177 130.291 179.523 107.341C178.643 91.9057 173.723 68.3016 169.774 56.1384C165.306 42.3505 150.458 29.1268 145.538 31.2706Z" fill="#FFCE00"/>
<path d="M110.851 129.23C103.539 135.255 100.583 146.877 103.765 154.369C106.654 161.229 113.288 164.208 113.288 164.208C113.288 164.208 115.951 145.546 121.096 136.068C126.241 126.59 133.282 125.89 137.953 120.204C142.624 114.517 140.277 108.718 140.277 108.718L127.527 91.6802C127.527 91.6802 113.965 109.169 105.796 113.366C106.766 120.181 111.009 126.026 110.851 129.23Z" fill="#BBCDFF"/>
<path d="M110.858 129.23C110.858 129.23 117.086 123.498 121.103 119.955C125.887 115.713 128.166 112.441 131.28 106.348C132.16 99.1495 127.534 93.192 127.534 93.192C127.534 93.192 122.073 92.4248 121.69 99.1269C121.103 109.891 106.209 115.713 106.209 115.713C106.209 115.713 110.361 127.131 110.858 129.23Z" fill="#A6C2FF"/>
<path d="M138.409 107.318C138.409 107.318 145.675 111.268 152.378 113.05C159.08 114.833 159.915 114.585 164.721 115.51C162.871 115.51 152.445 116.548 148.158 113.975C143.848 111.403 138.409 107.318 138.409 107.318Z" fill="#FFB600"/>
<path d="M161.158 104.137C161.158 104.137 157.299 107.318 151.544 106.777C145.79 106.213 142.157 105.513 142.157 105.513C142.157 105.513 148.34 103.753 151.544 104.137C154.749 104.52 161.158 104.137 161.158 104.137Z" fill="#FFB600"/>
<path d="M162.669 174.927C162.669 174.927 171.131 174.34 174.583 174.927C178.036 175.513 178.533 181.742 181.579 184.698C184.625 187.654 193.404 189.166 195.728 195.236C198.075 201.306 193.787 210.694 188.304 208.37C179.3 204.578 161.112 189.414 161.112 189.414C161.112 189.414 156.914 182.938 162.669 174.927Z" fill="#2C1D1B"/>
<path d="M125.164 82.7667C125.164 82.7667 127.172 95.7874 129.248 99.3528C133.355 106.393 138.162 105.288 138.388 105.446C138.388 105.446 137.034 97.5701 135.409 92.5378C133.784 87.5056 131.257 78.953 131.257 78.953L125.164 82.7667Z" fill="#BBCDFF"/>
<path d="M125.164 46.7287C125.164 46.7287 132.159 44.788 138.41 53.6113C144.819 62.6829 146.669 73.808 150.415 86.0163C154.522 99.3528 157.185 106.393 157.185 106.393L161.157 104.137C161.157 104.137 156.147 91.229 151.544 74.0336C149.964 68.0762 146.015 53.9047 141.75 49.9556C135.364 44.0207 128.639 43.6822 128.639 43.6822L125.164 46.7287Z" fill="#BBCDFF"/>
<path d="M141.636 32.8729C141.636 32.8729 150.076 33.1212 156.304 41.9671C162.713 51.0387 163.119 59.9523 166.865 72.1605C170.972 85.4971 172.484 93.1922 172.484 93.1922L176.162 91.0935C176.162 91.0935 172.574 77.3508 167.993 60.1779C166.414 54.2205 160.546 39.5751 156.304 35.626C149.918 29.6911 145.111 29.8265 145.111 29.8265L141.636 32.8729Z" fill="#BBCDFF"/>
<path d="M177.721 88.7467C177.721 88.7467 164.227 100.21 155.606 103.054C145.474 106.393 135.432 105.017 131.28 102.128C130.942 103.911 131.28 106.326 131.28 106.326C131.28 106.326 132.95 108.199 138.411 109.869C143.872 111.539 152.357 110.162 159.646 106.8C166.935 103.437 178.24 94.9073 178.24 94.9073L177.721 88.7467Z" fill="#A6C2FF"/>
<path d="M79.8023 88.7466C81.8333 89.3333 83.3903 85.7227 85.0828 79.0883C86.7752 72.4538 88.2646 68.8433 85.8275 68.3694C83.4129 67.8955 80.2085 70.107 78.0196 76.1772C75.8532 82.2475 77.9068 88.2275 79.8023 88.7466Z" fill="#627DF4"/>
<path d="M124.262 52.4827C119.704 50.6097 114.694 54.6942 106.39 63.9011C98.1532 67.1958 83.0791 69.6329 81.5671 71.032C76.7831 76.6961 75.6548 83.6465 81.5671 87.0088C82.8534 87.731 91.925 92.1313 93.0759 91.2738C97.4988 93.2371 110.7 90.6871 114.243 83.9624C117.808 85.3164 126.135 87.4376 133.356 75.0262C137.012 68.7077 136.245 57.4247 124.262 52.4827Z" fill="#FFB600"/>
<path d="M75.0202 70.6938C72.9442 68.5274 64.6172 64.6912 61.6611 62.3443C58.0054 59.4559 55.9744 57.8988 53.447 56.8833C49.5657 57.4926 45.594 57.6506 41.2614 60.02C36.2742 62.728 30.3845 68.3243 28.1956 73.7628C30.046 77.2154 32.7313 78.795 35.3264 80.6454C37.4476 82.1574 41.2839 83.3534 43.4728 84.6622C45.8197 86.0613 47.467 87.8666 50.3103 90.9356C57.3509 89.1529 59.8332 82.1799 64.4818 79.3817C66.6707 78.0278 75.7198 74.6203 75.0202 70.6938Z" fill="#FF61AD"/>
<path d="M85.8546 68.3919C85.8546 68.3919 79.2879 66.9702 73.7592 66.564C67.6663 66.1127 61.7089 66.1804 60.0615 65.4583C58.7301 64.0141 57.5567 62.6827 56.293 61.0128C53.6753 57.5376 54.2621 54.8974 52.8178 55.123C51.3736 55.3487 51.4187 57.6955 51.4639 59.8393C51.4864 60.4937 51.5992 61.2836 51.7346 62.0734C51.2156 61.8477 50.7192 61.6221 50.2679 61.419C40.3162 56.9057 36.2768 58.4402 36.4799 64.7813C36.6379 69.8813 52.2537 74.5976 57.6018 75.2971C62.95 80.9161 73.4207 87.3023 79.7843 88.7691C78.3852 86.0386 79.2879 80.1714 80.7547 76.5383C83.1467 70.6485 85.8546 68.3919 85.8546 68.3919Z" fill="#778DFD"/>
</svg>
