<svg width="137" height="55" viewBox="0 0 137 55" fill="none" xmlns="http://www.w3.org/2000/svg">
<rect width="55" height="55" rx="27.5" fill="url(#paint0_linear_0_552)"/>
<path d="M20.24 24.5V31H19.382V25.332H16.444V28.231C16.444 29.3143 16.236 30.0597 15.82 30.467C15.4127 30.8743 14.8493 31.052 14.13 31V30.194C14.624 30.246 14.988 30.129 15.222 29.843C15.4647 29.557 15.586 29.0197 15.586 28.231V24.5H20.24ZM27.5045 30.181C26.8458 30.831 26.0398 31.156 25.0865 31.156C24.1331 31.156 23.3228 30.831 22.6555 30.181C21.9968 29.5223 21.6675 28.712 21.6675 27.75C21.6675 26.788 21.9968 25.982 22.6555 25.332C23.3228 24.6733 24.1331 24.344 25.0865 24.344C26.0398 24.344 26.8458 24.6733 27.5045 25.332C28.1718 25.982 28.5055 26.788 28.5055 27.75C28.5055 28.712 28.1718 29.5223 27.5045 30.181ZM23.2665 29.583C23.7605 30.077 24.3671 30.324 25.0865 30.324C25.8058 30.324 26.4125 30.077 26.9065 29.583C27.4005 29.0803 27.6475 28.4693 27.6475 27.75C27.6475 27.0307 27.4005 26.424 26.9065 25.93C26.4125 25.4273 25.8058 25.176 25.0865 25.176C24.3671 25.176 23.7605 25.4273 23.2665 25.93C22.7725 26.424 22.5255 27.0307 22.5255 27.75C22.5255 28.4693 22.7725 29.0803 23.2665 29.583ZM34.1013 24.5V25.332H30.7993V31H29.9413V24.5H34.1013ZM40.3394 30.181C39.6808 30.831 38.8748 31.156 37.9214 31.156C36.9681 31.156 36.1578 30.831 35.4904 30.181C34.8318 29.5223 34.5024 28.712 34.5024 27.75C34.5024 26.788 34.8318 25.982 35.4904 25.332C36.1578 24.6733 36.9681 24.344 37.9214 24.344C38.8748 24.344 39.6808 24.6733 40.3394 25.332C41.0068 25.982 41.3404 26.788 41.3404 27.75C41.3404 28.712 41.0068 29.5223 40.3394 30.181ZM36.1014 29.583C36.5954 30.077 37.2021 30.324 37.9214 30.324C38.6408 30.324 39.2474 30.077 39.7414 29.583C40.2354 29.0803 40.4824 28.4693 40.4824 27.75C40.4824 27.0307 40.2354 26.424 39.7414 25.93C39.2474 25.4273 38.6408 25.176 37.9214 25.176C37.2021 25.176 36.5954 25.4273 36.1014 25.93C35.6074 26.424 35.3604 27.0307 35.3604 27.75C35.3604 28.4693 35.6074 29.0803 36.1014 29.583Z" fill="white"/>
<path d="M77.226 17.032H78.474L75.497 20.386L78.721 24H77.395L74.249 20.464V24H73.105V17.032H74.249V20.412L77.226 17.032ZM85.2899 24H84.1329V17.981H82.0789C81.9662 19.4457 81.8102 20.6287 81.6109 21.53C81.4115 22.4227 81.1472 23.0727 80.8179 23.48C80.4885 23.8873 80.0725 24.091 79.5699 24.091C79.4572 24.091 79.3445 24.0823 79.2319 24.065C79.1279 24.0563 79.0412 24.0347 78.9719 24V23.142C79.0239 23.1593 79.0802 23.1723 79.1409 23.181C79.2015 23.1897 79.2622 23.194 79.3229 23.194C79.7909 23.194 80.1635 22.6957 80.4409 21.699C80.7269 20.7023 80.9435 19.1467 81.0909 17.032H85.2899V24ZM88.5805 21.283C88.5805 21.387 88.5762 21.543 88.5675 21.751C88.5588 21.959 88.5458 22.167 88.5285 22.375C88.5198 22.583 88.5112 22.7477 88.5025 22.869L92.2335 17.032H93.6375V24H92.5715V19.892C92.5715 19.7533 92.5715 19.5713 92.5715 19.346C92.5802 19.1207 92.5888 18.8997 92.5975 18.683C92.6062 18.4577 92.6148 18.2887 92.6235 18.176L88.9185 24H87.5015V17.032H88.5805V21.283ZM96.999 17.032V19.931H100.782V17.032H101.926V24H100.782V20.893H96.999V24H95.855V17.032H96.999ZM105.211 21.283C105.211 21.387 105.207 21.543 105.198 21.751C105.19 21.959 105.177 22.167 105.159 22.375C105.151 22.583 105.142 22.7477 105.133 22.869L108.864 17.032H110.268V24H109.202V19.892C109.202 19.7533 109.202 19.5713 109.202 19.346C109.211 19.1207 109.22 18.8997 109.228 18.683C109.237 18.4577 109.246 18.2887 109.254 18.176L105.549 24H104.132V17.032H105.211V21.283ZM113.63 17.032V19.931H117.413V17.032H118.557V24H117.413V20.893H113.63V24H112.486V17.032H113.63ZM125.014 17.032V17.994H121.907V24H120.763V17.032H125.014ZM77.226 33.032H78.474L75.497 36.386L78.721 40H77.395L74.249 36.464V40H73.105V33.032H74.249V36.412L77.226 33.032ZM85.79 36.503C85.79 37.6557 85.4953 38.5483 84.906 39.181C84.3253 39.8137 83.5366 40.13 82.54 40.13C81.9246 40.13 81.3743 39.9913 80.889 39.714C80.4123 39.428 80.0353 39.0163 79.758 38.479C79.4806 37.933 79.342 37.2743 79.342 36.503C79.342 35.3503 79.6323 34.462 80.213 33.838C80.7936 33.214 81.5823 32.902 82.579 32.902C83.2116 32.902 83.7663 33.045 84.243 33.331C84.7283 33.6083 85.1053 34.0157 85.374 34.553C85.6513 35.0817 85.79 35.7317 85.79 36.503ZM80.525 36.503C80.525 37.3263 80.6853 37.9807 81.006 38.466C81.3353 38.9427 81.8553 39.181 82.566 39.181C83.268 39.181 83.7836 38.9427 84.113 38.466C84.4423 37.9807 84.607 37.3263 84.607 36.503C84.607 35.6797 84.4423 35.034 84.113 34.566C83.7836 34.098 83.2636 33.864 82.553 33.864C81.8423 33.864 81.3266 34.098 81.006 34.566C80.6853 35.034 80.525 35.6797 80.525 36.503ZM95.078 33.032V40H94.051V35.554C94.051 35.372 94.0554 35.1813 94.064 34.982C94.0814 34.7827 94.0987 34.5877 94.116 34.397H94.077L91.802 40H90.84L88.63 34.397H88.591C88.617 34.787 88.63 35.1857 88.63 35.593V40H87.603V33.032H89.124L91.321 38.635L93.557 33.032H95.078ZM103.191 33.032V40H102.047V34.007H98.4463V40H97.3023V33.032H103.191ZM108.054 32.915C108.903 32.915 109.531 33.1013 109.939 33.474C110.346 33.8467 110.55 34.4403 110.55 35.255V40H109.718L109.497 39.012H109.445C109.141 39.3933 108.821 39.675 108.483 39.857C108.153 40.039 107.694 40.13 107.105 40.13C106.472 40.13 105.948 39.9653 105.532 39.636C105.116 39.298 104.908 38.7737 104.908 38.063C104.908 37.3697 105.181 36.8367 105.727 36.464C106.273 36.0827 107.113 35.8747 108.249 35.84L109.432 35.801V35.385C109.432 34.8043 109.306 34.4013 109.055 34.176C108.803 33.9507 108.448 33.838 107.989 33.838C107.625 33.838 107.278 33.8943 106.949 34.007C106.619 34.111 106.312 34.2323 106.026 34.371L105.675 33.513C105.978 33.3483 106.338 33.2097 106.754 33.097C107.17 32.9757 107.603 32.915 108.054 32.915ZM108.392 36.633C107.525 36.6677 106.923 36.8063 106.585 37.049C106.255 37.2917 106.091 37.634 106.091 38.076C106.091 38.466 106.208 38.752 106.442 38.934C106.684 39.116 106.992 39.207 107.365 39.207C107.954 39.207 108.444 39.0467 108.834 38.726C109.224 38.3967 109.419 37.894 109.419 37.218V36.594L108.392 36.633ZM113.846 33.032V35.931H117.629V33.032H118.773V40H117.629V36.893H113.846V40H112.702V33.032H113.846ZM122.058 37.283C122.058 37.387 122.054 37.543 122.045 37.751C122.036 37.959 122.023 38.167 122.006 38.375C121.997 38.583 121.989 38.7477 121.98 38.869L125.711 33.032H127.115V40H126.049V35.892C126.049 35.7533 126.049 35.5713 126.049 35.346C126.058 35.1207 126.066 34.8997 126.075 34.683C126.084 34.4577 126.092 34.2887 126.101 34.176L122.396 40H120.979V33.032H122.058V37.283ZM129.762 40H128.436L130.425 37.075C130.156 37.0057 129.896 36.8973 129.645 36.75C129.393 36.594 129.19 36.3817 129.034 36.113C128.878 35.8357 128.8 35.4933 128.8 35.086C128.8 34.4187 129.025 33.9117 129.476 33.565C129.926 33.2097 130.524 33.032 131.27 33.032H134.39V40H133.246V37.231H131.556L129.762 40ZM129.905 35.099C129.905 35.4977 130.052 35.7967 130.347 35.996C130.65 36.1867 131.07 36.282 131.608 36.282H133.246V33.981H131.387C130.858 33.981 130.477 34.085 130.243 34.293C130.017 34.501 129.905 34.7697 129.905 35.099Z" fill="#3858F3" fill-opacity="0.8"/>
<defs>
<linearGradient id="paint0_linear_0_552" x1="-0.844972" y1="9.03381" x2="53.508" y2="12.2504" gradientUnits="userSpaceOnUse">
<stop stop-color="#3858F3"/>
<stop offset="1" stop-color="#9A36E7"/>
</linearGradient>
</defs>
</svg>
